<svg xmlns="http://www.w3.org/2000/svg" width="89.488" height="89.488"><g id="구성_요소_41_1" data-name="구성 요소 41 – 1" transform="translate(1.514 1.513)" stroke="#00479d" stroke-width="3"><path id="패스_14688" data-name="패스 14688" d="M168.622 306.072s-16.494-7.128-18.331-18.753c-1.932-12.234 6.18-23.08 18.331-24.308 14.348-1.45 24.812 6.761 24.812 10.624 0 5.152-8.639 4.851-14.327 8.692-7.385 4.992-11.473 14.811-10.485 23.745" transform="translate(-125.061 -262.842)" fill="none"/><path id="패스_14689" data-name="패스 14689" d="M168.622 306.072s-16.494-7.128-18.331-18.753c-1.932-12.234 6.18-23.08 18.331-24.308 14.348-1.45 24.812 6.761 24.812 10.624 0 5.152-8.639 4.851-14.327 8.692-7.386 4.992-11.473 14.811-10.485 23.745z" transform="translate(-125.061 -262.842)" fill="none" stroke-linecap="round" stroke-linejoin="round"/><path id="패스_14690" data-name="패스 14690" d="M171.7 282.492s16.493 7.128 18.331 18.753c1.932 12.234-6.18 23.083-18.331 24.308-14.348 1.45-24.812-6.761-24.812-10.624 0-5.152 8.639-4.851 14.326-8.692 7.385-4.992 11.473-14.811 10.485-23.745" transform="translate(-128.801 -239.262)" fill="none"/><path id="패스_14691" data-name="패스 14691" d="M171.7 282.492s16.493 7.128 18.331 18.753c1.932 12.234-6.18 23.083-18.331 24.308-14.348 1.45-24.812-6.761-24.812-10.624 0-5.152 8.639-4.851 14.326-8.692 7.386-4.992 11.476-14.811 10.486-23.745z" transform="translate(-128.801 -239.262)" fill="none" stroke-linecap="round" stroke-linejoin="round"/><path id="패스_14692" data-name="패스 14692" d="M158.318 292.8s7.128-16.493 18.753-18.331c12.234-1.932 23.083 6.18 24.308 18.331 1.45 14.349-6.761 24.812-10.624 24.812-5.15 0-4.851-8.64-8.692-14.327-4.992-7.385-14.811-11.473-23.745-10.485" transform="translate(-115.087 -249.234)" fill="none"/><path id="패스_14693" data-name="패스 14693" d="M158.318 292.8s7.128-16.493 18.753-18.331c12.234-1.932 23.083 6.18 24.308 18.331 1.45 14.349-6.761 24.812-10.624 24.812-5.15 0-4.851-8.64-8.692-14.327-4.992-7.385-14.811-11.476-23.745-10.485z" transform="translate(-115.087 -249.234)" fill="none" stroke-linecap="round" stroke-linejoin="round"/><path id="패스_14694" data-name="패스 14694" d="M181.9 295.877s-7.128 16.494-18.753 18.331c-12.234 1.932-23.08-6.18-24.308-18.331-1.45-14.348 6.761-24.812 10.624-24.812 5.152 0 4.851 8.639 8.692 14.327 4.992 7.385 14.811 11.473 23.745 10.485" transform="translate(-138.668 -252.975)" fill="none"/><path id="패스_14695" data-name="패스 14695" d="M181.9 295.877s-7.128 16.494-18.753 18.331c-12.234 1.932-23.08-6.18-24.308-18.331-1.45-14.348 6.761-24.812 10.624-24.812 5.152 0 4.851 8.639 8.692 14.327 4.991 7.385 14.809 11.473 23.745 10.485z" transform="translate(-138.668 -252.975)" fill="none" stroke-linecap="round" stroke-linejoin="round"/><path id="패스_14696" data-name="패스 14696" d="M170.224 286.64a7.607 7.607 0 11-7.605-7.605 7.606 7.606 0 017.605 7.605" transform="translate(-119.056 -243.41)" fill="none"/><path id="패스_14697" data-name="패스 14697" d="M170.224 286.64a7.607 7.607 0 11-7.605-7.605 7.606 7.606 0 017.605 7.605z" transform="translate(-119.056 -243.41)" fill="#fff" stroke-linecap="round" stroke-linejoin="round"/></g></svg>