<svg xmlns="http://www.w3.org/2000/svg" width="100.83" height="73.729"><g id="구성_요소_48_1" data-name="구성 요소 48 – 1" transform="translate(1.5 1.5)" fill="none" stroke="#00479d" stroke-linecap="round" stroke-width="3"><path id="패스_14795" data-name="패스 14795" d="M271.333 217.58v24.892m-9.665-24.892v24.892M252 217.58v24.892m-9.661-10.972h33.211m-35.6-22.76a9.78 9.78 0 11-9.78-9.78 9.781 9.781 0 019.777 9.783z" transform="translate(-211.627 -198.963)"/><path id="패스_14796" data-name="패스 14796" d="M225.373 199.69l4.874 8.817h-6.1l4.54 8.394" transform="translate(-208.693 -198.397)"/><path id="패스_14797" data-name="패스 14797" d="M289.31 245.783h9.159m-76.638-27.289h-6.367v-11.2h6.367v11.2z" transform="translate(-215.464 -192.469)"/><path id="패스_14798" data-name="패스 14798" d="M271.436 232.731h-38.714v-21.273h38.713v14.587" transform="translate(-202.011 -189.223)"/><path id="패스_14799" data-name="패스 14799" d="M222.507 207.295h-3.465v13.93l9.3 8.869v12.079H282.1v-6.2h-38.712v-28.678h-3.854" transform="translate(-212.676 -192.469)"/><path id="패스_14800" data-name="패스 14800" d="M270.286 232.9v-13s-.916-2.052-3.4.886c-2.961 3.511-3.394 10.629-3.394 12.12z" transform="translate(-178.022 -183.19)"/><path id="사각형_10610" data-name="사각형 10610" transform="translate(83.007 49.711)" d="M0 0h10.319v7.203H0z"/><path id="패스_14801" data-name="패스 14801" d="M270.286 230.946v13.113s-.916 2.052-3.4-.884c-2.961-3.513-3.394-11.343-3.394-12.229z" transform="translate(-178.022 -174.031)"/><path id="패스_14802" data-name="패스 14802" d="M273.461 233.675h-52.716V226.9h64.368v6.78h-4.342" transform="translate(-211.348 -177.19)"/><path id="패스_14803" data-name="패스 14803" d="M267.909 227.01h1.74a2.824 2.824 0 012.764 2.883v1.444a2.824 2.824 0 01-2.764 2.883h-1.74z" transform="translate(-174.583 -177.305)"/></g></svg>