<svg xmlns="http://www.w3.org/2000/svg" width="100.46" height="80.574"><g id="구성_요소_40_1" data-name="구성 요소 40 – 1" transform="translate(1.5 1.5)" fill="none" stroke="#00479d" stroke-width="3"><path id="패스_14698" data-name="패스 14698" d="M338.88 232.057l-2.12 9.091h22.4l-1.818-9.091z" transform="translate(-299.479 -168.844)"/><path id="패스_14701" data-name="패스 14701" d="M320.966 231.705v-20.557a5.618 5.618 0 015.618-5.618h86.224a5.618 5.618 0 015.618 5.618v51.5a5.619 5.619 0 01-5.618 5.618h-86.224a5.619 5.619 0 01-5.618-5.618v-20.082" transform="translate(-320.966 -205.53)"/><path id="패스_14702" data-name="패스 14702" d="M330.394 249.919h88.032m-97.46-18.213v-20.558a5.618 5.618 0 015.618-5.618h86.224a5.618 5.618 0 015.618 5.618v51.5a5.619 5.619 0 01-5.618 5.618h-86.224a5.619 5.619 0 01-5.618-5.618v-20.082" transform="translate(-320.966 -205.53)" stroke-linecap="round" stroke-linejoin="round"/><path id="패스_14703" data-name="패스 14703" d="M347.118 230.09a3.495 3.495 0 11-3.5-3.494 3.494 3.494 0 013.5 3.494" transform="translate(-294.895 -176.87)"/><path id="패스_14704" data-name="패스 14704" d="M347.118 230.09a3.495 3.495 0 11-3.5-3.494 3.494 3.494 0 013.5 3.494z" transform="translate(-294.895 -176.87)" stroke-linecap="round" stroke-linejoin="round"/><path id="사각형_10574" data-name="사각형 10574" transform="translate(29.254 72.304)" d="M0 0h38.953v5.271H0z"/><path id="패스_14705" data-name="패스 14705" d="M354.809 230.537v-19.965a1.475 1.475 0 011.471-1.471h4.2a1.477 1.477 0 011.471 1.471v27.316" transform="translate(-274.923 -200.673)"/><path id="패스_14706" data-name="패스 14706" d="M354.809 230.537v-19.965a1.475 1.475 0 011.471-1.471h4.2a1.477 1.477 0 011.471 1.471v27.316" transform="translate(-274.923 -200.673)" stroke-linecap="round" stroke-linejoin="round"/><path id="패스_14707" data-name="패스 14707" d="M349.716 234v-20.57a1.475 1.475 0 011.471-1.471h4.2a1.475 1.475 0 011.471 1.471V234" transform="translate(-281.852 -196.782)"/><path id="패스_14708" data-name="패스 14708" d="M349.716 234v-20.57a1.475 1.475 0 011.471-1.471h4.2a1.475 1.475 0 011.471 1.471V234" transform="translate(-281.852 -196.782)" stroke-linecap="round" stroke-linejoin="round"/><path id="패스_14709" data-name="패스 14709" d="M344.623 220.966v-3.359a1.474 1.474 0 011.471-1.471h4.2a1.474 1.474 0 011.47 1.471v10.71" transform="translate(-288.781 -191.1)"/><path id="패스_14710" data-name="패스 14710" d="M343.647 228.316h35.8m-33.493-7.351v-3.359a1.474 1.474 0 011.471-1.471h4.2a1.474 1.474 0 011.471 1.471v10.71" transform="translate(-290.109 -191.1)" stroke-linecap="round" stroke-linejoin="round"/><path id="패스_14711" data-name="패스 14711" d="M353.744 225.66v-4.334l-3.328-.869-1.114-2.606 1.759-3-3.061-3.066-2.969 1.737-2.63-1.053-.878-3.368h-4.334l-.871 3.328-2.6 1.114-3-1.759-3.061 3.064 1.74 2.969-1.057 2.63-3.366.878v4.334l3.328.871 1.112 2.6-1.756 3 3.061 3.064 2.97-1.737 2.63 1.055.88 3.366h4.334l.869-3.328 2.606-1.112 3 1.756 3.064-3.064-1.737-2.967 1.053-2.63z" transform="translate(-315.532 -200.673)"/><path id="패스_14712" data-name="패스 14712" d="M353.744 225.66v-4.334l-3.328-.869-1.114-2.606 1.759-3-3.061-3.066-2.969 1.737-2.63-1.053-.878-3.368h-4.334l-.871 3.328-2.6 1.114-3-1.759-3.061 3.064 1.74 2.969-1.057 2.63-3.366.878v4.334l3.328.871 1.112 2.6-1.756 3 3.061 3.064 2.97-1.737 2.63 1.055.88 3.366h4.334l.869-3.328 2.606-1.112 3 1.756 3.064-3.064-1.737-2.967 1.053-2.63z" transform="translate(-315.532 -200.673)" stroke-linecap="round" stroke-linejoin="round"/><path id="패스_14713" data-name="패스 14713" d="M337.039 217.379a3.8 3.8 0 11-3.8-3.8 3.8 3.8 0 013.8 3.8" transform="translate(-309.426 -194.575)"/><path id="패스_14714" data-name="패스 14714" d="M337.039 217.379a3.8 3.8 0 11-3.8-3.8 3.8 3.8 0 013.8 3.8z" transform="translate(-309.426 -194.575)" stroke-linecap="round" stroke-linejoin="round"/></g></svg>