<svg xmlns="http://www.w3.org/2000/svg" width="144.889" height="80.855"><g id="그룹_8160" data-name="그룹 8160" transform="translate(1.5 1.5)" fill="none" stroke="#22993b" stroke-width="3"><path id="패스_14716" data-name="패스 14716" d="M347.322 350.4v-8.15H358v8.15" transform="translate(-231.899 -334.91)"/><path id="패스_14717" data-name="패스 14717" d="M347.322 350.4v-8.15H358v8.15" transform="translate(-231.899 -334.91)" stroke-miterlimit="10"/><path id="패스_14719" data-name="패스 14719" d="M340.654 379.959h-36.211v-19.9h36.211V373.7" transform="translate(-273.316 -317.827)" stroke-linecap="round"/><path id="패스_14723" data-name="패스 14723" d="M341.616 366.859v23.284m-9.04-23.284v23.284m-9.04-23.284v23.284m-9.04-10.261h31.066m-33.3-21.289a9.23 9.23 0 11-2.179-5.875 9.607 9.607 0 011.484 2.37 8.787 8.787 0 01.692 3.505z" transform="translate(-283.086 -328.01)" stroke-linecap="round"/><path id="패스_14725" data-name="패스 14725" d="M343.577 379.518h-49.31v-6.342h60.21v6.342h-4.062" transform="translate(-283.391 -301.662)" stroke-linecap="round"/><path id="패스_14727" data-name="패스 14727" d="M298.3 350.062l4.559 8.249h-5.7l4.248 7.853" transform="translate(-280.018 -327.53)" stroke-linecap="round"/><path id="패스_14728" data-name="패스 14728" d="M368.094 380.836h60.58m-71.053-28.917h7.026m-28.372 6.309v-6.293h14.918m59.949 19.518v8.684m-25.517-8.684v8.684m-91.092-7.753h-7.748v-11.373h7.748v11.372z" transform="translate(-286.786 -325.638)" stroke-linecap="round"/><path id="패스_14730" data-name="패스 14730" d="M347.214 346.257v-4h10.68v10.118" transform="translate(-231.791 -342.253)" stroke-linecap="round"/><path id="패스_14780" data-name="패스 14780" d="M295.164 356.523h-2.344v13.031l8.7 8.3v14.882h50.28v-9.381h-36.208v-26.832h-1.813" transform="translate(-284.465 -321.218)" stroke-linecap="round"/><path id="패스_14781" data-name="패스 14781" d="M371.066 375.492h-24.943a14.54 14.54 0 010-29.079h24.943a14.54 14.54 0 010 29.079z" transform="translate(-246.996 -330.918)" stroke-linecap="round"/></g></svg>