<svg xmlns="http://www.w3.org/2000/svg" width="100.976" height="83.072"><g id="그룹_8167" data-name="그룹 8167" transform="translate(2.112 1.5)" fill="none" stroke="#22993b" stroke-width="3"><path id="패스_14742" data-name="패스 14742" d="M510.118 395.413l7.264 7.266a15.237 15.237 0 0010.772 4.461H548.7a15.242 15.242 0 0010.772-4.461L574 388.148a15.239 15.239 0 004.459-10.769V350.52" transform="translate(-490.132 -327.068)" stroke-linecap="round" stroke-linejoin="round"/><path id="패스_14743" data-name="패스 14743" d="M573.1 351.52l-7.264-7.264a15.24 15.24 0 00-10.771-4.461h-20.547a15.237 15.237 0 00-10.771 4.461l-14.531 14.53a15.232 15.232 0 00-4.461 10.769v26.859" transform="translate(-496.496 -339.795)" stroke-linecap="round" stroke-linejoin="round"/><path id="패스_14744" data-name="패스 14744" d="M517.772 361.563l-8.572 9.657-8.226-9.932" transform="translate(-500.978 -314.289)" stroke-linecap="round" stroke-linejoin="round"/><path id="패스_14745" data-name="패스 14745" d="M537.542 359.9l8.572-9.659 8.226 9.932" transform="translate(-457.588 -327.401)" stroke-linecap="round" stroke-linejoin="round"/><path id="패스_14746" data-name="패스 14746" d="M520.731 362.807c-5.042-5.042 5.043-13.216 0-18.259" transform="translate(-479.265 -334.155)" stroke-linecap="round" stroke-linejoin="round"/><path id="패스_14747" data-name="패스 14747" d="M523.943 362.807c-5.043-5.042 5.042-13.216 0-18.259" transform="translate(-475.454 -334.155)" stroke-linecap="round" stroke-linejoin="round"/><path id="패스_14748" data-name="패스 14748" d="M527.154 362.807c-5.043-5.042 5.042-13.216 0-18.259" transform="translate(-471.643 -334.155)" stroke-linecap="round" stroke-linejoin="round"/><path id="패스_14749" data-name="패스 14749" d="M523.945 380.014a4.025 4.025 0 01-3.127-4.014c0-5.171 3.984-10.385 3.984-10.385a1.3 1.3 0 012.2.031s4.028 5.591 4.028 10.354a3.97 3.97 0 01-2.77 3.9" transform="translate(-477.434 -309.865)"/><path id="패스_14750" data-name="패스 14750" d="M523.945 380.014a4.025 4.025 0 01-3.127-4.014c0-5.171 3.984-10.385 3.984-10.385a1.3 1.3 0 012.2.031s4.028 5.591 4.028 10.354a3.97 3.97 0 01-2.77 3.9" transform="translate(-477.434 -309.865)" stroke-miterlimit="10"/><path id="패스_14751" data-name="패스 14751" d="M527.809 390.708c-5.9-.564-10.236-4.006-10.236-10.144 0-12.366 10.931-23.881 10.931-23.881a1.663 1.663 0 012.491.046s10.979 12.444 10.979 23.835c0 5.9-4.181 9.32-9.742 10.083" transform="translate(-481.285 -320.392)"/><path id="패스_14752" data-name="패스 14752" d="M527.809 390.708c-5.9-.564-10.236-4.006-10.236-10.144 0-12.366 10.931-23.881 10.931-23.881a1.663 1.663 0 012.491.046s10.979 12.444 10.979 23.835c0 5.9-4.181 9.32-9.742 10.083" transform="translate(-481.285 -320.392)" stroke-miterlimit="10"/><path id="패스_14753" data-name="패스 14753" d="M527.8 390.54a4.025 4.025 0 01-3.127-4.017c0-5.171 3.984-10.384 3.984-10.384a1.3 1.3 0 012.2.031s4.028 5.591 4.028 10.354a3.971 3.971 0 01-2.771 3.9m-4.3.286c-5.9-.566-10.236-4.006-10.236-10.144 0-12.366 10.931-23.881 10.931-23.881a1.663 1.663 0 012.491.046s10.979 12.444 10.979 23.835c0 5.9-4.181 9.32-9.742 10.083" transform="translate(-481.285 -320.392)" stroke-linecap="round" stroke-linejoin="round"/></g></svg>