<svg xmlns="http://www.w3.org/2000/svg" width="101.074" height="83.155"><g id="그룹_8166" data-name="그룹 8166" transform="translate(2.112 1.5)" fill="none" stroke="#22993b" stroke-width="3"><path id="패스_14733" data-name="패스 14733" d="M418.583 395.459l7.272 7.274a15.253 15.253 0 0010.783 4.465h20.569a15.248 15.248 0 0010.781-4.465l14.548-14.546a15.255 15.255 0 004.464-10.78V350.52" transform="translate(-398.576 -327.044)" stroke-linecap="round" stroke-linejoin="round"/><path id="패스_14734" data-name="패스 14734" d="M481.638 351.532l-7.274-7.272a15.248 15.248 0 00-10.781-4.465h-20.57a15.253 15.253 0 00-10.783 4.465l-14.546 14.546a15.248 15.248 0 00-4.465 10.781v26.887" transform="translate(-404.952 -339.795)" stroke-linecap="round" stroke-linejoin="round"/><path id="패스_14735" data-name="패스 14735" d="M426.254 361.564l-8.576 9.666-8.235-9.942" transform="translate(-409.443 -314.241)" stroke-linecap="round" stroke-linejoin="round"/><path id="패스_14736" data-name="패스 14736" d="M446.007 359.908l8.581-9.669 8.233 9.942" transform="translate(-365.97 -327.377)" stroke-linecap="round" stroke-linejoin="round"/><path id="패스_14737" data-name="패스 14737" d="M429.2 381.985c-5.048-5.048 5.048-13.23 0-18.278" transform="translate(-387.688 -311.365)" stroke-linecap="round" stroke-linejoin="round"/><path id="패스_14738" data-name="패스 14738" d="M432.409 381.985c-5.048-5.048 5.048-13.23 0-18.278" transform="translate(-383.869 -311.365)" stroke-linecap="round" stroke-linejoin="round"/><path id="패스_14739" data-name="패스 14739" d="M435.62 381.985c-5.048-5.048 5.048-13.23 0-18.278" transform="translate(-380.051 -311.365)" stroke-linecap="round" stroke-linejoin="round"/><path id="패스_14740" data-name="패스 14740" d="M438.25 379.03c-6.273 0-12.212-4.01-12.212-10.155 0-12.378 10.94-23.905 10.94-23.905a1.665 1.665 0 012.493.046s10.993 12.457 10.993 23.859c0 5.9-5.941 10.155-12.214 10.155m6.385-13.118a5.042 5.042 0 01-.177 3.623 4.08 4.08 0 01-2.55 2.585" transform="translate(-389.712 -334.283)"/><path id="패스_14741" data-name="패스 14741" d="M438.25 379.03c-6.273 0-12.212-4.01-12.212-10.155 0-12.378 10.94-23.905 10.94-23.905a1.665 1.665 0 012.493.046s10.993 12.457 10.993 23.859c0 5.901-5.94 10.155-12.214 10.155zm6.385-13.118a5.042 5.042 0 01-.177 3.623 4.08 4.08 0 01-2.55 2.585" transform="translate(-389.712 -334.283)" stroke-linecap="round" stroke-miterlimit="10"/></g></svg>