<svg xmlns="http://www.w3.org/2000/svg" width="99.524" height="93.011"><g id="구성_요소_44_1" data-name="구성 요소 44 – 1" transform="translate(2.77)" fill="none" stroke="#00479d" stroke-width="3"><path id="패스_14616" data-name="패스 14616" d="M271.214 163.166a3.785 3.785 0 01-2.939-3.776c0-4.864 3.747-9.767 3.747-9.767a1.215 1.215 0 012.065.031s3.788 5.256 3.788 9.736a3.735 3.735 0 01-2.605 3.666m-4.044.268c-5.551-.531-9.624-3.766-9.624-9.539 0-11.627 10.278-22.455 10.278-22.455a1.563 1.563 0 012.342.044s10.325 11.7 10.325 22.411c0 5.545-3.932 8.764-9.161 9.481m-2.651 38.489c-5.893 0-11.471-3.768-11.471-9.541 0-11.627 10.278-22.453 10.278-22.453a1.564 1.564 0 012.342.042s10.326 11.7 10.326 22.411c0 5.545-5.58 9.541-11.473 9.541m6-12.322a4.729 4.729 0 01-.168 3.4 3.829 3.829 0 01-2.393 2.429" transform="translate(-189.293 -124.515)"/><path id="패스_14618" data-name="패스 14618" d="M275.543 163.891l-2.342-8.26H251.93L241.3 193.15l8.719 19.968h25.1l8.721-19.968-6.651-23.459m-31.3 43.427h33.362m-8.931 6.182h-15.508l-1.171-6.178h17.851zm2.881-26.5h18.972m-46.288-31.6h-19.291l10.658 16.329-6.095 15.27h26.1m5.306 9.848h0a5.3 5.3 0 01-5.306-5.3v-12.974h10.61v12.962a5.3 5.3 0 01-5.3 5.3m4.573-35.835a4.574 4.574 0 11-4.573-4.573 4.575 4.575 0 014.573 4.573m.986-11.17H257v-20.268h11.123zm-5.669-20.269v-7.577m5.669 16.505h10.6L285 155.631m-11.8 0h16.476m-32.672-17.672a8.471 8.471 0 11-8.472-8.47 8.471 8.471 0 018.472 8.47M243.6 154.848a6.343 6.343 0 11-6.344-6.344 6.343 6.343 0 016.344 6.344m.23-9.848l-3.054 4.571m1.152 27.947h46.95" transform="translate(-226.594 -127.785)"/></g></svg>