<svg xmlns="http://www.w3.org/2000/svg" width="98.546" height="93.15"><g id="구성_요소_43_1" data-name="구성 요소 43 – 1" transform="translate(2.767)" fill="none" stroke="#00479d" stroke-width="3"><path id="패스_14612" data-name="패스 14612" d="M183.47 164.074l-2.34-8.273h-21.255l-10.626 37.577 8.712 20h25.083l8.712-20-6.646-23.494m-31.276 43.493h33.336m-8.919 6.186h-15.5l-1.169-6.186h17.837zm2.878-26.545h18.956m-46.25-31.646H134.56l10.649 16.354-6.09 15.292H165.2m5.3 9.865h0a5.307 5.307 0 01-5.3-5.312v-12.983h10.6v12.983a5.306 5.306 0 01-5.3 5.312m4.57-35.893a4.57 4.57 0 11-4.57-4.58 4.574 4.574 0 014.57 4.58m.987-11.189h-11.11V135.5h11.113zm-5.665-20.3v-7.587m5.665 16.53h10.59l6.27 11.358m-11.791 0h16.463m-32.645-17.7a8.464 8.464 0 11-8.464-8.482 8.474 8.474 0 018.464 8.482m-13.4 16.917a6.338 6.338 0 11-6.339-6.354 6.346 6.346 0 016.339 6.354m.234-9.863l-3.051 4.58m1.15 27.99H196.8" transform="translate(-134.56 -127.913)"/><path id="패스_14614" data-name="패스 14614" d="M180.134 163.007c-5.8 0-11.289-3.737-11.289-9.465 0-11.54 10.114-22.283 10.114-22.283a1.531 1.531 0 012.3.042s10.16 11.613 10.16 22.241c0 5.5-5.49 9.465-11.289 9.465m5.9-12.228a4.727 4.727 0 01-.163 3.375 3.789 3.789 0 01-2.357 2.411" transform="translate(-97.144 -124.81)"/></g></svg>