<svg xmlns="http://www.w3.org/2000/svg" width="171.647" height="57.896"><g id="그룹_8168" data-name="그룹 8168" transform="translate(1.5 5.787)" fill="none" stroke="#22993b" stroke-width="3"><path id="패스_14755" data-name="패스 14755" d="M398.037 449.06h16.247l6.976 9.4h49.04l6.976-9.4H487.8v-4.46m0-8.4v-7.71h-10.522l-6.976-9.4H421.26l-6.976 9.4h-16.247m-25.121 10.286h18.157m-6.69-5.819l6.69 5.819-6.881 5.818" transform="translate(-372.916 -416.204)" stroke-linecap="round" stroke-linejoin="round"/><path id="패스_14765" data-name="패스 14765" d="M453.457 435.359h7.734m-9.284-7.4s14.836-.675 26.979-9.442m-26.979 23.946s14.836.673 26.979 9.442" transform="translate(-329.151 -412.646)" stroke-linecap="round" stroke-linejoin="round"/><g id="그룹_7090" data-name="그룹 7090" transform="translate(49.635 23.087)" stroke-linecap="round"><path id="패스_14792" data-name="패스 14792" d="M377.259 419.062a.039.039 0 01.027.027l.01.039.01-.039a.039.039 0 01.027-.027l.039-.01-.039-.01a.039.039 0 01-.027-.027l-.01-.039-.01.039a.039.039 0 01-.027.027l-.039.01z" transform="translate(-377.22 -418.975)"/><path id="패스_14793" data-name="패스 14793" d="M377.835 419.606a.039.039 0 010 .039l-.019.036.034-.021a.039.039 0 01.039 0l.036.019-.021-.034a.038.038 0 010-.039l.019-.036-.034.021a.039.039 0 01-.039 0l-.036-.019z" transform="translate(-377.793 -419.547)"/></g><g id="타원_289" data-name="타원 289" transform="translate(140.593 17.481)"><circle cx="5.541" cy="5.541" r="5.541" stroke="none"/><circle cx="5.541" cy="5.541" r="4.041"/></g><g id="타원_290" data-name="타원 290" transform="translate(153.524 8.243)"><circle cx="5.541" cy="5.541" r="5.541" stroke="none"/><circle cx="5.541" cy="5.541" r="4.041"/></g><g id="타원_291" data-name="타원 291" transform="translate(159.065 23.021)"><circle cx="5.541" cy="5.541" r="5.541" stroke="none"/><circle cx="5.541" cy="5.541" r="4.041"/></g><g id="그룹_7091" data-name="그룹 7091" transform="translate(10.845 46.177)" stroke-linecap="round"><path id="패스_14792-2" data-name="패스 14792" d="M377.259 419.062a.039.039 0 01.027.027l.01.039.01-.039a.039.039 0 01.027-.027l.039-.01-.039-.01a.039.039 0 01-.027-.027l-.01-.039-.01.039a.039.039 0 01-.027.027l-.039.01z" transform="translate(-377.22 -418.975)"/><path id="패스_14793-2" data-name="패스 14793" d="M377.835 419.606a.039.039 0 010 .039l-.019.036.034-.021a.039.039 0 01.039 0l.036.019-.021-.034a.038.038 0 010-.039l.019-.036-.034.021a.039.039 0 01-.039 0l-.036-.019z" transform="translate(-377.793 -419.547)"/></g><g id="그룹_7092" data-name="그룹 7092" transform="translate(10.845)" stroke-linecap="round"><path id="패스_14792-3" data-name="패스 14792" d="M377.259 419.062a.039.039 0 01.027.027l.01.039.01-.039a.039.039 0 01.027-.027l.039-.01-.039-.01a.039.039 0 01-.027-.027l-.01-.039-.01.039a.039.039 0 01-.027.027l-.039.01z" transform="translate(-377.22 -418.975)"/><path id="패스_14793-3" data-name="패스 14793" d="M377.835 419.606a.039.039 0 010 .039l-.019.036.034-.021a.039.039 0 01.039 0l.036.019-.021-.034a.038.038 0 010-.039l.019-.036-.034.021a.039.039 0 01-.039 0l-.036-.019z" transform="translate(-377.793 -419.547)"/></g><path id="선_1227" data-name="선 1227" transform="translate(63.477 11.158)" stroke-linecap="round" d="M0 0v24.012"/><path id="선_1228" data-name="선 1228" transform="translate(72.714 11.158)" stroke-linecap="round" d="M0 0v24.012"/><path id="선_1229" data-name="선 1229" transform="translate(81.949 11.158)" stroke-linecap="round" d="M0 0v24.012"/><path id="선_1230" data-name="선 1230" transform="translate(91.185 11.158)" stroke-linecap="round" d="M0 0v24.012"/></g></svg>