<svg xmlns="http://www.w3.org/2000/svg" width="98.394" height="94.944"><g id="구성_요소_45_1" data-name="구성 요소 45 – 1" transform="translate(1.5 1.5)"><g id="그룹_7811" data-name="그룹 7811" fill="none" stroke="#00479d" stroke-width="3"><path id="패스_14620" data-name="패스 14620" d="M373.124 175.376h-42.4v-23.3h42.4v15.976" transform="translate(-297.086 -97.646)"/><path id="패스_14621" data-name="패스 14621" d="M373.124 175.376h-42.4v-23.3h42.4v15.976" transform="translate(-297.086 -97.646)" stroke-linecap="round" stroke-linejoin="round"/><path id="패스_14622" data-name="패스 14622" d="M321.658 148.164h-3.794v15.258l10.191 9.714v13.228h58.872v-6.786h-42.4v-31.414h-4.221" transform="translate(-310.89 -101.848)"/><path id="패스_14623" data-name="패스 14623" d="M376.281 152.315v27.261M365.7 152.315v27.261m-10.587-27.261v27.261m-10.583-12.011h36.37m-59.241-19.4h-3.8v15.258l10.193 9.714v13.228h58.87v-6.786h-42.4v-31.415h-4.221" transform="translate(-310.89 -101.848)" stroke-linecap="round" stroke-linejoin="round"/><path id="패스_14624" data-name="패스 14624" d="M377.2 174.015h-57.736v-7.427h70.5v7.427h-4.754" transform="translate(-309.172 -82.072)"/><path id="패스_14625" data-name="패스 14625" d="M377.2 174.015h-57.736v-7.427h70.5v7.427h-4.754" transform="translate(-309.172 -82.072)" stroke-linecap="round" stroke-linejoin="round"/><path id="사각형_10567" data-name="사각형 10567" transform="translate(0 46.316)" d="M0 0h6.973v12.266H0z"/><path id="사각형_10568" data-name="사각형 10568" transform="translate(0 46.316)" stroke-linecap="round" stroke-linejoin="round" d="M0 0h6.973v12.266H0z"/><path id="패스_14626" data-name="패스 14626" d="M345.559 164.669c-6.635-.634-11.5-4.5-11.5-11.4 0-13.9 12.285-26.836 12.285-26.836a1.869 1.869 0 012.8.05s12.339 13.987 12.339 26.786c0 6.627-4.7 10.475-10.95 11.333" transform="translate(-293.508 -125.826)"/><path id="패스_14627" data-name="패스 14627" d="M345.559 164.669c-6.635-.634-11.5-4.5-11.5-11.4 0-13.9 12.285-26.836 12.285-26.836a1.869 1.869 0 012.8.05s12.339 13.987 12.339 26.786c0 6.627-4.7 10.475-10.95 11.333" transform="translate(-293.508 -125.826)" stroke-linecap="round" stroke-linejoin="round"/><path id="패스_14628" data-name="패스 14628" d="M360.994 164.669c-7.043 0-13.711-4.5-13.711-11.4 0-13.9 12.283-26.836 12.283-26.836a1.869 1.869 0 012.8.05s12.334 13.986 12.334 26.785c0 6.627-6.668 11.4-13.709 11.4" transform="translate(-279.31 -125.826)"/><path id="패스_14629" data-name="패스 14629" d="M360.994 164.669c-7.043 0-13.711-4.5-13.711-11.4 0-13.9 12.283-26.836 12.283-26.836a1.869 1.869 0 012.8.05s12.334 13.986 12.334 26.785c0 6.626-6.664 11.401-13.706 11.401z" transform="translate(-279.31 -125.826)" stroke-linecap="round" stroke-linejoin="round"/><path id="패스_14630" data-name="패스 14630" d="M358.938 137.457a5.656 5.656 0 01-.2 4.066 4.582 4.582 0 01-2.863 2.9" transform="translate(-270.086 -113.34)"/><path id="패스_14631" data-name="패스 14631" d="M358.938 137.457a5.656 5.656 0 01-.2 4.066 4.582 4.582 0 01-2.863 2.9" transform="translate(-270.086 -113.34)" stroke-linecap="round" stroke-linejoin="round"/><path id="패스_14632" data-name="패스 14632" d="M340.552 151.043a10.712 10.712 0 11-10.711-10.711 10.711 10.711 0 0110.711 10.711" transform="translate(-309.533 -110.254)"/><path id="패스_14633" data-name="패스 14633" d="M340.552 151.043a10.712 10.712 0 11-10.711-10.711 10.711 10.711 0 0110.711 10.711z" transform="translate(-309.533 -110.254)" stroke-linecap="round" stroke-linejoin="round"/><path id="패스_14634" data-name="패스 14634" d="M324 141.016l5.337 9.658h-6.676l4.974 9.193" transform="translate(-305.735 -109.521)"/><path id="패스_14635" data-name="패스 14635" d="M324 141.016l5.337 9.658h-6.676l4.974 9.193" transform="translate(-305.735 -109.521)" stroke-linecap="round" stroke-linejoin="round"/><path id="패스_14636" data-name="패스 14636" d="M341.416 153.195a4.523 4.523 0 01-3.514-4.514c0-5.814 4.479-11.671 4.479-11.671a1.455 1.455 0 012.471.035s4.526 6.282 4.526 11.636a4.463 4.463 0 01-3.114 4.381" transform="translate(-289.38 -114.54)"/><path id="패스_14637" data-name="패스 14637" d="M341.416 153.195a4.523 4.523 0 01-3.514-4.514c0-5.814 4.479-11.671 4.479-11.671a1.455 1.455 0 012.471.035s4.526 6.282 4.526 11.636a4.463 4.463 0 01-3.114 4.381" transform="translate(-289.38 -114.54)" stroke-linecap="round" stroke-linejoin="round"/></g></g></svg>