<svg xmlns="http://www.w3.org/2000/svg" width="100.913" height="73.8"><g id="구성_요소_42_1" data-name="구성 요소 42 – 1" transform="translate(1.5 1.512)"><g id="그룹_7262" data-name="그룹 7262"><g id="그룹_7042" data-name="그룹 7042" fill="none" stroke="#00479d" stroke-linecap="round" stroke-width="3"><path id="패스_14795" data-name="패스 14795" d="M271.376 217.6v24.913M261.7 217.6v24.913m-9.669-24.913v24.913m-9.673-10.978H275.6m-35.633-22.779a9.788 9.788 0 11-9.788-9.789 9.789 9.789 0 019.785 9.785z" transform="translate(-211.619 -198.963)"/><path id="패스_14796" data-name="패스 14796" d="M225.374 199.69l4.878 8.825h-6.1l4.543 8.4" transform="translate(-208.68 -198.396)"/><path id="패스_14797" data-name="패스 14797" d="M289.373 245.816h9.167m-76.7-27.312h-6.373v-11.21h6.373V218.5z" transform="translate(-215.464 -192.457)"/><path id="패스_14798" data-name="패스 14798" d="M271.469 232.749h-38.747v-21.29h38.746v14.6" transform="translate(-201.985 -189.204)"/><path id="패스_14799" data-name="패스 14799" d="M222.51 207.295h-3.468v13.942l9.311 8.877V242.2h53.8V236h-38.745v-28.705h-3.858" transform="translate(-212.67 -192.455)"/><path id="패스_14800" data-name="패스 14800" d="M270.292 232.913V219.9s-.917-2.053-3.4.887c-2.964 3.514-3.4 10.638-3.4 12.131z" transform="translate(-177.949 -183.159)"/><path id="사각형_10610" data-name="사각형 10610" transform="translate(83.078 49.753)" d="M0 0h10.328v7.21H0z"/><path id="패스_14801" data-name="패스 14801" d="M270.292 230.946v13.124s-.917 2.054-3.4-.885c-2.964-3.516-3.4-11.352-3.4-12.239z" transform="translate(-177.949 -173.984)"/><path id="패스_14802" data-name="패스 14802" d="M273.506 233.681h-52.761V226.9h64.423v6.786h-4.346" transform="translate(-211.34 -177.147)"/><path id="패스_14803" data-name="패스 14803" d="M267.909 227.01h1.742a2.825 2.825 0 012.766 2.883v1.444a2.825 2.825 0 01-2.766 2.883h-1.742z" transform="translate(-174.503 -177.257)"/></g></g><g id="그룹_7263" data-name="그룹 7263" transform="translate(78.744 1.488)" fill="none"><g id="패스_14815" data-name="패스 14815"><path d="M16.46 24.153h8.663v2.881H16.46zm0-4.123h8.663v2.881H16.46zm4.12-4.392l-1.752-.728 3.5-3.487-1.328 3.2 1.752.728-3.5 3.487zm3.607-5.643H14.6V28.9h12.386V9.995z" transform="translate(-14.597 -5.577)"/><path d="M26.986 28.897V9.995H14.597v18.902h12.389M16.46 24.153h8.663v2.88H16.46v-2.88m0-4.123h8.663v2.88H16.46v-2.88m5.873-8.607l-1.331 3.2 1.752.728-3.504 3.487 1.33-3.2-1.751-.729 3.504-3.486m7.653 20.474H11.597V6.995h18.389v24.902z" fill="#00479d" transform="translate(-14.597 -5.577)"/></g><g id="사각형_10626" data-name="사각형 10626" stroke="#00479d" stroke-width="3"><path stroke="none" d="M0 0h6.792v1.916H0z" transform="translate(2.798)"/><path d="M1.298-1.5h9.792v4.916H1.298z"/></g></g></g></svg>