<svg xmlns="http://www.w3.org/2000/svg" width="46.476" height="130"><g id="그룹_8165" data-name="그룹 8165" transform="translate(1.5 1.5)" fill="#fff" stroke="#22993b" stroke-width="3"><path id="패스_14775" data-name="패스 14775" d="M352 415.721h-13.928V440.2l12.387 27.5" transform="translate(-338.072 -350.455)" stroke-linecap="round" stroke-linejoin="round"/><path id="패스_14776" data-name="패스 14776" d="M368.644 391.4v65.265h-25.382V391.4" transform="translate(-329.336 -391.399)"/><path id="패스_14777" data-name="패스 14777" d="M368.644 391.4v65.265h-25.382V391.4" transform="translate(-329.336 -391.399)" stroke-linecap="round" stroke-linejoin="round"/><path id="사각형_10577" data-name="사각형 10577" transform="translate(17.543 44.719)" d="M0 0h18.148v65.265H0z"/><path id="사각형_10578" data-name="사각형 10578" transform="translate(17.543 44.719)" stroke-linecap="round" stroke-linejoin="round" d="M0 0h18.148v65.265H0z"/><path id="사각형_10579" data-name="사각형 10579" transform="translate(9.762 43.076)" d="M0 0h33.714v54.043H0z"/><path id="사각형_10580" data-name="사각형 10580" transform="translate(9.762 43.076)" stroke-linecap="round" stroke-linejoin="round" d="M0 0h33.714v54.043H0z"/><rect id="사각형_10581" data-name="사각형 10581" width="33.714" height="17.45" rx="1.915" transform="translate(9.761 109.55)"/><rect id="사각형_10582" data-name="사각형 10582" width="33.714" height="17.45" rx="1.915" transform="translate(9.761 109.55)" stroke-miterlimit="10"/><rect id="사각형_10583" data-name="사각형 10583" width="33.714" height="17.45" rx="1.915" transform="translate(9.761 109.55)" stroke-linecap="round" stroke-linejoin="round"/></g></svg>