<svg xmlns="http://www.w3.org/2000/svg" width="100.413" height="59.675"><g id="구성_요소_47_1" data-name="구성 요소 47 – 1" transform="translate(1.5 1.5)"><path id="패스_18718" data-name="패스 18718" d="M69.656 43.654H30.814V22.31h38.842v3.5M9.865 14.877H6.389v13.977l9.336 8.9v12.121h53.932v-6.219H30.814V14.877h-3.868m1.468-5.064A9.814 9.814 0 1118.601 0a9.814 9.814 0 019.813 9.813m2.4 22.837h33.319M40.507 18.68v24.974m9.695-24.974v24.974m9.7-24.974v24.974m2.417 13.021H9.433v-6.8h85.31v6.8H69.656M16.733 1.3l4.89 8.847h-6.117l4.556 8.422M6.385 26.113H-.004V14.877h6.389zm90.348 14.614h0zm-4.488 4.778h4.49v-9.558h-4.49zM69.44 49.77h22.8V31.686h-22.8zm10.964-18.085h11.839V24.98H80.406zm-1.565 12.913h-4.265v-7.744h4.265zm17.894-3.871h2.18m-2.18 4.778h-4.492v-9.558h4.492zm-16.327-13.82h11.837V24.98H80.406zm11.841 18.083h-22.8V31.685h22.8z" fill="none" stroke="#00479d" stroke-width="3"/></g></svg>