<svg xmlns="http://www.w3.org/2000/svg" width="99.674" height="105.678"><g id="그룹_8169" data-name="그룹 8169" transform="translate(5.806 5.783)"><path id="패스_14814" data-name="패스 14814" d="M47.429 69.179c-6.276 0-12.216-4.023-12.216-10.189a25.838 25.838 0 011.224-7.545c2.733-9.056 9.72-16.438 9.72-16.438a1.661 1.661 0 012.493.047 60.334 60.334 0 017.5 11.313c1.869 3.683 3.49 8.231 3.49 12.623.004 5.923-5.936 10.189-12.211 10.189zm32.524-4.286a14.023 14.023 0 004.086-9.9V30.305M73.294 19.526l-6.654-6.678a13.933 13.933 0 00-9.87-4.1H37.941a13.937 13.937 0 00-9.87 4.1L14.759 26.203a14.021 14.021 0 00-4.087 9.9v24.689m7.82-8.591l-7.852 8.876-7.537-9.13m73.261-13.331l7.854-8.876 7.537 9.13M20.784 73.988c-7.013 2.5-11.387 6.023-11.419 9.956-.062 7.807 16.927 14.274 37.951 14.447s38.116-6.013 38.18-13.819c.035-4.316-5.153-8.219-13.347-10.878m-10.682 4c3.362 1.435 5.437 2.644 5.437 4.789 0 4.407-8.717 7.98-19.472 7.98s-19.476-3.573-19.476-7.98c0-2.146 2.076-3.354 5.438-4.789m19.353 1.182c1.274.544 2.06 1 2.06 1.814 0 1.67-3.3 3.024-7.376 3.024s-7.378-1.355-7.378-3.024c0-.814.786-1.27 2.06-1.814" fill="rgba(0,0,0,0)" stroke="#22993b" stroke-linecap="round" stroke-linejoin="round" stroke-width="3"/><g id="그룹_7109" data-name="그룹 7109"><g id="그룹_7095" data-name="그룹 7095" transform="translate(24.188 24.272)"><g id="그룹_7086" data-name="그룹 7086" stroke="#22993b" stroke-width="3"><path id="패스_14769" data-name="패스 14769" d="M211.125 387.523l.921 3.441.922-3.441a3.431 3.431 0 012.416-2.425l3.43-.924-3.43-.926a3.427 3.427 0 01-2.416-2.422l-.922-3.443-.921 3.443a3.427 3.427 0 01-2.416 2.422l-3.43.926s5.528 2.165 5.846 3.349z" transform="translate(-205.279 -377.382)" fill="#388627"/><path id="패스_14770" data-name="패스 14770" d="M206.6 382.577a2.224 2.224 0 011.167 1.739l.445 2.468.445-2.468a2.226 2.226 0 011.167-1.739l1.656-.663-1.656-.665a2.221 2.221 0 01-1.167-1.737l-.445-2.47-.445 2.47a2.22 2.22 0 01-1.167 1.737l-1.656.665z" transform="translate(-201.443 -375.123)" fill="rgba(0,0,0,0)" stroke-linecap="round" stroke-linejoin="round"/><path id="패스_14773" data-name="패스 14773" d="M230.574 402.3a5.261 5.261 0 01-.283 4.606 6.162 6.162 0 01-4.029 3.291" transform="translate(-200.329 -371.503)" fill="rgba(0,0,0,0)" stroke-linecap="round" stroke-miterlimit="10"/><g id="타원_292" data-name="타원 292" transform="translate(6.505 5.728)" fill="none"><circle cx="1" cy="1" r="1" stroke="none"/><circle cx="1" cy="1" r=".5"/></g></g></g><g id="그룹_7096" data-name="그룹 7096" transform="translate(17.169)" fill="#fff" stroke="#22993b" stroke-linecap="round" stroke-width="3"><path id="패스_14792" data-name="패스 14792" d="M377.258 419.06a.038.038 0 01.027.027l.01.038.01-.038a.038.038 0 01.027-.027l.038-.01-.038-.01a.038.038 0 01-.027-.027l-.01-.038-.01.038a.038.038 0 01-.027.027l-.038.01z" transform="translate(-377.22 -418.975)"/><path id="패스_14793" data-name="패스 14793" d="M377.835 419.6a.038.038 0 010 .038l-.019.035.034-.021a.038.038 0 01.038 0l.035.019-.021-.034a.038.038 0 010-.038l.019-.035-.034.021a.038.038 0 01-.038 0l-.035-.019z" transform="translate(-377.793 -419.548)"/></g><g id="그룹_7097" data-name="그룹 7097" transform="translate(0 22.591)" fill="#fff" stroke="#22993b" stroke-linecap="round" stroke-width="3"><path id="패스_14792-2" data-name="패스 14792" d="M377.258 419.06a.038.038 0 01.027.027l.01.038.01-.038a.038.038 0 01.027-.027l.038-.01-.038-.01a.038.038 0 01-.027-.027l-.01-.038-.01.038a.038.038 0 01-.027.027l-.038.01z" transform="translate(-377.22 -418.975)"/><path id="패스_14793-2" data-name="패스 14793" d="M377.835 419.6a.038.038 0 010 .038l-.019.035.034-.021a.038.038 0 01.038 0l.035.019-.021-.034a.038.038 0 010-.038l.019-.035-.034.021a.038.038 0 01-.038 0l-.035-.019z" transform="translate(-377.793 -419.548)"/></g></g></g></svg>