<svg xmlns="http://www.w3.org/2000/svg" width="100.478" height="80.592"><g id="구성_요소_39_1" data-name="구성 요소 39 – 1" transform="translate(1.5 1.5)"><path id="패스_18698" data-name="패스 18698" d="M0 26.182V5.62A5.62 5.62 0 015.618 0h86.24a5.62 5.62 0 015.62 5.62v51.5a5.62 5.62 0 01-5.62 5.62H5.618A5.62 5.62 0 010 57.12V37.044m9.431 7.354h88.047m-45.244 8.834a3.5 3.5 0 11-3.5-3.494 3.495 3.495 0 013.5 3.494zm15.985 24.36H29.258v-4.374h38.961zM38.234 67.98l.929-5.235h19.151l1.859 10.471M31.058 21.749h2.685m-16.761 0h8.458m-8.831 11.976l8.753-1.951 8.81 1.951V15.536H16.61zm8.739-1.951v8.444m-3.15 3.192a3.192 3.192 0 016.384 0M54.87 13.781h2.683m-16.759 0h8.456m-8.827 11.981l8.753-1.951 8.81 1.951V7.569H40.423zm8.739-1.951v8.444m3.232 3.192a3.191 3.191 0 11-3.19-3.192 3.189 3.189 0 013.19 3.187zm26.288-13.694h2.685m-16.761 0h8.458m-8.831 11.976l8.753-1.951 8.81 1.951V15.536H64.234zm8.739-1.951v8.444m-3.15 3.192a3.192 3.192 0 016.384 0" fill="none" stroke="#00479d" stroke-linecap="round" stroke-width="3"/></g></svg>