<svg xmlns="http://www.w3.org/2000/svg" width="85.112" height="96.446"><g id="구성_요소_46_1" data-name="구성 요소 46 – 1" transform="translate(1.5 1.5)" fill="none" stroke="#00479d" stroke-width="3"><path id="패스_14638" data-name="패스 14638" d="M565.433 175.757h-43.095v-23.68h43.094v16.237" transform="translate(-488.153 -96.757)"/><path id="패스_14639" data-name="패스 14639" d="M565.433 175.757h-43.095v-23.68h43.094v16.237" transform="translate(-488.153 -96.757)" stroke-linecap="round" stroke-linejoin="round"/><path id="패스_14640" data-name="패스 14640" d="M513.336 148.164h-3.856v15.507l10.355 9.873v13.444h59.837v-6.9h-43.093v-31.924h-4.291" transform="translate(-502.392 -101.091)"/><path id="패스_14641" data-name="패스 14641" d="M513.336 148.164h-3.856v15.507l10.355 9.873v13.444h59.837v-6.9h-43.093v-31.924h-4.291" transform="translate(-502.392 -101.091)" stroke-linecap="round" stroke-linejoin="round"/><path id="패스_14642" data-name="패스 14642" d="M532.518 151.218a10.887 10.887 0 11-10.886-10.886 10.886 10.886 0 0110.886 10.886" transform="translate(-500.993 -109.761)"/><path id="패스_14643" data-name="패스 14643" d="M567.454 161.055v27.707M556.7 161.055v27.707m-10.76-27.707v27.707m-10.758-12.208h36.968m-39.63-25.336a10.887 10.887 0 11-10.886-10.886 10.886 10.886 0 0110.884 10.886z" transform="translate(-500.993 -109.761)" stroke-linecap="round" stroke-linejoin="round"/><path id="패스_14644" data-name="패스 14644" d="M569.762 174.136H511.08v-7.548h71.652v7.548H577.9" transform="translate(-500.62 -80.691)"/><path id="패스_14645" data-name="패스 14645" d="M569.762 174.136H511.08v-7.548h71.652v7.548H577.9" transform="translate(-500.62 -80.691)" stroke-linecap="round" stroke-linejoin="round"/><path id="패스_14646" data-name="패스 14646" d="M515.642 141.016l5.424 9.816h-6.786l5.055 9.344" transform="translate(-497.075 -109.005)"/><path id="패스_14647" data-name="패스 14647" d="M515.642 141.016l5.424 9.816h-6.786l5.055 9.344" transform="translate(-497.075 -109.005)" stroke-linecap="round" stroke-linejoin="round"/><path id="사각형_10569" data-name="사각형 10569" transform="translate(0 47.073)" d="M0 0h7.087v12.467H0z"/><path id="사각형_10570" data-name="사각형 10570" transform="translate(0 47.073)" stroke-linecap="round" stroke-linejoin="round" d="M0 0h7.087v12.467H0z"/><path id="패스_14648" data-name="패스 14648" d="M543.5 165.3c-7.159 0-13.935-4.575-13.935-11.588 0-14.123 12.486-27.275 12.486-27.275a1.9 1.9 0 012.845.051s12.543 14.216 12.543 27.224c0 6.735-6.777 11.588-13.938 11.588" transform="translate(-480.154 -125.826)"/><path id="패스_14649" data-name="패스 14649" d="M543.5 165.3c-7.159 0-13.935-4.575-13.935-11.588 0-14.123 12.486-27.275 12.486-27.275a1.9 1.9 0 012.845.051s12.543 14.216 12.543 27.224c-.004 6.739-6.781 11.588-13.939 11.588z" transform="translate(-480.154 -125.826)" stroke-linecap="round" stroke-linejoin="round"/><path id="패스_14650" data-name="패스 14650" d="M541.268 137.457a5.749 5.749 0 01-.2 4.132 4.657 4.657 0 01-2.91 2.95" transform="translate(-470.639 -112.945)"/><path id="패스_14651" data-name="패스 14651" d="M541.268 137.457a5.749 5.749 0 01-.2 4.132 4.657 4.657 0 01-2.91 2.95" transform="translate(-470.639 -112.945)" stroke-linecap="round" stroke-linejoin="round"/></g></svg>