<svg data-name="구성 요소 8 – 1" xmlns="http://www.w3.org/2000/svg" width="50" height="50"><path data-name="사각형 8474" d="M0 0h50v50H0z" fill="#249fe8"/><path data-name="Icon awesome-twitter" d="M34.977 19.958c.016.218.016.435.016.653a14.186 14.186 0 01-14.284 14.283A14.187 14.187 0 0113 32.641a10.385 10.385 0 001.212.062 10.054 10.054 0 006.233-2.145 5.029 5.029 0 01-4.694-3.482 6.331 6.331 0 00.948.078 5.31 5.31 0 001.321-.171 5.021 5.021 0 01-4.025-4.927v-.062a5.056 5.056 0 002.269.637 5.028 5.028 0 01-1.554-6.712 14.27 14.27 0 0010.351 5.251 5.667 5.667 0 01-.124-1.15 5.025 5.025 0 018.688-3.435 9.884 9.884 0 003.186-1.212 5.007 5.007 0 01-2.211 2.766 10.064 10.064 0 002.891-.777 10.792 10.792 0 01-2.518 2.6z" fill="#fff"/></svg>