<svg id="구성_요소_9_1" data-name="구성 요소 9 – 1" xmlns="http://www.w3.org/2000/svg" width="50" height="50"><defs><style>.cls-2{fill:#fff}</style></defs><g id="그룹_8366" data-name="그룹 8366" transform="translate(-240 -785)"><path id="사각형_8474" data-name="사각형 8474" transform="translate(240 785)" d="M0 0h50v50H0z" fill="#249fe8"/><g id="그룹_7476" data-name="그룹 7476" transform="translate(-2345.76 575.789)"><path id="패스_15222" data-name="패스 15222" class="cls-2" d="M3153.452 755.232h1.593l-.8-2.262z" transform="translate(-546.592 -521.129)"/><path id="패스_15223" data-name="패스 15223" class="cls-2" d="M2610.579 222.212c-7.632 0-13.819 4.878-13.819 10.9 0 3.891 2.586 7.3 6.478 9.232-.211.73-1.36 4.7-1.406 5.008 0 0-.027.234.124.323a.417.417 0 00.33.02c.435-.061 5.042-3.3 5.839-3.859a17.5 17.5 0 002.455.171c7.632 0 13.819-4.878 13.819-10.9s-6.188-10.895-13.82-10.895zm-6.843 13.938a.8.8 0 01-1.595 0v-4.736h-1.241a.781.781 0 110-1.561h4.083a.781.781 0 110 1.561h-1.244zm6.7.641a1.219 1.219 0 01-.507.11.655.655 0 01-.664-.352l-.395-1.034h-2.431l-.4 1.034a.654.654 0 01-.663.352 1.217 1.217 0 01-.507-.11c-.22-.1-.431-.38-.189-1.132l1.907-5.02a1.111 1.111 0 012.125 0l1.906 5.017c.25.755.038 1.034-.181 1.135zm4.03 0h-2.558a.749.749 0 01-.764-.731v-5.41a.814.814 0 011.628 0v4.684h1.694a.732.732 0 110 1.462zm6.241-.6a.8.8 0 01-1.426.37l-1.87-2.477-.277.277v1.74a.8.8 0 11-1.595 0v-5.451a.8.8 0 011.595 0v1.714l2.224-2.224a.619.619 0 01.442-.177.808.808 0 01.783.741.621.621 0 01-.176.485l-1.815 1.811 1.962 2.6a.79.79 0 01.153.595z"/></g></g></svg>