<svg id="구성_요소_7_1" data-name="구성 요소 7 – 1" xmlns="http://www.w3.org/2000/svg" width="50" height="50"><defs><style>.cls-2{fill:#fff}</style></defs><path id="사각형_10727" data-name="사각형 10727" d="M0 0h50v50H0z" fill="#249fe8"/><g id="그룹_7477" data-name="그룹 7477" transform="translate(-498.009 -15.008)"><path id="패스_15224" data-name="패스 15224" class="cls-2" d="M520.84 215.826l-2.795 2.795a2.964 2.964 0 01-4.193-4.192l5.59-5.59a2.964 2.964 0 014.192 0 .988.988 0 101.4-1.4 4.94 4.94 0 00-6.987 0l-5.59 5.59a4.941 4.941 0 106.988 6.987l2.795-2.795a.988.988 0 00-1.4-1.4z" transform="translate(0 -169.742)"/><path id="패스_15225" data-name="패스 15225" class="cls-2" d="M706.419 34.206l3.353-3.353a2.964 2.964 0 114.193 4.192l-6.148 6.148a2.964 2.964 0 01-4.192 0 .988.988 0 00-1.4 1.4 4.94 4.94 0 006.987 0l6.148-6.148a4.941 4.941 0 00-6.988-6.987l-3.353 3.353a.988.988 0 001.4 1.4z" transform="translate(-182.085)"/></g></svg>