<svg data-name="구성 요소 11 – 1" xmlns="http://www.w3.org/2000/svg" width="50" height="50">
    <g data-name="그룹 8368">
        <path data-name="사각형 10697" style="fill:#249fe8" d="M0 0h50v50H0z"/>
        <g data-name="그룹 7960">
            <path data-name="패스 1372" d="M6617.693 2170.33v-.011a79.943 79.943 0 0 0-10.975-.742 71.146 71.146 0 0 0-10.552.729 3.477 3.477 0 0 0-2.594 3.545v10.154a3.47 3.47 0 0 0 2.6 3.542 71.146 71.146 0 0 0 10.552.729 79.943 79.943 0 0 0 10.975-.742 3.449 3.449 0 0 0 2.6-3.528v-10.154a3.443 3.443 0 0 0-2.606-3.522zm-13.117 12.924v-8.662l6.918 4.331z" transform="translate(-6581.57 -2153.577)" style="fill:#fff"/>
        </g>
    </g>
</svg>
