<svg id="구성_요소_10_1" data-name="구성 요소 10 – 1" xmlns="http://www.w3.org/2000/svg" width="50" height="50"><defs><style>.cls-2{fill:#fff}</style></defs><g id="그룹_8369" data-name="그룹 8369" transform="translate(-1450 -3410)"><path id="사각형_10700" data-name="사각형 10700" transform="translate(1450 3410)" d="M0 0h50v50H0z" fill="#249fe8"/><g id="그룹_7961" data-name="그룹 7961" transform="translate(-1941.957 3137.6)"><path id="패스_14852" data-name="패스 14852" class="cls-2" d="M3408.193 285.648a2.968 2.968 0 102.1.871 2.955 2.955 0 00-2.1-.871z"/><path id="사각형_10670" data-name="사각형 10670" class="cls-2" transform="translate(3405.561 293.222)" d="M0 0h5.193v15.932H0z"/><path id="패스_14853" data-name="패스 14853" class="cls-2" d="M3554.473 411.547c-.918-1.467-2.479-2.211-4.823-2.211a5.2 5.2 0 00-2.975.647 3.192 3.192 0 00-1.305 1.5v-1.869H3540v15.932h5.37v-7.82a5.585 5.585 0 01.491-2.649 2.309 2.309 0 012.217-1.134c1.086 0 1.425.459 1.6 1a5.546 5.546 0 01.06 1.752v8.855h5.783v-8.65c-.001-2.377-.28-4.126-1.048-5.353z" transform="translate(-126.827 -116.389)"/></g></g></svg>