<svg data-name="구성 요소 8 – 1" xmlns="http://www.w3.org/2000/svg" width="50" height="50">
    <path data-name="사각형 8474" style="fill:#249fe8" d="M0 0h50v50H0z"/>
    <path data-name="Icon awesome-twitter" d="M21.977 8.339c.016.218.016.435.016.653A14.186 14.186 0 0 1 7.709 23.275 14.187 14.187 0 0 1 0 21.022a10.385 10.385 0 0 0 1.212.062 10.054 10.054 0 0 0 6.233-2.145 5.029 5.029 0 0 1-4.694-3.482 6.331 6.331 0 0 0 .948.078 5.31 5.31 0 0 0 1.321-.171 5.021 5.021 0 0 1-4.025-4.927v-.062a5.056 5.056 0 0 0 2.269.637A5.028 5.028 0 0 1 1.71 4.3a14.27 14.27 0 0 0 10.351 5.251 5.667 5.667 0 0 1-.124-1.15 5.025 5.025 0 0 1 8.688-3.435 9.884 9.884 0 0 0 3.186-1.212A5.007 5.007 0 0 1 21.6 6.52a10.064 10.064 0 0 0 2.891-.777 10.792 10.792 0 0 1-2.518 2.6z" transform="translate(13 11.619)" style="fill:#fff"/>
</svg>
