<svg id="구성_요소_35_1" data-name="구성 요소 35 – 1" xmlns="http://www.w3.org/2000/svg" width="32.821" height="32.821"><defs><style>.cls-1{fill:#fff}</style></defs><path id="패스_18717" data-name="패스 18717" class="cls-1" d="M798.736 891.569a10.709 10.709 0 01-1.761-5.882V880.5H787.3v5.187a10.71 10.71 0 01-1.761 5.882 12.17 12.17 0 00-1.123 2.115 12.17 12.17 0 00-1.123-2.115 10.71 10.71 0 01-1.762-5.882V880.5h-9.68v5.187a10.71 10.71 0 01-1.761 5.882 12.639 12.639 0 00-2.07 6.367H768v5.769h32.821v-5.769h-.014a12.642 12.642 0 00-2.07-6.367zm-3.685-9.146v1.923h-5.833v-1.923zm-7.918 10.213a12.642 12.642 0 002.07-6.367h5.862a12.644 12.644 0 002.07 6.367 10.69 10.69 0 011.745 5.3h-13.492a10.694 10.694 0 011.745-5.3zm-7.533-10.213v1.923h-5.834v-1.923zm-7.918 10.213a12.641 12.641 0 002.07-6.367h5.862a12.641 12.641 0 002.07 6.367 10.7 10.7 0 011.745 5.3h-13.49a10.7 10.7 0 011.745-5.3zm27.214 9.146h-28.973v-1.923H798.9zm0 0" transform="translate(-768 -870.885)"/><path id="패스_18718" data-name="패스 18718" class="cls-1" d="M883.173 774.731a.963.963 0 01.962-.962h1.923a2.888 2.888 0 002.885-2.885V768h-1.923v2.885a.963.963 0 01-.962.962h-1.923a2.888 2.888 0 00-2.885 2.885v.962h1.923zm0 0" transform="translate(-871.57 -768)"/><path id="패스_18719" data-name="패스 18719" class="cls-1" d="M1067.083 770.885a.963.963 0 01-.962.962h-1.987a2.888 2.888 0 00-2.885 2.884v.962h1.923v-.962a.963.963 0 01.962-.961h1.987a2.888 2.888 0 002.885-2.885V768h-1.923zm0 0" transform="translate(-1036.186 -768)"/><path id="패스_18720" data-name="패스 18720" class="cls-1" d="M843.942 769.923V768h-.961a6.739 6.739 0 00-6.731 6.731v.962h1.923v-.962a4.813 4.813 0 014.808-4.808zm0 0" transform="translate(-830.416 -768)"/><path id="패스_18721" data-name="패스 18721" class="cls-1" d="M1016.25 774.731v.962h1.923v-.962a4.813 4.813 0 014.808-4.808h.962V768h-.962a6.739 6.739 0 00-6.731 6.731zm0 0" transform="translate(-995.031 -768)"/></svg>