<svg id="구성_요소_32_1" data-name="구성 요소 32 – 1" xmlns="http://www.w3.org/2000/svg" width="32.821" height="26.42"><defs><style>.cls-1{fill:#fff}</style></defs><path id="패스_18725" data-name="패스 18725" class="cls-1" d="M977.854 1019.673v4.809h-1.487v-9.957h-8.543v-1.487h4.917v-2.162h-12v2.162h4.917v1.487h-5.156l-5.063 5.171h-2.079a2.117 2.117 0 00-2.115 2.115v2.67h-1.892v-4.809H947.2v12h2.162v-5.024h1.892v2.934a2.117 2.117 0 002.115 2.115h2.106l5.984 5.6h8.73l6.182-6.24v-4.413h1.487v5.024h2.162v-12zm-3.649 10.494l-4.922 4.967h-6.973l-5.984-5.6h-2.914v-7.672h2.941l5.063-5.171h12.79v13.48z" transform="translate(-947.195 -1010.876)"/><path id="패스_18726" data-name="패스 18726" class="cls-1" d="M973.43 1023.608h-3.121l-2.623 5.645h3.022l-1.893 5.579 5.213-6.674h-3.686z" transform="translate(-952.172 -1013.97)"/></svg>