<svg xmlns="http://www.w3.org/2000/svg" width="320.505" height="30.001" viewBox="0 0 320.505 30.001">
  <g id="그룹_9065" data-name="그룹 9065" transform="translate(-280.001 -5891)">
    <path id="패스_79" data-name="패스 79" d="M1054.149,539.93a2.661,2.661,0,0,0-1.072-1.295,3.418,3.418,0,0,0,2.1-3.171c0-3.342-2.8-3.417-5.6-3.417h-3.019V544.5h2.558v-5.012h1.006c.9,0,1.224.392,1.578,1.223a19.31,19.31,0,0,0,1.681,3.789h2.978A20.1,20.1,0,0,1,1054.149,539.93Zm-4-2.146h-1.031v-4.019h1.031c1.53,0,2.407.275,2.407,1.893C1052.557,537.3,1051.572,537.784,1050.15,537.784Z" transform="translate(-466.557 5361.238)" fill="#fff"/>
    <path id="패스_46" data-name="패스 46" d="M783.493,532.279h4.16v5.948h4.9v-5.948h4.158v15.6h-4.158v-6.689h-4.9v6.689h-4.16Z" transform="translate(-475.305 5361.248)" fill="#fff"/>
    <path id="패스_47" data-name="패스 47" d="M803.421,541.993l-5.778-9.715h4.8l3.082,6.238,3.017-6.238h4.8l-5.731,9.715v5.889h-4.182Z" transform="translate(-474.834 5361.248)" fill="#fff"/>
    <path id="패스_48" data-name="패스 48" d="M827.761,541.952c0,4.289-2.784,6.222-6.856,6.222s-6.824-1.933-6.824-6.222v-9.673h4.136v8.971c0,2.056.588,3.832,2.687,3.832,2.124,0,2.7-1.776,2.7-3.832v-8.971h4.16Z" transform="translate(-474.287 5361.248)" fill="#fff"/>
    <path id="패스_49" data-name="패스 49" d="M829.985,532.279h5.3l5.293,10.591h.041l-.088-10.591h3.814v15.6H839.2L833.71,537.22h-.048l.136,10.662h-3.812Z" transform="translate(-473.758 5361.248)" fill="#fff"/>
    <path id="패스_50" data-name="패스 50" d="M851.029,535.361h1.6c3.043,0,4.852,1.619,4.852,4.685,0,3.129-1.744,4.748-4.852,4.748h-1.6v-9.433m-4.182,12.521h5.672c5.36,0,9.261-2.024,9.261-7.891,0-6.018-3.791-7.712-9.261-7.712h-5.672Z" transform="translate(-473.199 5361.248)" fill="#fff"/>
    <path id="패스_51" data-name="패스 51" d="M871.585,541.58h-3.918L869.7,535.5h.042Zm-10.331,6.3h4.224l1.224-3.33h5.867l1.157,3.33h4.556l-6-15.6h-5.1Z" transform="translate(-472.719 5361.248)" fill="#fff"/>
    <rect id="사각형_206" data-name="사각형 206" width="4.154" height="15.606" transform="translate(407.098 5893.527)" fill="#fff"/>
    <path id="패스_52" data-name="패스 52" d="M783.493,551.406H785.5v2.9h2.389v-2.9h2.035v7.572h-2.035v-3.242H785.5v3.242h-2.012Z" transform="translate(-475.305 5361.883)" fill="#fff"/>
    <path id="패스_53" data-name="패스 53" d="M791.055,551.406H796.4v1.416h-3.349V554.4H796.2v1.435h-3.148v1.706H796.5v1.437h-5.449Z" transform="translate(-475.053 5361.883)" fill="#fff"/>
    <path id="패스_54" data-name="패스 54" d="M802.16,551.406h-2.5l-2.844,7.572h2.013l.612-1.618h2.848l.547,1.618h2.213Zm-2.258,4.531.987-2.966.916,2.966Z" transform="translate(-474.861 5361.883)" fill="#fff"/>
    <path id="패스_55" data-name="패스 55" d="M804.083,551.406h2.164l1.69,5.942,1.681-5.942H811.7l-2.584,7.572H806.62Z" transform="translate(-474.621 5361.883)" fill="#fff"/>
    <path id="패스_56" data-name="패스 56" d="M814.656,556.118l-2.8-4.711h2.318l1.488,3.04,1.472-3.04h2.294l-2.779,4.711v2.86h-1.994Z" transform="translate(-474.361 5361.883)" fill="#fff"/>
    <rect id="사각형_207" data-name="사각형 207" width="2.012" height="7.571" transform="translate(349.314 5913.289)" fill="#fff"/>
    <path id="패스_57" data-name="패스 57" d="M826.513,551.406h2.581l2.561,5.142h.023l-.023-5.142h1.84v7.572h-2.516l-2.623-5.177h-.05l.091,5.177h-1.884Z" transform="translate(-473.875 5361.883)" fill="#fff"/>
    <path id="패스_58" data-name="패스 58" d="M834.541,551.407h2.76c2.647,0,4.483.8,4.483,3.752,0,2.83-1.9,3.817-4.483,3.817h-2.76Zm2.036,6.081h.787a2.3,2.3,0,1,0,0-4.594h-.787Z" transform="translate(-473.607 5361.883)" fill="#fff"/>
    <path id="패스_59" data-name="패스 59" d="M848.992,556.107c0,2.058-1.336,3.011-3.325,3.011-1.971,0-3.33-.953-3.33-3.011v-4.7h2.036v4.354c0,1,.241,1.858,1.294,1.858,1.024,0,1.289-.855,1.289-1.858v-4.354h2.036Z" transform="translate(-473.348 5361.883)" fill="#fff"/>
    <path id="패스_60" data-name="패스 60" d="M849.783,557.124a4.455,4.455,0,0,0,2.077.5c.635,0,1.248-.13,1.248-.74,0-1.415-3.59-.531-3.59-3.284,0-1.83,1.795-2.323,3.307-2.323a6.176,6.176,0,0,1,1.947.286l-.114,1.566a3.883,3.883,0,0,0-1.681-.354c-.505,0-1.358.053-1.358.714,0,1.215,3.588.394,3.588,3.129,0,1.972-1.66,2.506-3.349,2.506a7.8,7.8,0,0,1-2.254-.34Z" transform="translate(-473.109 5361.879)" fill="#fff"/>
    <path id="패스_61" data-name="패스 61" d="M857.349,552.894h-1.837v-1.488h5.737v1.488h-1.862v6.084h-2.038Z" transform="translate(-472.91 5361.883)" fill="#fff"/>
    <path id="패스_62" data-name="패스 62" d="M861.721,551.407h3.587c1.359,0,2.431.612,2.431,1.9a1.79,1.79,0,0,1-1.424,1.93v.012c.633.17.677.752,1.069,1.671l.723,2.058h-2.1l-.434-1.359c-.422-1.311-.66-1.642-1.4-1.642h-.441v3h-2.012Zm2.012,3.147h.524c.659,0,1.468-.019,1.468-.871,0-.713-.7-.859-1.468-.859h-.524Z" transform="translate(-472.703 5361.883)" fill="#fff"/>
    <rect id="사각형_208" data-name="사각형 208" width="2.039" height="7.571" transform="translate(396.258 5913.289)" fill="#fff"/>
    <path id="패스_63" data-name="패스 63" d="M871.97,551.406h5.343v1.416h-3.307V554.4h3.112v1.435h-3.112v1.706h3.419v1.437H871.97Z" transform="translate(-472.363 5361.883)" fill="#fff"/>
    <path id="패스_64" data-name="패스 64" d="M878.356,557.124a4.4,4.4,0,0,0,2.083.5c.629,0,1.248-.13,1.248-.74,0-1.415-3.6-.531-3.6-3.284,0-1.83,1.8-2.323,3.308-2.323a6.344,6.344,0,0,1,1.947.286l-.128,1.566a3.774,3.774,0,0,0-1.667-.354c-.523,0-1.352.053-1.352.714,0,1.215,3.565.394,3.565,3.129,0,1.972-1.642,2.506-3.325,2.506a7.921,7.921,0,0,1-2.276-.34Z" transform="translate(-472.16 5361.879)" fill="#fff"/>
    <path id="패스_65" data-name="패스 65" d="M759.7,547.949l10.226-17.674L780.1,547.949Z" transform="translate(-476.096 5361.18)" fill="#fff"/>
    <path id="패스_66" data-name="패스 66" d="M766.432,530.275l-10.219,17.674h2.407l9.012-15.6Z" transform="translate(-476.211 5361.18)" fill="#fff"/>
    <rect id="사각형_209" data-name="사각형 209" width="0.415" height="17.026" transform="translate(419.547 5891)" fill="#fff"/>
    <path id="패스_67" data-name="패스 67" d="M899.552,544.5V532.045h7.507v1.719h-4.9v3.583h4.458v1.724h-4.458v3.7H907.1v1.73Z" transform="translate(-471.445 5361.238)" fill="#fff"/>
    <path id="패스_68" data-name="패스 68" d="M915.079,544.5l-4.223-8.844V544.5h-2.472V532.045h3.153l4.178,8.932v-8.932h2.5V544.5Z" transform="translate(-471.152 5361.238)" fill="#fff"/>
    <path id="패스_69" data-name="패스 69" d="M929.879,544.1a14.575,14.575,0,0,1-3.87.636c-3.766,0-6.545-1.846-6.545-6.149,0-4.4,2.538-6.729,6.545-6.729a10.7,10.7,0,0,1,3.524.524l-.2,1.947a6.247,6.247,0,0,0-3.042-.724c-2.93,0-4.242,2.4-4.242,4.844,0,2.34,1.222,4.529,3.961,4.529a3.646,3.646,0,0,0,1.4-.229V539.2h-2.468V537.47h4.941Z" transform="translate(-470.783 5361.232)" fill="#fff"/>
    <rect id="사각형_210" data-name="사각형 210" width="2.581" height="12.456" transform="translate(461.09 5893.285)" fill="#fff"/>
    <path id="패스_70" data-name="패스 70" d="M942.7,544.5l-4.2-8.844V544.5H936.03V532.045h3.129l4.2,8.932v-8.932h2.493V544.5Z" transform="translate(-470.232 5361.238)" fill="#fff"/>
    <path id="패스_71" data-name="패스 71" d="M947.634,544.5V532.045H955.1v1.719H950.2v3.583h4.465v1.724H950.2v3.7h4.947v1.73Z" transform="translate(-469.846 5361.238)" fill="#fff"/>
    <path id="패스_72" data-name="패스 72" d="M968.629,541.869a10.583,10.583,0,0,0,1.183-3.471h-2.324a7.269,7.269,0,0,1-.347,1.687l-1.793-2.071c1.109-.493,2.621-1.518,2.621-3.093,0-1.866-1.77-3-3.61-3-2.3,0-3.5,1.464-3.5,2.859a4.452,4.452,0,0,0,1.379,2.841c-1.379.81-2.843,2.037-2.843,3.64,0,2.3,2.23,3.528,4.29,3.528a5.342,5.342,0,0,0,3.522-1.354l.895,1.069h2.784Zm-4.288-8.242a1.239,1.239,0,0,1,1.264,1.236c0,.865-.7,1.369-1.418,1.795a3.43,3.43,0,0,1-.922-1.877A1.059,1.059,0,0,1,964.341,533.627Zm-.636,9.425a1.775,1.775,0,0,1-1.866-1.754,2.786,2.786,0,0,1,1.6-2.288l2.454,2.913A3.254,3.254,0,0,1,963.706,543.052Z" transform="translate(-469.455 5361.234)" fill="#fff"/>
    <path id="패스_73" data-name="패스 73" d="M984.944,544.5v-9.543l-2.6,9.543h-2.428l-2.671-9.5v9.5h-2.43V532.045h3.9l2.431,9.137,2.428-9.137h3.894V544.5Z" transform="translate(-468.941 5361.238)" fill="#fff"/>
    <path id="패스_74" data-name="패스 74" d="M996.193,541.752h-4.531l-.877,2.748h-2.647l4.442-12.454h2.849l4.466,12.454h-2.824Zm-3.984-1.782h3.414l-1.731-5.278Z" transform="translate(-468.5 5361.238)" fill="#fff"/>
    <path id="패스_75" data-name="패스 75" d="M1009.026,544.313a11.019,11.019,0,0,1-2.759.424c-3.5,0-6.545-1.629-6.545-6.149,0-3.907,1.949-6.731,6.326-6.731a8.818,8.818,0,0,1,2.913.525l-.221,1.86a6.846,6.846,0,0,0-2.692-.637c-2.67,0-3.7,2.607-3.7,4.831,0,2.329,1.142,4.541,3.919,4.541a7.753,7.753,0,0,0,2.624-.505Z" transform="translate(-468.113 5361.232)" fill="#fff"/>
    <path id="패스_76" data-name="패스 76" d="M1017.241,544.5v-5.43h-4.683v5.43h-2.582V532.045h2.582v5.3h4.683v-5.3h2.558V544.5Z" transform="translate(-467.773 5361.238)" fill="#fff"/>
    <rect id="사각형_211" data-name="사각형 211" width="2.564" height="12.456" transform="translate(554.217 5893.285)" fill="#fff"/>
    <path id="패스_77" data-name="패스 77" d="M1032.836,544.5l-4.224-8.844V544.5h-2.471V532.045h3.148l4.2,8.932v-8.932h2.477V544.5Z" transform="translate(-467.234 5361.238)" fill="#fff"/>
    <path id="패스_78" data-name="패스 78" d="M1037.745,544.5V532.045h7.483v1.719H1040.3v3.583h4.489v1.724H1040.3v3.7h4.949v1.73Z" transform="translate(-466.85 5361.238)" fill="#fff"/>
    <path id="패스_79-2" data-name="패스 79" d="M1054.149,539.93a2.661,2.661,0,0,0-1.072-1.295,3.418,3.418,0,0,0,2.1-3.171c0-3.342-2.8-3.417-5.6-3.417h-3.019V544.5h2.558v-5.012h1.006c.9,0,1.224.392,1.578,1.223a19.31,19.31,0,0,0,1.681,3.789h2.978A20.1,20.1,0,0,1,1054.149,539.93Zm-4-2.146h-1.031v-4.019h1.031c1.53,0,2.407.275,2.407,1.893C1052.557,537.3,1051.572,537.784,1050.15,537.784Z" transform="translate(-466.557 5361.238)" fill="#fff"/>
    <path id="패스_80" data-name="패스 80" d="M1062.5,539.678V544.5h-2.56v-4.824l-4.359-7.632h2.911l2.785,5.471,2.818-5.471h2.67Z" transform="translate(-466.258 5361.238)" fill="#fff"/>
    <path id="패스_46-2" data-name="패스 46" d="M783.493,532.279h4.16v5.948h4.9v-5.948h4.158v15.6h-4.158v-6.689h-4.9v6.689h-4.16Z" transform="translate(-475.305 5361.248)" fill="#fff"/>
    <path id="패스_47-2" data-name="패스 47" d="M803.421,541.993l-5.778-9.715h4.8l3.082,6.238,3.017-6.238h4.8l-5.731,9.715v5.889h-4.182Z" transform="translate(-474.834 5361.248)" fill="#fff"/>
    <path id="패스_48-2" data-name="패스 48" d="M827.761,541.952c0,4.289-2.784,6.222-6.856,6.222s-6.824-1.933-6.824-6.222v-9.673h4.136v8.971c0,2.056.588,3.832,2.687,3.832,2.124,0,2.7-1.776,2.7-3.832v-8.971h4.16Z" transform="translate(-474.287 5361.248)" fill="#fff"/>
    <path id="패스_49-2" data-name="패스 49" d="M829.985,532.279h5.3l5.293,10.591h.041l-.088-10.591h3.814v15.6H839.2L833.71,537.22h-.048l.136,10.662h-3.812Z" transform="translate(-473.758 5361.248)" fill="#fff"/>
    <path id="패스_50-2" data-name="패스 50" d="M851.029,535.361h1.6c3.043,0,4.852,1.619,4.852,4.685,0,3.129-1.744,4.748-4.852,4.748h-1.6v-9.433m-4.182,12.521h5.672c5.36,0,9.261-2.024,9.261-7.891,0-6.018-3.791-7.712-9.261-7.712h-5.672Z" transform="translate(-473.197 5361.248)" fill="#fff"/>
    <path id="패스_51-2" data-name="패스 51" d="M871.585,541.58h-3.918L869.7,535.5h.042Zm-10.331,6.3h4.224l1.224-3.33h5.867l1.157,3.33h4.556l-6-15.6h-5.1Z" transform="translate(-472.719 5361.248)" fill="#fff"/>
    <rect id="사각형_206-2" data-name="사각형 206" width="4.154" height="15.606" transform="translate(407.098 5893.527)" fill="#fff"/>
    <path id="패스_52-2" data-name="패스 52" d="M783.493,551.406H785.5v2.9h2.389v-2.9h2.035v7.572h-2.035v-3.242H785.5v3.242h-2.012Z" transform="translate(-475.305 5361.883)" fill="#fff"/>
    <path id="패스_53-2" data-name="패스 53" d="M791.055,551.406H796.4v1.416h-3.349V554.4H796.2v1.435h-3.148v1.706H796.5v1.437h-5.449Z" transform="translate(-475.053 5361.883)" fill="#fff"/>
    <path id="패스_54-2" data-name="패스 54" d="M802.16,551.406h-2.5l-2.844,7.572h2.013l.612-1.618h2.848l.547,1.618h2.213Zm-2.258,4.531.987-2.966.916,2.966Z" transform="translate(-474.861 5361.883)" fill="#fff"/>
    <path id="패스_55-2" data-name="패스 55" d="M804.083,551.406h2.164l1.69,5.942,1.681-5.942H811.7l-2.584,7.572H806.62Z" transform="translate(-474.619 5361.883)" fill="#fff"/>
    <path id="패스_56-2" data-name="패스 56" d="M814.656,556.118l-2.8-4.711h2.318l1.488,3.04,1.472-3.04h2.294l-2.779,4.711v2.86h-1.994Z" transform="translate(-474.361 5361.883)" fill="#fff"/>
    <rect id="사각형_207-2" data-name="사각형 207" width="2.012" height="7.571" transform="translate(349.314 5913.289)" fill="#fff"/>
    <path id="패스_57-2" data-name="패스 57" d="M826.513,551.406h2.581l2.561,5.142h.023l-.023-5.142h1.84v7.572h-2.516l-2.623-5.177h-.05l.091,5.177h-1.884Z" transform="translate(-473.875 5361.883)" fill="#fff"/>
    <path id="패스_58-2" data-name="패스 58" d="M834.541,551.407h2.76c2.647,0,4.483.8,4.483,3.752,0,2.83-1.9,3.817-4.483,3.817h-2.76Zm2.036,6.081h.787a2.3,2.3,0,1,0,0-4.594h-.787Z" transform="translate(-473.607 5361.883)" fill="#fff"/>
    <path id="패스_59-2" data-name="패스 59" d="M848.992,556.107c0,2.058-1.336,3.011-3.325,3.011-1.971,0-3.33-.953-3.33-3.011v-4.7h2.036v4.354c0,1,.241,1.858,1.294,1.858,1.024,0,1.289-.855,1.289-1.858v-4.354h2.036Z" transform="translate(-473.348 5361.883)" fill="#fff"/>
    <path id="패스_60-2" data-name="패스 60" d="M849.783,557.124a4.455,4.455,0,0,0,2.077.5c.635,0,1.248-.13,1.248-.74,0-1.415-3.59-.531-3.59-3.284,0-1.83,1.795-2.323,3.307-2.323a6.176,6.176,0,0,1,1.947.286l-.114,1.566a3.883,3.883,0,0,0-1.681-.354c-.505,0-1.358.053-1.358.714,0,1.215,3.588.394,3.588,3.129,0,1.972-1.66,2.506-3.349,2.506a7.8,7.8,0,0,1-2.254-.34Z" transform="translate(-473.109 5361.879)" fill="#fff"/>
    <path id="패스_61-2" data-name="패스 61" d="M857.349,552.894h-1.837v-1.488h5.737v1.488h-1.862v6.084h-2.038Z" transform="translate(-472.91 5361.883)" fill="#fff"/>
    <path id="패스_62-2" data-name="패스 62" d="M861.721,551.407h3.587c1.359,0,2.431.612,2.431,1.9a1.79,1.79,0,0,1-1.424,1.93v.012c.633.17.677.752,1.069,1.671l.723,2.058h-2.1l-.434-1.359c-.422-1.311-.66-1.642-1.4-1.642h-.441v3h-2.012Zm2.012,3.147h.524c.659,0,1.468-.019,1.468-.871,0-.713-.7-.859-1.468-.859h-.524Z" transform="translate(-472.703 5361.883)" fill="#fff"/>
    <rect id="사각형_208-2" data-name="사각형 208" width="2.039" height="7.571" transform="translate(396.258 5913.289)" fill="#fff"/>
    <path id="패스_63-2" data-name="패스 63" d="M871.97,551.406h5.343v1.416h-3.307V554.4h3.112v1.435h-3.112v1.706h3.419v1.437H871.97Z" transform="translate(-472.363 5361.883)" fill="#fff"/>
    <path id="패스_64-2" data-name="패스 64" d="M878.356,557.124a4.4,4.4,0,0,0,2.083.5c.629,0,1.248-.13,1.248-.74,0-1.415-3.6-.531-3.6-3.284,0-1.83,1.8-2.323,3.308-2.323a6.344,6.344,0,0,1,1.947.286l-.128,1.566a3.774,3.774,0,0,0-1.667-.354c-.523,0-1.352.053-1.352.714,0,1.215,3.565.394,3.565,3.129,0,1.972-1.642,2.506-3.325,2.506a7.921,7.921,0,0,1-2.276-.34Z" transform="translate(-472.16 5361.879)" fill="#fff"/>
    <path id="패스_65-2" data-name="패스 65" d="M759.7,547.949l10.226-17.674L780.1,547.949Z" transform="translate(-476.096 5361.18)" fill="#fff"/>
    <path id="패스_66-2" data-name="패스 66" d="M766.432,530.275l-10.219,17.674h2.407l9.012-15.6Z" transform="translate(-476.211 5361.18)" fill="#fff"/>
    <rect id="사각형_209-2" data-name="사각형 209" width="0.415" height="17.026" transform="translate(419.547 5891)" fill="#fff"/>
    <path id="패스_67-2" data-name="패스 67" d="M899.552,544.5V532.045h7.507v1.719h-4.9v3.583h4.458v1.724h-4.458v3.7H907.1v1.73Z" transform="translate(-471.445 5361.238)" fill="#fff"/>
    <path id="패스_68-2" data-name="패스 68" d="M915.079,544.5l-4.223-8.844V544.5h-2.472V532.045h3.153l4.178,8.932v-8.932h2.5V544.5Z" transform="translate(-471.152 5361.238)" fill="#fff"/>
    <path id="패스_69-2" data-name="패스 69" d="M929.879,544.1a14.575,14.575,0,0,1-3.87.636c-3.766,0-6.545-1.846-6.545-6.149,0-4.4,2.538-6.729,6.545-6.729a10.7,10.7,0,0,1,3.524.524l-.2,1.947a6.247,6.247,0,0,0-3.042-.724c-2.93,0-4.242,2.4-4.242,4.844,0,2.34,1.222,4.529,3.961,4.529a3.646,3.646,0,0,0,1.4-.229V539.2h-2.468V537.47h4.941Z" transform="translate(-470.783 5361.232)" fill="#fff"/>
    <rect id="사각형_210-2" data-name="사각형 210" width="2.581" height="12.456" transform="translate(461.09 5893.285)" fill="#fff"/>
    <path id="패스_70-2" data-name="패스 70" d="M942.7,544.5l-4.2-8.844V544.5H936.03V532.045h3.129l4.2,8.932v-8.932h2.493V544.5Z" transform="translate(-470.232 5361.238)" fill="#fff"/>
    <path id="패스_71-2" data-name="패스 71" d="M947.634,544.5V532.045H955.1v1.719H950.2v3.583h4.465v1.724H950.2v3.7h4.947v1.73Z" transform="translate(-469.846 5361.238)" fill="#fff"/>
    <path id="패스_72-2" data-name="패스 72" d="M968.629,541.869a10.583,10.583,0,0,0,1.183-3.471h-2.324a7.269,7.269,0,0,1-.347,1.687l-1.793-2.071c1.109-.493,2.621-1.518,2.621-3.093,0-1.866-1.77-3-3.61-3-2.3,0-3.5,1.464-3.5,2.859a4.452,4.452,0,0,0,1.379,2.841c-1.379.81-2.843,2.037-2.843,3.64,0,2.3,2.23,3.528,4.29,3.528a5.342,5.342,0,0,0,3.522-1.354l.895,1.069h2.784Zm-4.288-8.242a1.239,1.239,0,0,1,1.264,1.236c0,.865-.7,1.369-1.418,1.795a3.43,3.43,0,0,1-.922-1.877A1.059,1.059,0,0,1,964.341,533.627Zm-.636,9.425a1.775,1.775,0,0,1-1.866-1.754,2.786,2.786,0,0,1,1.6-2.288l2.454,2.913A3.254,3.254,0,0,1,963.706,543.052Z" transform="translate(-469.455 5361.234)" fill="#fff"/>
    <path id="패스_73-2" data-name="패스 73" d="M984.944,544.5v-9.543l-2.6,9.543h-2.428l-2.671-9.5v9.5h-2.43V532.045h3.9l2.431,9.137,2.428-9.137h3.894V544.5Z" transform="translate(-468.943 5361.238)" fill="#fff"/>
    <path id="패스_74-2" data-name="패스 74" d="M996.193,541.752h-4.531l-.877,2.748h-2.647l4.442-12.454h2.849l4.466,12.454h-2.824Zm-3.984-1.782h3.414l-1.731-5.278Z" transform="translate(-468.5 5361.238)" fill="#fff"/>
    <path id="패스_75-2" data-name="패스 75" d="M1009.026,544.313a11.019,11.019,0,0,1-2.759.424c-3.5,0-6.545-1.629-6.545-6.149,0-3.907,1.949-6.731,6.326-6.731a8.818,8.818,0,0,1,2.913.525l-.221,1.86a6.846,6.846,0,0,0-2.692-.637c-2.67,0-3.7,2.607-3.7,4.831,0,2.329,1.142,4.541,3.919,4.541a7.753,7.753,0,0,0,2.624-.505Z" transform="translate(-468.113 5361.232)" fill="#fff"/>
    <path id="패스_76-2" data-name="패스 76" d="M1017.241,544.5v-5.43h-4.683v5.43h-2.582V532.045h2.582v5.3h4.683v-5.3h2.558V544.5Z" transform="translate(-467.773 5361.238)" fill="#fff"/>
    <rect id="사각형_211-2" data-name="사각형 211" width="2.564" height="12.456" transform="translate(554.217 5893.285)" fill="#fff"/>
    <path id="패스_77-2" data-name="패스 77" d="M1032.836,544.5l-4.224-8.844V544.5h-2.471V532.045h3.148l4.2,8.932v-8.932h2.477V544.5Z" transform="translate(-467.236 5361.238)" fill="#fff"/>
    <path id="패스_78-2" data-name="패스 78" d="M1037.745,544.5V532.045h7.483v1.719H1040.3v3.583h4.489v1.724H1040.3v3.7h4.949v1.73Z" transform="translate(-466.85 5361.238)" fill="#fff"/>
    <path id="패스_80-2" data-name="패스 80" d="M1062.5,539.678V544.5h-2.56v-4.824l-4.359-7.632h2.911l2.785,5.471,2.818-5.471h2.67Z" transform="translate(-466.258 5361.238)" fill="#fff"/>
  </g>
</svg>
