<svg xmlns="http://www.w3.org/2000/svg" width="544" height="50.923"><g id="그룹_6980" data-name="그룹 6980" transform="translate(-4160 -8749)" style="isolation:isolate" fill="#fff"><path id="패스_46" data-name="패스 46" d="M783.493 532.279h7.06v10.1h8.321v-10.1h7.058v26.483h-7.058v-11.354h-8.321v11.354h-7.06z" transform="translate(3424.351 8221.01)"/><path id="패스_47" data-name="패스 47" d="M807.45 548.767l-9.806-16.49h8.141l5.231 10.588 5.121-10.588h8.139l-9.727 16.49v10h-7.1z" transform="translate(3435.017 8221.01)"/><path id="패스_48" data-name="패스 48" d="M837.3 548.7c0 7.28-4.725 10.561-11.636 10.561s-11.582-3.281-11.582-10.561v-16.421h7.018v15.226c0 3.49 1 6.5 4.561 6.5 3.606 0 4.576-3.015 4.576-6.5v-15.226h7.063z" transform="translate(3447.408 8221.01)"/><path id="패스_49" data-name="패스 49" d="M829.985 532.279h9l8.984 17.976h.069l-.149-17.976h6.474v26.483h-8.741l-9.317-18.1h-.082l.23 18.1h-6.471z" transform="translate(3459.395 8221.01)"/><path id="패스_50" data-name="패스 50" d="M853.944 537.51h2.718c5.165 0 8.236 2.748 8.236 7.952 0 5.31-2.96 8.058-8.236 8.058h-2.718v-16.01m-7.1 21.252h9.626c9.1 0 15.719-3.436 15.719-13.394 0-10.214-6.434-13.09-15.719-13.09h-9.626z" transform="translate(3472.104 8221.01)"/><path id="패스_51" data-name="패스 51" d="M878.788 548.066h-6.65l3.453-10.315h.072zm-17.534 10.7h7.169l2.078-5.652h9.958l1.964 5.652h7.733l-10.179-26.483h-8.656z" transform="translate(3482.964 8221.01)"/><path id="사각형_206" data-name="사각형 206" transform="translate(4375.724 8753.288)" d="M0 0h7.05v26.489H0z"/><path id="패스_52" data-name="패스 52" d="M783.493 551.406h3.415v4.926h4.055v-4.926h3.453v12.852h-3.453v-5.5h-4.055v5.5h-3.415z" transform="translate(3424.351 8235.425)"/><path id="패스_53" data-name="패스 53" d="M791.055 551.406h9.069v2.4h-5.685v2.68h5.344v2.436h-5.344v2.9h5.861v2.439h-9.248z" transform="translate(3430.052 8235.425)"/><path id="패스_54" data-name="패스 54" d="M805.886 551.406h-4.242l-4.826 12.851h3.416l1.038-2.746h4.828l.928 2.746h3.756zm-3.832 7.69l1.675-5.035 1.555 5.035z" transform="translate(3434.395 8235.426)"/><path id="패스_55" data-name="패스 55" d="M804.083 551.406h3.674l2.869 10.086 2.854-10.086h3.527l-4.386 12.852h-4.232z" transform="translate(3439.871 8235.425)"/><path id="패스_56" data-name="패스 56" d="M816.609 559.4l-4.752-8h3.935l2.526 5.16 2.5-5.16h3.894l-4.716 8v4.854h-3.384z" transform="translate(3445.73 8235.426)"/><path id="사각형_207" data-name="사각형 207" transform="translate(4277.647 8786.833)" d="M0 0h3.415v12.85H0z"/><path id="패스_57" data-name="패스 57" d="M826.513 551.406h4.381l4.347 8.728h.039l-.039-8.728h3.123v12.852h-4.271l-4.452-8.787h-.085l.154 8.787h-3.2z" transform="translate(3456.778 8235.425)"/><path id="패스_58" data-name="패스 58" d="M834.541 551.407h4.684c4.493 0 7.61 1.365 7.61 6.368 0 4.8-3.227 6.478-7.61 6.478h-4.684zM838 561.728h1.336c2.529 0 3.939-1.334 3.939-3.9s-1.482-3.9-3.939-3.9H838z" transform="translate(3462.828 8235.426)"/><path id="패스_59" data-name="패스 59" d="M853.633 559.385c0 3.493-2.268 5.11-5.643 5.11-3.346 0-5.653-1.617-5.653-5.11v-7.978h3.457v7.39c0 1.7.409 3.153 2.2 3.153 1.738 0 2.187-1.45 2.187-3.153v-7.39h3.456z" transform="translate(3468.705 8235.426)"/><path id="패스_60" data-name="패스 60" d="M849.967 561.2a7.561 7.561 0 003.525.845c1.079 0 2.118-.221 2.118-1.256 0-2.4-6.092-.9-6.092-5.573 0-3.106 3.046-3.943 5.614-3.943a10.483 10.483 0 013.3.486l-.193 2.659a6.589 6.589 0 00-2.853-.6c-.858 0-2.3.089-2.3 1.212 0 2.063 6.091.668 6.091 5.311 0 3.348-2.818 4.253-5.684 4.253a13.248 13.248 0 01-3.825-.577z" transform="translate(3474.117 8235.328)"/><path id="패스_61" data-name="패스 61" d="M858.629 553.931h-3.118v-2.526h9.737v2.526h-3.161v10.326h-3.458z" transform="translate(3478.635 8235.425)"/><path id="패스_62" data-name="패스 62" d="M861.721 551.407h6.089c2.306 0 4.127 1.038 4.127 3.223a3.038 3.038 0 01-2.417 3.276v.021c1.075.289 1.148 1.277 1.815 2.836l1.228 3.493H869l-.737-2.306c-.715-2.225-1.121-2.786-2.38-2.786h-.749v5.093h-3.415zm3.415 5.342h.889c1.119 0 2.492-.032 2.492-1.479 0-1.21-1.187-1.457-2.492-1.457h-.889z" transform="translate(3483.316 8235.426)"/><path id="사각형_208" data-name="사각형 208" transform="translate(4357.326 8786.833)" d="M0 0h3.461v12.85H0z"/><path id="패스_63" data-name="패스 63" d="M871.969 551.406h9.069v2.4h-5.613v2.68h5.282v2.436h-5.282v2.9h5.8v2.439h-9.258z" transform="translate(3491.041 8235.425)"/><path id="패스_64" data-name="패스 64" d="M878.541 561.2a7.469 7.469 0 003.536.845c1.068 0 2.118-.221 2.118-1.256 0-2.4-6.1-.9-6.1-5.573 0-3.106 3.058-3.943 5.615-3.943a10.767 10.767 0 013.3.486l-.217 2.659a6.406 6.406 0 00-2.829-.6c-.887 0-2.294.089-2.294 1.212 0 2.063 6.051.668 6.051 5.311 0 3.348-2.787 4.253-5.643 4.253a13.446 13.446 0 01-3.864-.577z" transform="translate(3495.654 8235.328)"/><path id="패스_65" data-name="패스 65" d="M759.7 560.273l17.356-30 17.266 30z" transform="translate(3406.419 8219.496)"/><path id="패스_66" data-name="패스 66" d="M773.558 530.275l-17.346 30h4.088l15.3-26.484z" transform="translate(3403.788 8219.495)"/><path id="사각형_209" data-name="사각형 209" transform="translate(4396.854 8749)" d="M0 0h.704v28.899H0z"/><path id="패스_67" data-name="패스 67" d="M899.552 553.187v-21.142h12.742v2.918h-8.318v6.082h7.568v2.926h-7.568v6.281h8.39v2.936z" transform="translate(3511.831 8220.831)"/><path id="패스_68" data-name="패스 68" d="M919.748 553.187l-7.167-15.012v15.012h-4.2v-21.142h5.351l7.091 15.16v-15.16h4.237v21.142z" transform="translate(3518.488 8220.831)"/><path id="패스_69" data-name="패스 69" d="M937.141 552.636a24.737 24.737 0 01-6.568 1.08c-6.392 0-11.108-3.134-11.108-10.437 0-7.467 4.307-11.422 11.108-11.422a18.155 18.155 0 015.982.889l-.342 3.3a10.6 10.6 0 00-5.163-1.23c-4.973 0-7.2 4.076-7.2 8.222 0 3.972 2.075 7.687 6.722 7.687a6.19 6.19 0 002.371-.389v-6.019h-4.19v-2.939h8.386z" transform="translate(3526.84 8220.69)"/><path id="사각형_210" data-name="사각형 210" transform="translate(4467.365 8752.878)" d="M0 0h4.381v21.142H0z"/><path id="패스_70" data-name="패스 70" d="M947.355 553.187l-7.132-15.012v15.012h-4.193v-21.142h5.31l7.132 15.16v-15.16h4.228v21.142z" transform="translate(3539.326 8220.831)"/><path id="패스_71" data-name="패스 71" d="M947.634 553.187v-21.142h12.676v2.918h-8.328v6.082h7.578v2.926h-7.578v6.281h8.4v2.936z" transform="translate(3548.074 8220.831)"/><path id="패스_72" data-name="패스 72" d="M975.069 548.806a17.964 17.964 0 002.008-5.891h-3.944a12.328 12.328 0 01-.589 2.864l-3.043-3.515c1.882-.836 4.449-2.576 4.449-5.251 0-3.167-3-5.093-6.127-5.093-3.9 0-5.945 2.485-5.945 4.853 0 1.908 1.152 3.466 2.341 4.823-2.341 1.375-4.825 3.457-4.825 6.179 0 3.907 3.785 5.987 7.282 5.987a9.067 9.067 0 005.979-2.3l1.519 1.815h4.726zm-7.278-13.99a2.1 2.1 0 012.145 2.1c0 1.468-1.185 2.324-2.406 3.046a5.822 5.822 0 01-1.564-3.187 1.8 1.8 0 011.825-1.959zm-1.079 16a3.013 3.013 0 01-3.167-2.978 4.729 4.729 0 012.715-3.883l4.165 4.944a5.523 5.523 0 01-3.713 1.915z" transform="translate(3556.937 8220.738)"/><path id="패스_73" data-name="패스 73" d="M992.009 553.187v-16.2l-4.417 16.2h-4.122l-4.534-16.118v16.118h-4.125v-21.142h6.612l4.127 15.509 4.122-15.509h6.61v21.142z" transform="translate(3568.559 8220.831)"/><path id="패스_74" data-name="패스 74" d="M1001.81 548.52h-7.69l-1.489 4.665h-4.493l7.539-21.138h4.835l7.58 21.138h-4.792zm-6.762-3.025h5.794l-2.938-8.958z" transform="translate(3578.602 8220.833)"/><path id="패스_75" data-name="패스 75" d="M1015.514 553a18.7 18.7 0 01-4.683.719c-5.94 0-11.108-2.766-11.108-10.437 0-6.631 3.308-11.424 10.737-11.424a14.967 14.967 0 014.944.891l-.375 3.157a11.621 11.621 0 00-4.569-1.082c-4.532 0-6.28 4.425-6.28 8.2 0 3.953 1.938 7.708 6.652 7.708a13.157 13.157 0 004.453-.858z" transform="translate(3587.335 8220.689)"/><path id="패스_76" data-name="패스 76" d="M1022.307 553.187v-9.217h-7.949v9.217h-4.383v-21.142h4.383v9h7.949v-9h4.342v21.142z" transform="translate(3595.062 8220.831)"/><path id="사각형_211" data-name="사각형 211" transform="translate(4625.43 8752.878)" d="M0 0h4.352v21.142H0z"/><path id="패스_77" data-name="패스 77" d="M1037.5 553.187l-7.17-15.012v15.012h-4.194v-21.142h5.344l7.13 15.16v-15.16h4.2v21.142z" transform="translate(3607.248 8220.831)"/><path id="패스_78" data-name="패스 78" d="M1037.745 553.187v-21.142h12.7v2.918h-8.357v6.082h7.619v2.926h-7.619v6.281h8.4v2.936z" transform="translate(3615.994 8220.831)"/><path id="패스_79" data-name="패스 79" d="M1059.441 545.426a4.516 4.516 0 00-1.819-2.2 5.8 5.8 0 003.568-5.382c0-5.672-4.754-5.8-9.505-5.8h-5.125v21.138h4.342v-8.507h1.708c1.529 0 2.078.665 2.678 2.076 1 2.346 1.6 4.745 2.853 6.431h5.055c-1.775-2.223-3.346-6.716-3.755-7.756zm-6.789-3.643h-1.75v-6.822h1.75c2.6 0 4.086.466 4.086 3.213.001 2.787-1.67 3.61-4.086 3.61z" transform="translate(3622.639 8220.833)"/><path id="패스_80" data-name="패스 80" d="M1067.323 545v8.187h-4.345V545l-7.4-12.955h4.942l4.727 9.286 4.782-9.286h4.532z" transform="translate(3629.438 8220.831)"/><path id="패스_46-2" data-name="패스 46" d="M783.493 532.279h7.06v10.1h8.321v-10.1h7.058v26.483h-7.058v-11.354h-8.321v11.354h-7.06z" transform="translate(3424.35 8221.01)"/><path id="패스_47-2" data-name="패스 47" d="M807.45 548.767l-9.806-16.49h8.141l5.231 10.588 5.121-10.588h8.139l-9.727 16.49v10h-7.1z" transform="translate(3435.017 8221.01)"/><path id="패스_48-2" data-name="패스 48" d="M837.3 548.7c0 7.28-4.725 10.561-11.636 10.561s-11.582-3.281-11.582-10.561v-16.421h7.018v15.226c0 3.49 1 6.5 4.561 6.5 3.606 0 4.576-3.015 4.576-6.5v-15.226h7.063z" transform="translate(3447.408 8221.01)"/><path id="패스_49-2" data-name="패스 49" d="M829.985 532.279h9l8.984 17.976h.069l-.149-17.976h6.474v26.483h-8.741l-9.317-18.1h-.082l.23 18.1h-6.471z" transform="translate(3459.395 8221.01)"/><path id="패스_50-2" data-name="패스 50" d="M853.944 537.51h2.718c5.165 0 8.236 2.748 8.236 7.952 0 5.31-2.96 8.058-8.236 8.058h-2.718v-16.01m-7.1 21.252h9.626c9.1 0 15.719-3.436 15.719-13.394 0-10.214-6.434-13.09-15.719-13.09h-9.626z" transform="translate(3472.104 8221.01)"/><path id="패스_51-2" data-name="패스 51" d="M878.788 548.066h-6.65l3.453-10.315h.072zm-17.534 10.7h7.169l2.078-5.652h9.958l1.964 5.652h7.733l-10.179-26.483h-8.656z" transform="translate(3482.964 8221.01)"/><path id="사각형_206-2" data-name="사각형 206" transform="translate(4375.724 8753.288)" d="M0 0h7.05v26.489H0z"/><path id="패스_52-2" data-name="패스 52" d="M783.493 551.406h3.415v4.926h4.055v-4.926h3.453v12.852h-3.453v-5.5h-4.055v5.5h-3.415z" transform="translate(3424.35 8235.427)"/><path id="패스_53-2" data-name="패스 53" d="M791.055 551.406h9.069v2.4h-5.685v2.68h5.344v2.436h-5.344v2.9h5.861v2.439h-9.248z" transform="translate(3430.051 8235.427)"/><path id="패스_54-2" data-name="패스 54" d="M805.886 551.406h-4.242l-4.826 12.851h3.416l1.038-2.746h4.828l.928 2.746h3.756zm-3.832 7.69l1.675-5.035 1.555 5.035z" transform="translate(3434.394 8235.427)"/><path id="패스_55-2" data-name="패스 55" d="M804.083 551.406h3.674l2.869 10.086 2.854-10.086h3.527l-4.386 12.852h-4.232z" transform="translate(3439.871 8235.427)"/><path id="패스_56-2" data-name="패스 56" d="M816.609 559.4l-4.752-8h3.935l2.526 5.16 2.5-5.16h3.894l-4.716 8v4.854h-3.384z" transform="translate(3445.73 8235.427)"/><path id="사각형_207-2" data-name="사각형 207" transform="translate(4277.647 8786.833)" d="M0 0h3.415v12.85H0z"/><path id="패스_57-2" data-name="패스 57" d="M826.513 551.406h4.381l4.347 8.728h.039l-.039-8.728h3.123v12.852h-4.271l-4.452-8.787h-.085l.154 8.787h-3.2z" transform="translate(3456.778 8235.427)"/><path id="패스_58-2" data-name="패스 58" d="M834.541 551.407h4.684c4.493 0 7.61 1.365 7.61 6.368 0 4.8-3.227 6.478-7.61 6.478h-4.684zM838 561.728h1.336c2.529 0 3.939-1.334 3.939-3.9s-1.482-3.9-3.939-3.9H838z" transform="translate(3462.828 8235.427)"/><path id="패스_59-2" data-name="패스 59" d="M853.633 559.385c0 3.493-2.268 5.11-5.643 5.11-3.346 0-5.653-1.617-5.653-5.11v-7.978h3.457v7.39c0 1.7.409 3.153 2.2 3.153 1.738 0 2.187-1.45 2.187-3.153v-7.39h3.456z" transform="translate(3468.705 8235.427)"/><path id="패스_60-2" data-name="패스 60" d="M849.967 561.2a7.561 7.561 0 003.525.845c1.079 0 2.118-.221 2.118-1.256 0-2.4-6.092-.9-6.092-5.573 0-3.106 3.046-3.943 5.614-3.943a10.483 10.483 0 013.3.486l-.193 2.659a6.589 6.589 0 00-2.853-.6c-.858 0-2.3.089-2.3 1.212 0 2.063 6.091.668 6.091 5.311 0 3.348-2.818 4.253-5.684 4.253a13.248 13.248 0 01-3.825-.577z" transform="translate(3474.117 8235.329)"/><path id="패스_61-2" data-name="패스 61" d="M858.629 553.931h-3.118v-2.526h9.737v2.526h-3.161v10.326h-3.458z" transform="translate(3478.635 8235.427)"/><path id="패스_62-2" data-name="패스 62" d="M861.721 551.407h6.089c2.306 0 4.127 1.038 4.127 3.223a3.038 3.038 0 01-2.417 3.276v.021c1.075.289 1.148 1.277 1.815 2.836l1.228 3.493H869l-.737-2.306c-.715-2.225-1.121-2.786-2.38-2.786h-.749v5.093h-3.415zm3.415 5.342h.889c1.119 0 2.492-.032 2.492-1.479 0-1.21-1.187-1.457-2.492-1.457h-.889z" transform="translate(3483.315 8235.427)"/><path id="사각형_208-2" data-name="사각형 208" transform="translate(4357.326 8786.833)" d="M0 0h3.461v12.85H0z"/><path id="패스_63-2" data-name="패스 63" d="M871.969 551.406h9.069v2.4h-5.613v2.68h5.282v2.436h-5.282v2.9h5.8v2.439h-9.258z" transform="translate(3491.041 8235.427)"/><path id="패스_64-2" data-name="패스 64" d="M878.541 561.2a7.469 7.469 0 003.536.845c1.068 0 2.118-.221 2.118-1.256 0-2.4-6.1-.9-6.1-5.573 0-3.106 3.058-3.943 5.615-3.943a10.767 10.767 0 013.3.486l-.217 2.659a6.406 6.406 0 00-2.829-.6c-.887 0-2.294.089-2.294 1.212 0 2.063 6.051.668 6.051 5.311 0 3.348-2.787 4.253-5.643 4.253a13.446 13.446 0 01-3.864-.577z" transform="translate(3495.654 8235.329)"/><path id="패스_65-2" data-name="패스 65" d="M759.7 560.273l17.356-30 17.266 30z" transform="translate(3406.419 8219.498)"/><path id="패스_66-2" data-name="패스 66" d="M773.558 530.275l-17.346 30h4.088l15.3-26.484z" transform="translate(3403.788 8219.498)"/><path id="사각형_209-2" data-name="사각형 209" transform="translate(4396.853 8749)" d="M0 0h.704v28.899H0z"/><path id="패스_67-2" data-name="패스 67" d="M899.552 553.187v-21.142h12.742v2.918h-8.318v6.082h7.568v2.926h-7.568v6.281h8.39v2.936z" transform="translate(3511.831 8220.832)"/><path id="패스_68-2" data-name="패스 68" d="M919.748 553.187l-7.167-15.012v15.012h-4.2v-21.142h5.351l7.091 15.16v-15.16h4.237v21.142z" transform="translate(3518.488 8220.832)"/><path id="패스_69-2" data-name="패스 69" d="M937.141 552.636a24.737 24.737 0 01-6.568 1.08c-6.392 0-11.108-3.134-11.108-10.437 0-7.467 4.307-11.422 11.108-11.422a18.155 18.155 0 015.982.889l-.342 3.3a10.6 10.6 0 00-5.163-1.23c-4.973 0-7.2 4.076-7.2 8.222 0 3.972 2.075 7.687 6.722 7.687a6.19 6.19 0 002.371-.389v-6.019h-4.19v-2.939h8.386z" transform="translate(3526.84 8220.69)"/><path id="사각형_210-2" data-name="사각형 210" transform="translate(4467.366 8752.878)" d="M0 0h4.381v21.142H0z"/><path id="패스_70-2" data-name="패스 70" d="M947.355 553.187l-7.132-15.012v15.012h-4.193v-21.142h5.31l7.132 15.16v-15.16h4.228v21.142z" transform="translate(3539.326 8220.832)"/><path id="패스_71-2" data-name="패스 71" d="M947.634 553.187v-21.142h12.676v2.918h-8.328v6.082h7.578v2.926h-7.578v6.281h8.4v2.936z" transform="translate(3548.073 8220.832)"/><path id="패스_72-2" data-name="패스 72" d="M975.069 548.806a17.964 17.964 0 002.008-5.891h-3.944a12.328 12.328 0 01-.589 2.864l-3.043-3.515c1.882-.836 4.449-2.576 4.449-5.251 0-3.167-3-5.093-6.127-5.093-3.9 0-5.945 2.485-5.945 4.853 0 1.908 1.152 3.466 2.341 4.823-2.341 1.375-4.825 3.457-4.825 6.179 0 3.907 3.785 5.987 7.282 5.987a9.067 9.067 0 005.979-2.3l1.519 1.815h4.726zm-7.278-13.99a2.1 2.1 0 012.145 2.1c0 1.468-1.185 2.324-2.406 3.046a5.822 5.822 0 01-1.564-3.187 1.8 1.8 0 011.825-1.959zm-1.079 16a3.013 3.013 0 01-3.167-2.978 4.729 4.729 0 012.715-3.883l4.165 4.944a5.523 5.523 0 01-3.713 1.915z" transform="translate(3556.937 8220.739)"/><path id="패스_73-2" data-name="패스 73" d="M992.009 553.187v-16.2l-4.417 16.2h-4.122l-4.534-16.118v16.118h-4.125v-21.142h6.612l4.127 15.509 4.122-15.509h6.61v21.142z" transform="translate(3568.558 8220.832)"/><path id="패스_74-2" data-name="패스 74" d="M1001.81 548.52h-7.69l-1.489 4.665h-4.493l7.539-21.138h4.835l7.58 21.138h-4.792zm-6.762-3.025h5.794l-2.938-8.958z" transform="translate(3578.603 8220.834)"/><path id="패스_75-2" data-name="패스 75" d="M1015.514 553a18.7 18.7 0 01-4.683.719c-5.94 0-11.108-2.766-11.108-10.437 0-6.631 3.308-11.424 10.737-11.424a14.967 14.967 0 014.944.891l-.375 3.157a11.621 11.621 0 00-4.569-1.082c-4.532 0-6.28 4.425-6.28 8.2 0 3.953 1.938 7.708 6.652 7.708a13.157 13.157 0 004.453-.858z" transform="translate(3587.335 8220.689)"/><path id="패스_76-2" data-name="패스 76" d="M1022.307 553.187v-9.217h-7.949v9.217h-4.383v-21.142h4.383v9h7.949v-9h4.342v21.142z" transform="translate(3595.063 8220.832)"/><path id="사각형_211-2" data-name="사각형 211" transform="translate(4625.432 8752.878)" d="M0 0h4.352v21.142H0z"/><path id="패스_77-2" data-name="패스 77" d="M1037.5 553.187l-7.17-15.012v15.012h-4.194v-21.142h5.344l7.13 15.16v-15.16h4.2v21.142z" transform="translate(3607.247 8220.832)"/><path id="패스_78-2" data-name="패스 78" d="M1037.745 553.187v-21.142h12.7v2.918h-8.357v6.082h7.619v2.926h-7.619v6.281h8.4v2.936z" transform="translate(3615.994 8220.832)"/><path id="패스_79-2" data-name="패스 79" d="M1059.441 545.426a4.516 4.516 0 00-1.819-2.2 5.8 5.8 0 003.568-5.382c0-5.672-4.754-5.8-9.505-5.8h-5.125v21.138h4.342v-8.507h1.708c1.529 0 2.078.665 2.678 2.076 1 2.346 1.6 4.745 2.853 6.431h5.055c-1.775-2.223-3.346-6.716-3.755-7.756zm-6.789-3.643h-1.75v-6.822h1.75c2.6 0 4.086.466 4.086 3.213.001 2.787-1.67 3.61-4.086 3.61z" transform="translate(3622.639 8220.834)"/><path id="패스_80-2" data-name="패스 80" d="M1067.323 545v8.187h-4.345V545l-7.4-12.955h4.942l4.727 9.286 4.782-9.286h4.532z" transform="translate(3629.438 8220.832)"/></g></svg>