<svg xmlns="http://www.w3.org/2000/svg" width="320.469" height="29.544"><g id="logo" transform="translate(-6642 -9894.454)"><g id="그룹_6975" data-name="그룹 6975" fill="#fff"><path id="패스_52" data-name="패스 52" d="M783.493 551.406h2.007v2.9h2.389v-2.9h2.034v7.571h-2.034v-3.242H785.5v3.242h-2.011z" transform="translate(5886.692 9364.882)"/><path id="패스_53" data-name="패스 53" d="M791.055 551.406h5.345v1.415h-3.349v1.579h3.149v1.435h-3.148v1.705h3.448v1.437h-5.448z" transform="translate(5886.943 9364.882)"/><path id="패스_54" data-name="패스 54" d="M802.159 551.406h-2.5l-2.843 7.571h2.013l.611-1.618h2.847l.547 1.618h2.213zm-2.257 4.53l.987-2.966.916 2.966z" transform="translate(5887.134 9364.882)"/><path id="패스_55" data-name="패스 55" d="M804.083 551.406h2.164l1.69 5.941 1.681-5.941h2.082l-2.583 7.571h-2.497z" transform="translate(5887.373 9364.882)"/><path id="패스_56" data-name="패스 56" d="M814.656 556.117l-2.8-4.71h2.318l1.488 3.039 1.471-3.039h2.294l-2.778 4.71v2.86h-1.993z" transform="translate(5887.632 9364.881)"/><path id="사각형_207" data-name="사각형 207" transform="translate(6711.307 9916.288)" d="M0 0h2.012v7.57H0z"/><path id="패스_57" data-name="패스 57" d="M826.513 551.406h2.581l2.561 5.142h.023l-.023-5.142h1.84v7.571h-2.516l-2.623-5.176h-.05l.091 5.176h-1.883z" transform="translate(5888.117 9364.882)"/><path id="패스_58" data-name="패스 58" d="M834.541 551.407h2.759c2.647 0 4.483.8 4.483 3.751 0 2.83-1.9 3.816-4.483 3.816h-2.759zm2.036 6.08h.787a2.3 2.3 0 100-4.593h-.787z" transform="translate(5888.383 9364.881)"/><path id="패스_59" data-name="패스 59" d="M848.991 556.107c0 2.058-1.336 3.01-3.325 3.01-1.971 0-3.33-.953-3.33-3.01v-4.7h2.036v4.354c0 1 .241 1.858 1.294 1.858 1.024 0 1.288-.854 1.288-1.858v-4.354h2.036z" transform="translate(5888.641 9364.881)"/><path id="패스_60" data-name="패스 60" d="M849.783 557.123a4.454 4.454 0 002.077.5c.636 0 1.248-.13 1.248-.74 0-1.414-3.589-.531-3.589-3.284 0-1.83 1.795-2.322 3.307-2.322a6.172 6.172 0 011.946.286l-.114 1.566a3.882 3.882 0 00-1.681-.354c-.505 0-1.358.053-1.358.714 0 1.215 3.588.394 3.588 3.128 0 1.972-1.66 2.505-3.348 2.505a7.8 7.8 0 01-2.253-.34z" transform="translate(5888.879 9364.877)"/><path id="패스_61" data-name="패스 61" d="M857.348 552.893h-1.837v-1.488h5.736v1.488h-1.862v6.083h-2.037z" transform="translate(5889.078 9364.882)"/><path id="패스_62" data-name="패스 62" d="M861.721 551.407h3.587c1.359 0 2.431.612 2.431 1.9a1.789 1.789 0 01-1.424 1.93v.012c.633.17.677.752 1.069 1.671l.723 2.058h-2.1l-.434-1.359c-.422-1.311-.66-1.641-1.4-1.641h-.441v3h-2.012zm2.012 3.147h.524c.659 0 1.468-.019 1.468-.871 0-.713-.7-.858-1.468-.858h-.524z" transform="translate(5889.283 9364.881)"/><path id="사각형_208" data-name="사각형 208" transform="translate(6758.244 9916.288)" d="M0 0h2.039v7.57H0z"/><path id="패스_63" data-name="패스 63" d="M871.969 551.406h5.342v1.415h-3.307v1.579h3.112v1.435h-3.112v1.705h3.418v1.437h-5.454z" transform="translate(5889.623 9364.882)"/><path id="패스_64" data-name="패스 64" d="M878.355 557.123a4.4 4.4 0 002.083.5c.629 0 1.248-.13 1.248-.74 0-1.414-3.6-.531-3.6-3.284 0-1.83 1.8-2.322 3.308-2.322a6.34 6.34 0 011.946.286l-.128 1.566a3.773 3.773 0 00-1.667-.354c-.523 0-1.351.053-1.351.714 0 1.215 3.564.394 3.564 3.128 0 1.972-1.642 2.505-3.325 2.505a7.922 7.922 0 01-2.276-.34z" transform="translate(5889.826 9364.877)"/></g><path id="패스_65" data-name="패스 65" d="M759.7 547.946l10.224-17.672 10.176 17.672z" transform="translate(5885.904 9364.181)" fill="#fff"/><path id="패스_66" data-name="패스 66" d="M766.43 530.274l-10.218 17.672h2.407l9.011-15.6z" transform="translate(5885.788 9364.181)" fill="#fff"/><g id="그룹_6974" data-name="그룹 6974" fill="#fff"><path id="패스_46" data-name="패스 46" d="M783.493 532.279h4.159v5.947h4.9v-5.947h4.158v15.6h-4.158v-6.689h-4.9v6.689h-4.159z" transform="translate(5886.691 9363.722)"/><path id="패스_47" data-name="패스 47" d="M803.42 541.992l-5.777-9.714h4.8l3.082 6.237 3.017-6.237h4.794l-5.73 9.714v5.889h-4.186z" transform="translate(5887.16 9363.723)"/><path id="패스_48" data-name="패스 48" d="M827.76 541.951c0 4.288-2.783 6.222-6.855 6.222s-6.823-1.933-6.823-6.222v-9.672h4.136v8.97c0 2.056.588 3.832 2.687 3.832 2.124 0 2.7-1.776 2.7-3.832v-8.97h4.159z" transform="translate(5887.705 9363.721)"/><path id="패스_49" data-name="패스 49" d="M829.985 532.279h5.3l5.292 10.59h.041l-.088-10.59h3.814v15.6H839.2l-5.489-10.66h-.048l.136 10.66h-3.812z" transform="translate(5888.232 9363.722)"/><path id="패스_50" data-name="패스 50" d="M851.028 535.361h1.6c3.043 0 4.852 1.619 4.852 4.684 0 3.128-1.744 4.747-4.852 4.747h-1.6v-9.432m-4.181 12.52h5.671c5.36 0 9.26-2.024 9.26-7.89 0-6.017-3.791-7.711-9.26-7.711h-5.671z" transform="translate(5888.791 9363.721)"/><path id="패스_51" data-name="패스 51" d="M871.583 541.579h-3.918l2.035-6.079h.042zm-10.329 6.3h4.224l1.224-3.33h5.866l1.157 3.33h4.555l-6-15.6h-5.1z" transform="translate(5889.27 9363.721)"/><path id="사각형_206" data-name="사각형 206" transform="translate(6769.082 9896)" d="M0 0h4.153v15.604H0z"/><path id="사각형_209" data-name="사각형 209" transform="translate(6781.531 9896)" d="M0 0h.415v17.024H0z"/><path id="패스_67" data-name="패스 67" d="M899.552 544.5v-12.455h7.506v1.719h-4.9v3.583h4.458v1.724h-4.458v3.7h4.942v1.729z" transform="translate(5890.539 9365.955)"/><path id="패스_68" data-name="패스 68" d="M915.078 544.5l-4.223-8.843v8.843h-2.472v-12.455h3.153l4.177 8.931v-8.931h2.5V544.5z" transform="translate(5890.83 9365.955)"/><path id="패스_69" data-name="패스 69" d="M929.878 544.1a14.574 14.574 0 01-3.869.636c-3.766 0-6.544-1.846-6.544-6.148 0-4.4 2.537-6.729 6.544-6.729a10.7 10.7 0 013.524.524l-.2 1.947a6.247 6.247 0 00-3.042-.724c-2.93 0-4.241 2.4-4.241 4.843 0 2.34 1.222 4.528 3.96 4.528a3.646 3.646 0 001.4-.23V539.2h-2.468v-1.732h4.94z" transform="translate(5891.197 9366.142)"/><path id="사각형_210" data-name="사각형 210" transform="translate(6823.068 9898)" d="M0 0h2.581v12.455H0z"/><path id="패스_70" data-name="패스 70" d="M942.7 544.5l-4.2-8.843v8.843h-2.47v-12.455h3.129l4.2 8.931v-8.931h2.493V544.5z" transform="translate(5891.746 9365.955)"/><path id="패스_71" data-name="패스 71" d="M947.634 544.5v-12.455h7.466v1.719h-4.906v3.583h4.464v1.724h-4.464v3.7h4.947v1.729z" transform="translate(5892.131 9365.955)"/><path id="패스_72" data-name="패스 72" d="M968.628 541.868a10.585 10.585 0 001.183-3.47h-2.323a7.278 7.278 0 01-.347 1.687l-1.792-2.07c1.109-.493 2.621-1.518 2.621-3.093 0-1.866-1.77-3-3.61-3-2.3 0-3.5 1.464-3.5 2.859a4.451 4.451 0 001.379 2.841c-1.379.81-2.842 2.036-2.842 3.64 0 2.3 2.229 3.527 4.29 3.527a5.341 5.341 0 003.522-1.353l.895 1.069h2.783zm-4.287-8.241a1.238 1.238 0 011.263 1.236c0 .865-.7 1.369-1.417 1.794a3.429 3.429 0 01-.922-1.877 1.059 1.059 0 011.076-1.153zm-.635 9.424a1.775 1.775 0 01-1.866-1.754 2.786 2.786 0 011.6-2.287l2.454 2.912a3.255 3.255 0 01-2.189 1.129z" transform="translate(5892.52 9366.079)"/><path id="패스_73" data-name="패스 73" d="M984.943 544.5v-9.542l-2.6 9.542h-2.428l-2.671-9.5v9.5h-2.43v-12.455h3.9l2.431 9.136 2.428-9.136h3.894V544.5z" transform="translate(5893.031 9365.955)"/><path id="패스_74" data-name="패스 74" d="M996.192 541.751h-4.53l-.877 2.748h-2.647l4.442-12.452h2.848l4.465 12.452h-2.823zm-3.984-1.782h3.413l-1.73-5.277z" transform="translate(5893.473 9365.953)"/><path id="패스_75" data-name="패스 75" d="M1009.025 544.311a11.023 11.023 0 01-2.759.424c-3.5 0-6.544-1.629-6.544-6.148 0-3.906 1.948-6.73 6.325-6.73a8.817 8.817 0 012.912.525l-.221 1.86a6.844 6.844 0 00-2.691-.637c-2.67 0-3.7 2.607-3.7 4.831 0 2.329 1.142 4.541 3.919 4.541a7.751 7.751 0 002.623-.505z" transform="translate(5893.855 9366.143)"/><path id="패스_76" data-name="패스 76" d="M1017.24 544.5v-5.43h-4.683v5.43h-2.582v-12.455h2.582v5.3h4.683v-5.3h2.558V544.5z" transform="translate(5894.197 9365.955)"/><path id="사각형_211" data-name="사각형 211" transform="translate(6916.186 9898)" d="M0 0h2.564v12.455H0z"/><path id="패스_77" data-name="패스 77" d="M1032.835 544.5l-4.224-8.843v8.843h-2.47v-12.455h3.148l4.2 8.931v-8.931h2.476V544.5z" transform="translate(5894.732 9365.955)"/><path id="패스_78" data-name="패스 78" d="M1037.745 544.5v-12.455h7.482v1.719h-4.927v3.583h4.488v1.724h-4.488v3.7h4.948v1.729z" transform="translate(5895.115 9365.955)"/><path id="패스_79" data-name="패스 79" d="M1054.148 539.929a2.662 2.662 0 00-1.071-1.295 3.418 3.418 0 002.1-3.17c0-3.341-2.8-3.417-5.6-3.417h-3.019V544.5h2.558v-5.012h1.006c.9 0 1.224.391 1.578 1.223a19.291 19.291 0 001.681 3.788h2.978a20.1 20.1 0 01-2.211-4.57zm-4-2.146h-1.031v-4.019h1.031c1.53 0 2.407.275 2.407 1.893.001 1.643-.983 2.126-2.406 2.126z" transform="translate(5895.408 9365.953)"/><path id="패스_80" data-name="패스 80" d="M1062.5 539.677v4.823h-2.56v-4.823l-4.359-7.632h2.911l2.784 5.47 2.818-5.47h2.67z" transform="translate(5895.707 9365.955)"/></g><path id="패스_65-2" data-name="패스 65" d="M759.7 547.928l10.214-17.653 10.161 17.653z" transform="translate(5885.9 9364.18)" fill="#2d973d"/><path id="패스_66-2" data-name="패스 66" d="M766.42 530.274l-10.208 17.654h2.4l9-15.585z" transform="translate(5885.788 9364.18)" fill="#ffa800"/></g></svg>