<svg xmlns="http://www.w3.org/2000/svg" width="358" height="226" viewBox="0 0 358 226">
  <g id="그룹_12615" data-name="그룹 12615" transform="translate(-41 -2838)">
    <g id="그룹_12614" data-name="그룹 12614">
      <rect id="사각형_49268" data-name="사각형 49268" width="98" height="97" transform="translate(41 2838)" fill="none"/>
      <g id="그룹_12603" data-name="그룹 12603" transform="translate(-77.335 2456.096)">
        <path id="패스_21665" data-name="패스 21665" d="M150.593,428.635a1.364,1.364,0,0,1-.774-2.487l12.9-8.871a1.362,1.362,0,0,1,1.543,2.246l-12.9,8.871a1.352,1.352,0,0,1-.772.241" transform="translate(32.787 15.502)" fill="#004497"/>
        <path id="패스_21666" data-name="패스 21666" d="M163.492,428.635a1.352,1.352,0,0,1-.772-.241l-12.9-8.871a1.362,1.362,0,0,1,1.543-2.246l12.9,8.871a1.364,1.364,0,0,1-.774,2.487" transform="translate(32.788 15.502)" fill="#004497"/>
        <path id="패스_21667" data-name="패스 21667" d="M153.669,432.777a1.363,1.363,0,0,1-1.363-1.363V417.1a1.363,1.363,0,0,1,2.726,0v14.31a1.363,1.363,0,0,1-1.363,1.363" transform="translate(36.161 14.079)" fill="#004497"/>
        <path id="패스_21668" data-name="패스 21668" d="M129.6,430.474a1.257,1.257,0,0,1-.713-2.294l10.125-6.965a1.258,1.258,0,0,1,1.426,2.074l-10.127,6.965a1.251,1.251,0,0,1-.711.22" transform="translate(9.881 19.838)" fill="#004497"/>
        <path id="패스_21669" data-name="패스 21669" d="M139.728,430.473a1.251,1.251,0,0,1-.711-.22l-10.127-6.965a1.258,1.258,0,0,1,1.426-2.074l10.125,6.965a1.257,1.257,0,0,1-.713,2.294" transform="translate(9.882 19.839)" fill="#004497"/>
        <path id="패스_21670" data-name="패스 21670" d="M132.017,433.724a1.258,1.258,0,0,1-1.258-1.258V421.233a1.258,1.258,0,0,1,2.516,0v11.232a1.258,1.258,0,0,1-1.258,1.258" transform="translate(12.529 18.723)" fill="#004497"/>
        <path id="패스_21671" data-name="패스 21671" d="M135.966,420.163a1.048,1.048,0,0,1-.6-1.912l7.362-5.059a1.047,1.047,0,0,1,1.185,1.728l-7.358,5.06a1.031,1.031,0,0,1-.591.185" transform="translate(17.089 11.081)" fill="#004497"/>
        <path id="패스_21672" data-name="패스 21672" d="M143.322,420.163a1.037,1.037,0,0,1-.593-.185l-7.358-5.06a1.048,1.048,0,1,1,1.187-1.728l7.36,5.059a1.048,1.048,0,0,1-.6,1.912" transform="translate(17.089 11.081)" fill="#004497"/>
        <path id="패스_21673" data-name="패스 21673" d="M137.719,422.525a1.049,1.049,0,0,1-1.048-1.048v-8.161a1.048,1.048,0,0,1,2.1,0v8.161a1.049,1.049,0,0,1-1.048,1.048" transform="translate(19.013 10.27)" fill="#004497"/>
        <path id="패스_21674" data-name="패스 21674" d="M147.24,450.609a1.226,1.226,0,0,1-.155-.008c-6.548-.627-10.614-4.718-10.614-10.677,0-11.557,9.8-22.006,10.209-22.446a2.955,2.955,0,0,1,2.325-.983,3.137,3.137,0,0,1,2.288,1.063c.419.476,10.213,11.7,10.213,22.366,0,5.693-3.869,9.76-10.1,10.614a1.619,1.619,0,0,1-.438-3.208c2.2-.3,7.3-1.623,7.3-7.406,0-9.431-9.308-20.116-9.4-20.221.073.1-9.154,9.968-9.154,20.221,0,6.064,5.37,7.234,7.678,7.454a1.619,1.619,0,0,1-.149,3.231" transform="translate(18.794 14.898)" fill="#004497"/>
        <path id="패스_21675" data-name="패스 21675" d="M143.92,441.542a1.591,1.591,0,0,1-.459-.067,5.422,5.422,0,0,1-3.967-5.29c0-5.11,3.73-10.054,3.889-10.262a2.94,2.94,0,0,1,2.311-1.168A2.843,2.843,0,0,1,147.952,426c.155.214,3.9,5.464,3.9,10.188a5.343,5.343,0,0,1-3.422,5.2,1.619,1.619,0,1,1-1.124-3.036,2.131,2.131,0,0,0,1.306-2.164c0-2.755-1.925-6.246-2.979-7.842-.816,1.2-2.906,4.6-2.906,7.842a2.166,2.166,0,0,0,1.648,2.185,1.62,1.62,0,0,1-.459,3.172" transform="translate(22.11 23.965)" fill="#004497"/>
        <path id="패스_21676" data-name="패스 21676" d="M166.512,440.632H150.546a1.573,1.573,0,1,1,0-3.145h15.967a1.573,1.573,0,1,1,0,3.145" transform="translate(32.506 37.929)" fill="#004497"/>
        <path id="패스_21677" data-name="패스 21677" d="M152.158,441.845a1.573,1.573,0,0,1-1.573-1.573v-3.929a1.573,1.573,0,1,1,3.145,0v3.929a1.574,1.574,0,0,1-1.573,1.573" transform="translate(34.274 34.951)" fill="#004497"/>
        <path id="패스_21678" data-name="패스 21678" d="M156.553,441.637a1.573,1.573,0,0,1-1.573-1.573v-3.716a1.573,1.573,0,1,1,3.145,0v3.716a1.573,1.573,0,0,1-1.573,1.573" transform="translate(39.094 34.956)" fill="#004497"/>
        <path id="패스_21679" data-name="패스 21679" d="M144.332,440.632H128.368a1.573,1.573,0,1,1,0-3.145h15.965a1.573,1.573,0,1,1,0,3.145" transform="translate(8.182 37.929)" fill="#004497"/>
        <path id="패스_21680" data-name="패스 21680" d="M129.979,441.845a1.573,1.573,0,0,1-1.573-1.573v-3.929a1.573,1.573,0,0,1,3.145,0v3.929a1.573,1.573,0,0,1-1.573,1.573" transform="translate(9.949 34.951)" fill="#004497"/>
        <path id="패스_21681" data-name="패스 21681" d="M134.375,441.637a1.573,1.573,0,0,1-1.573-1.573v-3.716a1.573,1.573,0,0,1,3.145,0v3.716a1.573,1.573,0,0,1-1.573,1.573" transform="translate(14.77 34.956)" fill="#004497"/>
        <path id="패스_21682" data-name="패스 21682" d="M141.775,412.122a1.573,1.573,0,0,1-1.573-1.573v-2.833a1.573,1.573,0,0,1,3.145,0v2.833a1.573,1.573,0,0,1-1.573,1.573" transform="translate(22.886 3.554)" fill="#004497"/>
        <path id="패스_21683" data-name="패스 21683" d="M144.754,412.122a1.573,1.573,0,0,1-1.573-1.573v-2.833a1.573,1.573,0,0,1,3.145,0v2.833a1.573,1.573,0,0,1-1.573,1.573" transform="translate(26.153 3.554)" fill="#004497"/>
        <path id="패스_21684" data-name="패스 21684" d="M124.968,419.656a1.573,1.573,0,0,1-1.573-1.573v-5.819a1.573,1.573,0,0,1,3.145,0v5.819a1.573,1.573,0,0,1-1.573,1.573" transform="translate(4.453 8.542)" fill="#004497"/>
        <path id="패스_21685" data-name="패스 21685" d="M124.968,452.2a1.573,1.573,0,0,1-1.573-1.573V417.283a1.573,1.573,0,1,1,3.145,0v33.343a1.573,1.573,0,0,1-1.573,1.573" transform="translate(4.453 14.045)" fill="#004497"/>
        <path id="패스_21686" data-name="패스 21686" d="M161.56,419.656a1.573,1.573,0,0,1-1.573-1.573v-5.819a1.573,1.573,0,0,1,3.145,0v5.819a1.573,1.573,0,0,1-1.573,1.573" transform="translate(44.586 8.542)" fill="#004497"/>
        <path id="패스_21687" data-name="패스 21687" d="M161.56,452.2a1.573,1.573,0,0,1-1.573-1.573V417.283a1.573,1.573,0,1,1,3.145,0v33.343a1.573,1.573,0,0,1-1.573,1.573" transform="translate(44.586 14.045)" fill="#004497"/>
        <path id="패스_21688" data-name="패스 21688" d="M204.248,467.21H131.32a12,12,0,0,1-11.985-11.985v-35.4a12,12,0,0,1,11.985-11.983h72.928a12,12,0,0,1,11.985,11.983v35.4a12,12,0,0,1-11.985,11.985M131.32,410.987a8.849,8.849,0,0,0-8.84,8.838v35.4a8.851,8.851,0,0,0,8.84,8.84h72.928a8.852,8.852,0,0,0,8.84-8.84v-35.4a8.85,8.85,0,0,0-8.84-8.838Z" transform="translate(0 5.416)" fill="#004497"/>
        <path id="패스_21689" data-name="패스 21689" d="M156.887,412.327H139.669a2.554,2.554,0,0,1-2.55-2.552v-4.321a2.553,2.553,0,0,1,2.55-2.55h17.219a2.553,2.553,0,0,1,2.552,2.55v4.321a2.555,2.555,0,0,1-2.552,2.552m-16.623-3.145h16.03v-3.133h-16.03Z" transform="translate(19.505 0)" fill="#004497"/>
      </g>
    </g>
    <g id="그룹_12613" data-name="그룹 12613">
      <rect id="사각형_49266" data-name="사각형 49266" width="98" height="97" transform="translate(171 2838)" fill="none"/>
      <g id="그룹_12604" data-name="그룹 12604" transform="translate(-326.816 2438.458)">
        <path id="패스_21690" data-name="패스 21690" d="M572.779,432.923h-71.8a1.695,1.695,0,0,1,0-3.389h71.8a1.695,1.695,0,1,1,0,3.389" transform="translate(0.589 37.778)" fill="#004497"/>
        <path id="패스_21691" data-name="패스 21691" d="M555.271,405.073h-38.4a1.695,1.695,0,0,1,0-3.389h38.4a1.695,1.695,0,0,1,0,3.389" transform="translate(20.602 2.698)" fill="#004497"/>
        <path id="패스_21692" data-name="패스 21692" d="M549.445,415.286h-18.29a1.695,1.695,0,0,1,0-3.389h18.29a1.695,1.695,0,0,1,0,3.389" transform="translate(38.602 15.563)" fill="#004497"/>
        <path id="패스_21693" data-name="패스 21693" d="M547.492,426.548H532.883a1.695,1.695,0,1,1,0-3.389h14.609a1.695,1.695,0,1,1,0,3.389" transform="translate(40.777 29.749)" fill="#004497"/>
        <path id="패스_21694" data-name="패스 21694" d="M533.915,413.373a1.7,1.7,0,0,1-1.695-1.695V401.237a1.695,1.695,0,1,1,3.389,0v10.442a1.7,1.7,0,0,1-1.695,1.695" transform="translate(42.077 0)" fill="#004497"/>
        <path id="패스_21695" data-name="패스 21695" d="M506.828,429.857h-5.85a1.695,1.695,0,1,1,0-3.389h5.85a1.695,1.695,0,1,1,0,3.389" transform="translate(0.588 33.916)" fill="#004497"/>
        <path id="패스_21696" data-name="패스 21696" d="M542.378,429.857h-36.29a1.695,1.695,0,1,1,0-3.389h36.29a1.695,1.695,0,0,1,0,3.389" transform="translate(7.025 33.916)" fill="#004497"/>
        <path id="패스_21697" data-name="패스 21697" d="M553.293,489.39A1.7,1.7,0,0,1,551.6,487.7V418.846a10.748,10.748,0,1,0-21.5,0v6.291a1.695,1.695,0,0,1-3.39,0v-6.291a14.138,14.138,0,1,1,28.275,0V487.7a1.7,1.7,0,0,1-1.695,1.695" transform="translate(35.141 6.506)" fill="#004497"/>
        <path id="패스_21698" data-name="패스 21698" d="M533.728,474.062A31.909,31.909,0,1,1,565.4,446.121a1.7,1.7,0,0,1-3.365-.42,28.533,28.533,0,1,0-9.843,18.208,1.7,1.7,0,1,1,2.2,2.581,31.825,31.825,0,0,1-20.662,7.572" transform="translate(3.751 13.462)" fill="#004497"/>
        <path id="패스_21699" data-name="패스 21699" d="M514.653,456.235V431.743a2.23,2.23,0,0,1,2.35-2.086h1.028a2.231,2.231,0,0,1,2.352,2.086l-.014,24.9" transform="translate(19.949 37.934)" fill="#fff"/>
        <path id="패스_21700" data-name="패스 21700" d="M523.008,457.584h-3.389l.016-24.9c0-.156-.262-.391-.658-.391h-1.028c-.4,0-.655.235-.655.391V457.18H513.9V432.687a3.923,3.923,0,0,1,4.045-3.78h1.028a3.927,3.927,0,0,1,4.047,3.78Z" transform="translate(19.005 36.99)" fill="#004497"/>
        <path id="패스_21701" data-name="패스 21701" d="M502.5,451.329V431.743a2.23,2.23,0,0,1,2.35-2.086h1.028a2.23,2.23,0,0,1,2.352,2.086v24.438" transform="translate(4.638 37.934)" fill="#fff"/>
        <path id="패스_21702" data-name="패스 21702" d="M509.173,458.82a1.7,1.7,0,0,1-1.695-1.695V432.69c0-.158-.26-.393-.655-.393H505.8c-.4,0-.658.235-.658.393v19.587a1.695,1.695,0,1,1-3.39,0V432.69a3.927,3.927,0,0,1,4.047-3.783h1.028a3.925,3.925,0,0,1,4.045,3.783v24.436a1.7,1.7,0,0,1-1.695,1.695" transform="translate(3.693 36.99)" fill="#004497"/>
        <path id="패스_21703" data-name="패스 21703" d="M526.864,456.164v-24.42a2.23,2.23,0,0,1,2.35-2.088h1.028a2.232,2.232,0,0,1,2.35,2.088v24.463" transform="translate(35.331 37.933)" fill="#fff"/>
        <path id="패스_21704" data-name="패스 21704" d="M533.538,458.847a1.7,1.7,0,0,1-1.695-1.695V432.69c0-.158-.26-.393-.655-.393H530.16c-.4,0-.658.235-.658.393v24.418a1.695,1.695,0,1,1-3.389,0V432.69a3.927,3.927,0,0,1,4.047-3.783h1.028a3.925,3.925,0,0,1,4.045,3.783v24.463a1.7,1.7,0,0,1-1.695,1.695" transform="translate(34.385 36.99)" fill="#004497"/>
        <path id="패스_21705" data-name="패스 21705" d="M516.866,417.836a1.7,1.7,0,0,1-1.695-1.695V403.379a1.695,1.695,0,1,1,3.389,0v12.763a1.7,1.7,0,0,1-1.695,1.695" transform="translate(20.602 2.698)" fill="#004497"/>
        <path id="패스_21706" data-name="패스 21706" d="M527.054,416.958H512.362l-.12-1.814v-7.511l1.815-.12h14.692l.12,1.814v7.511Zm-11.422-3.389h9.845V410.9h-9.845Z" transform="translate(16.912 10.041)" fill="#004497"/>
        <path id="패스_21707" data-name="패스 21707" d="M593.1,444.207H500.511a1.695,1.695,0,0,1,0-3.389H593.1a1.695,1.695,0,0,1,0,3.389" transform="translate(0 51.992)" fill="#004497"/>
        <path id="패스_21708" data-name="패스 21708" d="M513.123,433.166a1.7,1.7,0,0,1-1.695-1.695v-11.2a1.695,1.695,0,1,1,3.389,0v11.2a1.7,1.7,0,0,1-1.695,1.695" transform="translate(15.887 23.972)" fill="#004497"/>
        <path id="패스_21709" data-name="패스 21709" d="M509.864,433.13a1.7,1.7,0,0,1-1.695-1.695v-11.2a1.695,1.695,0,1,1,3.39,0v11.2a1.7,1.7,0,0,1-1.695,1.695" transform="translate(11.782 23.927)" fill="#004497"/>
        <path id="패스_21710" data-name="패스 21710" d="M517.228,424.406h-7.364a1.695,1.695,0,1,1,0-3.389h7.364a1.695,1.695,0,1,1,0,3.389" transform="translate(11.782 27.05)" fill="#004497"/>
        <path id="패스_21711" data-name="패스 21711" d="M521.113,427.314a1.693,1.693,0,0,1-1.5-2.481c.095-.188.843-1.76-.294-2.66a1.716,1.716,0,0,0-1.5-.145,1.805,1.805,0,0,0-1.15,1.387,1.7,1.7,0,0,1-3.295-.813,5.2,5.2,0,0,1,3.331-3.774,5.106,5.106,0,0,1,4.7.673c2.718,2.158,1.973,5.464,1.2,6.915a1.7,1.7,0,0,1-1.5.9" transform="translate(18.279 23.929)" fill="#004497"/>
        <path id="패스_21712" data-name="패스 21712" d="M515.021,430.029a1.695,1.695,0,0,1-1.354-2.712,3.688,3.688,0,0,1,.825-.725c3.695-2.843,4.813-4.137,5.1-4.72a1.7,1.7,0,0,1,3.046,1.491c-.861,1.756-3.554,3.977-6.076,5.916l-.384.3a1.691,1.691,0,0,1-1.155.452" transform="translate(18.28 26.931)" fill="#004497"/>
        <path id="패스_21713" data-name="패스 21713" d="M521.787,426.921h-6.77a1.695,1.695,0,1,1,0-3.389h6.77a1.695,1.695,0,0,1,0,3.389" transform="translate(18.273 30.218)" fill="#004497"/>
      </g>
    </g>
    <g id="그룹_12612" data-name="그룹 12612" transform="translate(1)">
      <rect id="사각형_49267" data-name="사각형 49267" width="98" height="97" transform="translate(300 2838)" fill="none"/>
      <g id="그룹_12605" data-name="그룹 12605" transform="translate(-44.892 2439.939)">
        <path id="패스_21714" data-name="패스 21714" d="M385.735,450.583a34.1,34.1,0,0,1-23.165-9.042,1.63,1.63,0,1,1,2.207-2.4,30.934,30.934,0,0,0,44.23-2.372,1.63,1.63,0,1,1,2.453,2.146,34.209,34.209,0,0,1-25.725,11.666" transform="translate(9.558 43.565)" fill="#004497"/>
        <path id="패스_21715" data-name="패스 21715" d="M390.42,435.326a1.629,1.629,0,0,1-1.625-1.54,36.045,36.045,0,0,0-2.876-10.845,1.628,1.628,0,1,1,3.02-1.217,39.1,39.1,0,0,1,3.111,11.884,1.631,1.631,0,0,1-1.538,1.716c-.03,0-.059,0-.091,0" transform="translate(37.411 25.376)" fill="#004497"/>
        <path id="패스_21716" data-name="패스 21716" d="M358.89,463.446a1.63,1.63,0,0,1-1.625-1.534c-.039-.647-.054-1.3-.054-1.953,0-16.25,24.436-49.857,31.925-59.77a2.826,2.826,0,0,1,2.266-1.128,2.759,2.759,0,0,1,2.266,1.13c2.787,3.687,10.017,13.467,16.943,24.584a1.63,1.63,0,0,1-2.768,1.723c-6.594-10.584-13.47-19.95-16.442-23.9-5.9,7.849-30.932,42.038-30.932,57.361,0,.591.015,1.18.05,1.762a1.632,1.632,0,0,1-1.532,1.723c-.033,0-.065,0-.1,0" transform="translate(3.891)" fill="#004497"/>
        <path id="패스_21717" data-name="패스 21717" d="M367.969,445.529a8.486,8.486,0,1,1,2.131-11.81,8.486,8.486,0,0,1-2.131,11.81" transform="translate(0.881 36.362)" fill="#fff"/>
        <path id="패스_21718" data-name="패스 21718" d="M364.024,449.551a10.109,10.109,0,1,1,5.753-1.8,10.117,10.117,0,0,1-5.753,1.8m4.823-3.141h0ZM364,432.582a6.885,6.885,0,1,0,1.23.111,6.922,6.922,0,0,0-1.23-.111" transform="translate(0 35.483)" fill="#004497"/>
        <line id="선_3605" data-name="선 3605" y1="5.633" x2="8.062" transform="translate(369.33 465.748)" fill="#fff"/>
        <path id="패스_21719" data-name="패스 21719" d="M361.88,437.9a1.629,1.629,0,0,1-.936-2.963l8.062-5.635a1.629,1.629,0,0,1,1.868,2.67l-8.062,5.633a1.617,1.617,0,0,1-.932.3" transform="translate(7.452 35.112)" fill="#004497"/>
        <path id="패스_21720" data-name="패스 21720" d="M392.643,428.234a8.486,8.486,0,1,1,2.131-11.81,8.486,8.486,0,0,1-2.131,11.81" transform="translate(29.811 16.084)" fill="#fff"/>
        <path id="패스_21721" data-name="패스 21721" d="M388.708,432.259a10.12,10.12,0,1,1,5.744-1.81,10.087,10.087,0,0,1-5.744,1.81m-.033-16.972a6.854,6.854,0,1,0,5.642,2.944,6.825,6.825,0,0,0-5.642-2.944" transform="translate(28.931 15.207)" fill="#004497"/>
        <path id="패스_21722" data-name="패스 21722" d="M394.247,442.311a7.857,7.857,0,1,1,1.973-10.934,7.858,7.858,0,0,1-1.973,10.934" transform="translate(32.85 33.932)" fill="#fff"/>
        <path id="패스_21723" data-name="패스 21723" d="M390.664,446.226a9.494,9.494,0,1,1,5.39-1.7,9.468,9.468,0,0,1-5.39,1.7m-.028-15.714a6.225,6.225,0,1,0,5.121,2.672,6.177,6.177,0,0,0-5.121-2.672" transform="translate(31.972 33.05)" fill="#004497"/>
        <path id="패스_21724" data-name="패스 21724" d="M394.791,425.095q.336.492.663,1.045a17.2,17.2,0,0,1,2.079,4.932,19.844,19.844,0,0,1,.408,5.3,17.663,17.663,0,1,1-7.906-16.059c.1.065.637.422,1.193.86" transform="translate(10.259 21.508)" fill="#fff"/>
        <path id="패스_21725" data-name="패스 21725" d="M381.225,455.261q-.72,0-1.443-.052a19.3,19.3,0,1,1,12.029-35.377c.1.065.693.461,1.306.941a1.629,1.629,0,1,1-2.016,2.559c-.5-.393-.988-.717-1.078-.773a16.045,16.045,0,1,0,7.174,14.573,18.368,18.368,0,0,0-.365-4.782l0-.017a15.745,15.745,0,0,0-1.894-4.484c-.2-.339-.406-.658-.61-.96a1.629,1.629,0,0,1,2.7-1.829q.362.531.719,1.13A18.768,18.768,0,0,1,400,431.57l-.033.007a20.918,20.918,0,0,1,.482,5.794,19.308,19.308,0,0,1-19.222,17.891" transform="translate(9.378 20.629)" fill="#004497"/>
        <path id="패스_21726" data-name="패스 21726" d="M380.644,425.258a9.711,9.711,0,0,1-8.762,12.483" transform="translate(21.093 30.717)" fill="#fff"/>
        <path id="패스_21727" data-name="패스 21727" d="M372.76,440.25a1.629,1.629,0,0,1-.085-3.257,8.073,8.073,0,0,0,7.617-8.488,8.178,8.178,0,0,0-.33-1.9,1.629,1.629,0,0,1,3.12-.939,11.328,11.328,0,0,1-10.232,14.578c-.03,0-.059,0-.089,0" transform="translate(20.215 29.835)" fill="#004497"/>
        <line id="선_3606" data-name="선 3606" x1="9.351" y2="6.924" transform="translate(401.22 442.27)" fill="#fff"/>
        <path id="패스_21728" data-name="패스 21728" d="M376.559,428.382a1.629,1.629,0,0,1-.971-2.939l9.351-6.924a1.631,1.631,0,0,1,1.94,2.622l-9.353,6.922a1.622,1.622,0,0,1-.967.319" transform="translate(24.663 22.44)" fill="#004497"/>
        <line id="선_3607" data-name="선 3607" x1="9.687" y1="4.447" transform="translate(407.556 462.917)" fill="#fff"/>
        <path id="패스_21729" data-name="패스 21729" d="M389.162,435.409a1.59,1.59,0,0,1-.678-.148l-9.689-4.447a1.63,1.63,0,1,1,1.358-2.963l9.687,4.447a1.629,1.629,0,0,1-.678,3.111" transform="translate(28.082 33.584)" fill="#004497"/>
      </g>
    </g>
    <g id="그룹_12609" data-name="그룹 12609">
      <rect id="사각형_49269" data-name="사각형 49269" width="98" height="97" transform="translate(41 2967)" fill="none"/>
      <g id="그룹_12606" data-name="그룹 12606" transform="translate(-378.763 2568.69)">
        <path id="패스_21730" data-name="패스 21730" d="M432.889,460.3a1.834,1.834,0,0,1-.189-.011,1.649,1.649,0,0,1-1.451-1.825c1.962-17.128,25.128-48.926,32.181-58.266a2.861,2.861,0,0,1,2.294-1.141h0a2.852,2.852,0,0,1,2.289,1.143,346.819,346.819,0,0,1,19.877,29.368,1.649,1.649,0,1,1-2.835,1.684,342.317,342.317,0,0,0-19.336-28.616c-5.621,7.477-29.322,39.838-31.2,56.2a1.649,1.649,0,0,1-1.636,1.462" transform="translate(2.967)" fill="#004497"/>
        <path id="패스_21731" data-name="패스 21731" d="M462.6,456.646a34.637,34.637,0,0,1-28.464-14.92,1.648,1.648,0,1,1,2.709-1.878,31.322,31.322,0,0,0,55.308-7.437,1.65,1.65,0,1,1,3.114,1.091A34.655,34.655,0,0,1,462.6,456.646" transform="translate(6.089 38.664)" fill="#004497"/>
        <path id="패스_21732" data-name="패스 21732" d="M441.659,437.974a6.552,6.552,0,1,1-2.177-9.007,6.555,6.555,0,0,1,2.177,9.007" transform="translate(0.901 34.708)" fill="#fff"/>
        <path id="패스_21733" data-name="패스 21733" d="M436.952,443.658a8.2,8.2,0,1,1,7.015-3.925v0a8.209,8.209,0,0,1-7.015,3.923m.022-13.1a4.969,4.969,0,0,0-1.159.139,4.879,4.879,0,1,0,1.159-.139" transform="translate(0 33.807)" fill="#004497"/>
        <line id="선_3608" data-name="선 3608" y1="4.284" x2="6.269" transform="translate(441.097 462.361)" fill="#fff"/>
        <path id="패스_21734" data-name="패스 21734" d="M435.273,434.68a1.649,1.649,0,0,1-.932-3.01l6.272-4.284a1.648,1.648,0,1,1,1.858,2.722l-6.269,4.284a1.626,1.626,0,0,1-.928.288" transform="translate(5.826 33.615)" fill="#004497"/>
        <path id="패스_21735" data-name="패스 21735" d="M457.565,421.064a6.552,6.552,0,1,1-2.177-9.007,6.555,6.555,0,0,1,2.177,9.007" transform="translate(19.973 14.432)" fill="#fff"/>
        <path id="패스_21736" data-name="패스 21736" d="M452.858,426.754a8.23,8.23,0,1,1,1.942-.233,8.236,8.236,0,0,1-1.942.233m.024-13.106a4.9,4.9,0,0,0-2.564,9.084,4.9,4.9,0,0,0,6.74-1.627,4.9,4.9,0,0,0-4.176-7.457" transform="translate(19.072 13.532)" fill="#004497"/>
        <path id="패스_21737" data-name="패스 21737" d="M471.026,434.242a6.552,6.552,0,1,1-2.177-9.007,6.555,6.555,0,0,1,2.177,9.007" transform="translate(36.113 30.233)" fill="#fff"/>
        <path id="패스_21738" data-name="패스 21738" d="M466.319,439.927A8.2,8.2,0,1,1,473.332,436a8.127,8.127,0,0,1-7.013,3.925m.022-13.1a4.969,4.969,0,0,0-1.159.139,4.9,4.9,0,1,0,5.335,7.323v0a4.905,4.905,0,0,0-4.176-7.459" transform="translate(35.212 29.333)" fill="#004497"/>
        <path id="패스_21739" data-name="패스 21739" d="M460.024,441.31a6.552,6.552,0,1,1-2.177-9.007,6.555,6.555,0,0,1,2.177,9.007" transform="translate(22.921 38.708)" fill="#fff"/>
        <path id="패스_21740" data-name="패스 21740" d="M455.313,447a8.232,8.232,0,1,1,1.942-.233,8.148,8.148,0,0,1-1.942.233m.024-13.108a4.968,4.968,0,0,0-1.159.138,4.88,4.88,0,1,0,1.159-.138" transform="translate(22.024 37.807)" fill="#004497"/>
        <path id="패스_21741" data-name="패스 21741" d="M469.347,429.186a9.038,9.038,0,1,1-3-12.422,9.036,9.036,0,0,1,3,12.422" transform="translate(28.577 19.638)" fill="#fff"/>
        <path id="패스_21742" data-name="패스 21742" d="M462.518,436.06a10.683,10.683,0,1,1,9.139-5.113v0a10.694,10.694,0,0,1-9.139,5.111m.033-18.074a7.417,7.417,0,0,0-1.75.211,7.389,7.389,0,0,0-2.115,13.487,7.388,7.388,0,1,0,7.7-12.611,7.326,7.326,0,0,0-3.835-1.086" transform="translate(27.677 18.737)" fill="#004497"/>
        <path id="패스_21743" data-name="패스 21743" d="M457.9,419.957a14.079,14.079,0,0,1,3.417,2.753,16.256,16.256,0,0,1,2.355,3.67,14.483,14.483,0,1,1-11.95-8.523c.095.009.622.057,1.2.158" transform="translate(8.616 22.47)" fill="#fff"/>
        <path id="패스_21744" data-name="패스 21744" d="M451.354,449.346a16.148,16.148,0,1,1,1.421-32.233c.108.011.7.066,1.337.176a1.651,1.651,0,0,1,1.335,1.913,1.633,1.633,0,0,1-1.911,1.337c-.5-.09-.974-.132-1.058-.141a12.846,12.846,0,1,0,10.595,7.554,14.767,14.767,0,0,0-2.085-3.25,12.318,12.318,0,0,0-3.035-2.432,1.65,1.65,0,0,1,1.7-2.826,15.618,15.618,0,0,1,3.793,3.063,18.107,18.107,0,0,1,2.632,4.1,16.159,16.159,0,0,1-14.729,22.74" transform="translate(7.714 21.572)" fill="#004497"/>
        <path id="패스_21745" data-name="패스 21745" d="M450.682,424.208a8.061,8.061,0,0,1,.306,1.871,7.949,7.949,0,0,1-7.6,8.29" transform="translate(17.54 30.153)" fill="#fff"/>
        <path id="패스_21746" data-name="패스 21746" d="M444.289,436.918a1.649,1.649,0,0,1-.068-3.3,6.311,6.311,0,0,0,6.019-6.571,6.416,6.416,0,0,0-.242-1.489,1.649,1.649,0,1,1,3.169-.91,9.613,9.613,0,0,1-8.8,12.264c-.024,0-.046,0-.073,0" transform="translate(16.641 29.252)" fill="#004497"/>
        <line id="선_3609" data-name="선 3609" x1="4.042" y2="6.665" transform="translate(464.463 437.755)" fill="#fff"/>
        <path id="패스_21747" data-name="패스 21747" d="M445.894,425.87a1.651,1.651,0,0,1-1.41-2.5l4.042-6.665a1.649,1.649,0,0,1,2.821,1.709l-4.04,6.667a1.651,1.651,0,0,1-1.414.794" transform="translate(18.565 20.199)" fill="#004497"/>
        <line id="선_3610" data-name="선 3610" x1="4.691" y1="5.973" transform="translate(469.782 467.013)" fill="#fff"/>
        <path id="패스_21748" data-name="패스 21748" d="M453.01,438.48a1.658,1.658,0,0,1-1.3-.629l-4.693-5.97a1.651,1.651,0,0,1,2.595-2.041l4.693,5.97a1.649,1.649,0,0,1-1.3,2.67" transform="translate(21.466 36.154)" fill="#004497"/>
        <line id="선_3611" data-name="선 3611" x1="3.461" y1="5.777" transform="translate(496.177 451.271)" fill="#fff"/>
        <path id="패스_21749" data-name="패스 21749" d="M463.783,431.128a1.654,1.654,0,0,1-1.418-.8l-3.461-5.777a1.65,1.65,0,1,1,2.83-1.7l3.463,5.777a1.648,1.648,0,0,1-1.414,2.5" transform="translate(35.857 27.569)" fill="#004497"/>
        <line id="선_3612" data-name="선 3612" x1="11.477" y2="4.24" transform="translate(473.59 446.084)" fill="#fff"/>
        <path id="패스_21750" data-name="패스 21750" d="M450.046,427.23a1.65,1.65,0,0,1-.572-3.2l11.479-4.237a1.649,1.649,0,1,1,1.141,3.094l-11.477,4.238a1.639,1.639,0,0,1-.572.1" transform="translate(23.542 24.741)" fill="#004497"/>
      </g>
    </g>
    <g id="그룹_12610" data-name="그룹 12610">
      <rect id="사각형_49265" data-name="사각형 49265" width="98" height="97" transform="translate(171 2967)" fill="none"/>
      <g id="그룹_12607" data-name="그룹 12607" transform="translate(-97.302 2568.689)">
        <path id="패스_21751" data-name="패스 21751" d="M315.811,462.514a34.47,34.47,0,0,1-34.427-34.021,1.863,1.863,0,0,1-.035-.468,1.664,1.664,0,0,1,1.715-1.772,1.829,1.829,0,0,1,1.6,1.833,31.151,31.151,0,0,0,57.217,17.052,1.64,1.64,0,1,1,2.743,1.8,34.348,34.348,0,0,1-28.812,15.578" transform="translate(1.24 32.291)" fill="#004497"/>
        <path id="패스_21752" data-name="패스 21752" d="M331.348,434.14a1.633,1.633,0,0,1-1.422-.82,331.031,331.031,0,0,0-20.541-30.7c-2.951,3.927-11.539,15.591-18.883,27.88l-.842,1.4-1.5-.689-1.407-.836,1.754-2.966.015.007c7.357-12.11,15.378-22.991,18.577-27.226a2.84,2.84,0,0,1,2.282-1.135h0a2.833,2.833,0,0,1,2.279,1.135,336.238,336.238,0,0,1,21.1,31.483,1.639,1.639,0,0,1-1.418,2.461" transform="translate(7.666 0)" fill="#004497"/>
        <path id="패스_21753" data-name="패스 21753" d="M281.689,415.881s12.841-3.049,20.138,4.248,2.494,18.384,2.494,18.384-11.086,4.8-18.384-2.494-4.248-20.138-4.248-20.138" transform="translate(0.897 19.224)" fill="#fff"/>
        <path id="패스_21754" data-name="패스 21754" d="M297.186,442.622a15.782,15.782,0,0,1-11.511-4.544c-7.855-7.855-4.819-21.118-4.686-21.679l.234-.984.984-.232c.56-.136,13.821-3.174,21.676,4.684,8,7.993,3.054,19.7,2.839,20.2l-.258.595-.595.26a23.894,23.894,0,0,1-8.685,1.7m-13.2-24.441c-.494,3.045-1.418,12.156,4,17.577,5.482,5.478,13.648,3.183,15.952,2.38.8-2.3,3.1-10.47-2.38-15.949-5.44-5.438-14.532-4.5-17.575-4.008" transform="translate(0 18.327)" fill="#004497"/>
        <line id="선_3613" data-name="선 3613" x2="17.089" y2="17.089" transform="translate(292.378 444.897)" fill="#fff"/>
        <path id="패스_21755" data-name="패스 21755" d="M303.8,439.634a1.627,1.627,0,0,1-1.159-.481l-17.089-17.089a1.64,1.64,0,1,1,2.319-2.319l17.089,17.089a1.641,1.641,0,0,1-1.159,2.8" transform="translate(5.665 23.992)" fill="#004497"/>
        <path id="패스_21756" data-name="패스 21756" d="M335.235,417.519s5.176,21.8-7.21,34.18-31.2,4.233-31.2,4.233-8.153-18.815,4.233-31.2,34.178-7.212,34.178-7.212" transform="translate(16.494 20.647)" fill="#fff"/>
        <path id="패스_21757" data-name="패스 21757" d="M311.353,461.149a39.282,39.282,0,0,1-14.269-2.807l-.6-.26-.258-.6c-.35-.809-8.446-19.99,4.576-33.012,12.887-12.885,34.795-7.866,35.718-7.645l.987.232.232.984c.221.925,5.237,22.831-7.648,35.718a25.708,25.708,0,0,1-18.743,7.385M299,455.568c3.24,1.2,18.546,6.1,28.773-4.126,10.111-10.111,7.77-27.29,6.98-31.625-4.336-.79-21.517-3.13-31.627,6.978C292.9,437.02,297.8,452.329,299,455.568" transform="translate(15.583 19.741)" fill="#004497"/>
        <line id="선_3614" data-name="선 3614" x1="29.005" y2="29.005" transform="translate(306.106 454.785)" fill="#fff"/>
        <path id="패스_21758" data-name="패스 21758" d="M292.988,456.07a1.641,1.641,0,0,1-1.159-2.8l29-29a1.64,1.64,0,0,1,2.321,2.319l-29,29a1.628,1.628,0,0,1-1.159.481" transform="translate(13.118 29.36)" fill="#004497"/>
      </g>
    </g>
    <g id="그룹_12611" data-name="그룹 12611" transform="translate(1 1)">
      <rect id="사각형_49264" data-name="사각형 49264" width="98" height="97" transform="translate(300 2966)" fill="none"/>
      <g id="그룹_12608" data-name="그룹 12608" transform="translate(259.014 2566.47)">
        <path id="패스_21759" data-name="패스 21759" d="M66.649,410.517a1.712,1.712,0,0,1-1.712-1.712v-4.85H60.089a1.712,1.712,0,1,1,0-3.424h6.56a1.712,1.712,0,0,1,1.712,1.712V408.8a1.712,1.712,0,0,1-1.712,1.712" transform="translate(5.852 0)" fill="#004497"/>
        <path id="패스_21760" data-name="패스 21760" d="M119.449,438.61H55.736a1.75,1.75,0,1,1,0-3.5h63.713a1.75,1.75,0,1,1,0,3.5" transform="translate(0 46.089)" fill="#004497"/>
        <path id="패스_21761" data-name="패스 21761" d="M119.449,407.027H55.736a1.75,1.75,0,0,1,0-3.5h63.713a1.75,1.75,0,0,1,0,3.5" transform="translate(0 3.996)" fill="#004497"/>
        <path id="패스_21762" data-name="패스 21762" d="M64.187,417.555H55.736a1.75,1.75,0,0,1,0-3.5h8.452a1.75,1.75,0,1,1,0,3.5" transform="translate(0 18.027)" fill="#004497"/>
        <path id="패스_21763" data-name="패스 21763" d="M110.719,417.555H62.286a1.75,1.75,0,0,1,0-3.5h48.433a1.75,1.75,0,0,1,0,3.5" transform="translate(8.73 18.027)" fill="#004497"/>
        <path id="패스_21764" data-name="패스 21764" d="M64.187,428.082H55.736a1.75,1.75,0,0,1,0-3.5h8.452a1.75,1.75,0,1,1,0,3.5" transform="translate(0 32.058)" fill="#004497"/>
        <path id="패스_21765" data-name="패스 21765" d="M110.719,428.082H62.286a1.75,1.75,0,0,1,0-3.5h48.433a1.75,1.75,0,0,1,0,3.5" transform="translate(8.73 32.058)" fill="#004497"/>
        <path id="패스_21766" data-name="패스 21766" d="M106.59,480.7H65.542A10.425,10.425,0,0,1,55.131,470.29V461.44a1.75,1.75,0,1,1,3.5,0v8.851a6.921,6.921,0,0,0,6.912,6.914H106.59a6.922,6.922,0,0,0,6.914-6.914V413.942a6.923,6.923,0,0,0-6.914-6.914H65.542a6.923,6.923,0,0,0-6.912,6.914v39.716a1.75,1.75,0,1,1-3.5,0V413.942a10.425,10.425,0,0,1,10.411-10.414H106.59A10.427,10.427,0,0,1,117,413.942V470.29A10.427,10.427,0,0,1,106.59,480.7" transform="translate(1.526 3.996)" fill="#004497"/>
        <path id="패스_21767" data-name="패스 21767" d="M103.076,453.5c0,7.722-8.19,12.9-15.865,12.9-7.792,0-15.863-4.829-15.863-12.9,0-16.866,15.07-32.962,15.233-33.126a.8.8,0,0,1,.583-.257.855.855,0,0,1,.583.28c.14.187,15.329,17.589,15.329,33.1" transform="translate(23.14 26.109)" fill="#fff"/>
        <path id="패스_21768" data-name="패스 21768" d="M88.146,468.976c8.986,0,17.494-6.1,17.494-14.547,0-16.33-15.742-34.171-15.742-34.171a2.385,2.385,0,0,0-3.574-.065S70.652,436.7,70.652,454.429c0,8.8,8.505,14.547,17.494,14.547" transform="translate(22.212 25.176)" fill="#fff"/>
        <path id="패스_21769" data-name="패스 21769" d="M81.331,444.056a1.633,1.633,0,0,1-.39-3.219,4.307,4.307,0,0,0,2.515-2.7,5.72,5.72,0,0,0,.278-3.961,1.647,1.647,0,0,1,.87-2.13,1.621,1.621,0,0,1,2.123.826,8.713,8.713,0,0,1-.219,6.434,7.549,7.549,0,0,1-4.785,4.7,1.611,1.611,0,0,1-.392.049" transform="translate(34.269 41.828)" fill="#004497"/>
        <path id="패스_21770" data-name="패스 21770" d="M92.063,420.121a4.021,4.021,0,0,0-6-.117c-.653.7-16.12,17.193-16.12,35.365,0,10.124,9.728,16.166,19.129,16.166,10.544,0,19.129-7.255,19.129-16.166,0-16.773-15.49-34.5-16.143-35.248M89.077,468.27c-7.792,0-15.863-4.829-15.863-12.9,0-16.866,15.07-32.962,15.233-33.126a.8.8,0,0,1,.583-.257.854.854,0,0,1,.583.28c.14.187,15.326,17.589,15.326,33.1,0,7.722-8.188,12.9-15.863,12.9" transform="translate(21.274 24.245)" fill="#004497"/>
      </g>
    </g>
  </g>
</svg>
