<svg xmlns="http://www.w3.org/2000/svg" width="154.565" height="41.89"><g id="그룹_9248" data-name="그룹 9248" transform="translate(-970.999 -1212)"><g id="그룹_7332" data-name="그룹 7332" transform="translate(970.999 1212)"><path id="패스_14881" data-name="패스 14881" d="M1656.133 659.552a2.489 2.489 0 01-1.124-.019c-.14-.034-.278-.072-.388-.1-.291-.087-2.974-1.164-3.65-1.257a7.66 7.66 0 00-3.621.221c-1.711.524-6.019 2.55-6.624 8.883a20.661 20.661 0 001.106 8.208 22.917 22.917 0 005.076 8.336 4.32 4.32 0 004.9 1.176 10.274 10.274 0 014.23-1.164 6.5 6.5 0 012.755.582 6.616 6.616 0 003.749.815c1.118-.225 2.5-.815 4.261-3.33a23.4 23.4 0 003.237-6.186 8.315 8.315 0 01-4.277-4.308 8.141 8.141 0 013.3-9.88 8.075 8.075 0 00-4.028-3.074 8.59 8.59 0 00-6.093.093 22.616 22.616 0 01-2.809 1.004z" transform="translate(-1640.675 -649.23)"/><path id="패스_14882" data-name="패스 14882" d="M1727.815 614.338a7.567 7.567 0 011.688-5.35 8.188 8.188 0 015.542-2.992 7 7 0 01-.675 3.865 7.649 7.649 0 01-2.957 3.469 6.184 6.184 0 01-3.598 1.008z" transform="translate(-1713.199 -605.996)"/></g><g id="그룹_7335" data-name="그룹 7335" transform="translate(1012.81 1212.201)"><g id="그룹_7333" data-name="그룹 7333" transform="translate(1.705)"><path id="패스_14883" data-name="패스 14883" d="M1900.311 620.284v-9.876h2.833c3.455 0 5.207 1.622 5.207 4.82a4.867 4.867 0 01-1.453 3.669 5.372 5.372 0 01-3.859 1.387zm2.741-1.468a3.776 3.776 0 002.716-.924 3.5 3.5 0 00.957-2.637c0-2.273-1.18-3.378-3.607-3.378h-1.233v6.94z" transform="translate(-1900.311 -609.87)"/><path id="패스_14884" data-name="패스 14884" d="M1958.512 633.014a3.354 3.354 0 01-2.549-1.015 3.728 3.728 0 01-.953-2.657 3.873 3.873 0 01.991-2.807 3.565 3.565 0 012.668-1.022 3.252 3.252 0 012.519 1 3.909 3.909 0 01.9 2.723 3.85 3.85 0 01-.972 2.735 3.423 3.423 0 01-2.604 1.043zm.079-6.125a1.807 1.807 0 00-1.461.622 2.684 2.684 0 00-.547 1.791 2.525 2.525 0 00.551 1.726 1.832 1.832 0 001.457.609 1.728 1.728 0 001.422-.59 2.722 2.722 0 00.506-1.771 2.772 2.772 0 00-.507-1.792 1.72 1.72 0 00-1.421-.596z" transform="translate(-1945.843 -622.443)"/><path id="패스_14885" data-name="패스 14885" d="M2009.281 633.638l-1.346-4.677-1.457 4.677h-1.424l-2.176-7.187h1.625l1.345 4.886 1.5-4.886h1.338l1.341 4.883 1.316-4.883h1.56l-2.155 7.187z" transform="translate(-1985.687 -623.224)"/><path id="패스_14886" data-name="패스 14886" d="M2076.958 632.856v-4.066c0-1.705-.756-1.9-1.325-1.9a1.457 1.457 0 00-1.157.526 2 2 0 00-.47 1.377v4.066h-1.547v-7.187h1.547v.676a2.61 2.61 0 011.994-.834 2.289 2.289 0 011.868.8 3.408 3.408 0 01.637 2.206v4.341z" transform="translate(-2043.606 -622.443)"/><path id="사각형_10671" data-name="사각형 10671" transform="translate(37.396)" d="M0 0h1.547v10.414H0z"/><path id="패스_14887" data-name="패스 14887" d="M2147.121 633.014a3.354 3.354 0 01-2.549-1.015 3.728 3.728 0 01-.953-2.657 3.873 3.873 0 01.991-2.807 3.565 3.565 0 012.668-1.022 3.251 3.251 0 012.519 1 3.908 3.908 0 01.9 2.723 3.851 3.851 0 01-.972 2.735 3.422 3.422 0 01-2.604 1.043zm.079-6.125a1.806 1.806 0 00-1.461.622 2.684 2.684 0 00-.547 1.791 2.525 2.525 0 00.551 1.726 1.833 1.833 0 001.457.609 1.728 1.728 0 001.422-.59 2.721 2.721 0 00.506-1.771 2.775 2.775 0 00-.507-1.792 1.72 1.72 0 00-1.421-.596z" transform="translate(-2102.84 -622.443)"/><path id="패스_14888" data-name="패스 14888" d="M2195.526 633.014a2.444 2.444 0 01-1.732-.595 2.075 2.075 0 01-.642-1.582c0-.952.42-2.146 2.42-2.424l1.8-.253c-.065-1.135-.677-1.272-1.143-1.272a3.052 3.052 0 00-2.039.771l-.388.328v-1.739l.109-.069a4.409 4.409 0 012.408-.666c1.7 0 2.6.948 2.6 2.741v4.6h-1.547v-.607a2.444 2.444 0 01-1.846.767zm.5-3.334a2.419 2.419 0 00-1.025.33.848.848 0 00-.28.748.793.793 0 00.271.627 1.121 1.121 0 00.778.252 1.486 1.486 0 001.149-.486 1.76 1.76 0 00.458-1.259v-.4z" transform="translate(-2144.071 -622.443)"/><path id="패스_14889" data-name="패스 14889" d="M2240.691 617.77a2.744 2.744 0 01-2.2-.986 3.94 3.94 0 01-.813-2.608 4.269 4.269 0 01.894-2.821 3.007 3.007 0 012.417-1.088 2.469 2.469 0 011.8.667V607.2h1.547v10.414h-1.547v-.693a2.735 2.735 0 01-2.098.849zm.433-6.125a1.62 1.62 0 00-1.362.631 2.951 2.951 0 00-.514 1.849 2.63 2.63 0 00.489 1.685 1.53 1.53 0 001.269.584 1.6 1.6 0 001.281-.568 2.173 2.173 0 00.5-1.485v-.99a1.68 1.68 0 00-.473-1.215 1.564 1.564 0 00-1.19-.491z" transform="translate(-2181.132 -607.199)"/><path id="패스_14890" data-name="패스 14890" d="M2314.537 633.014a3.355 3.355 0 01-2.549-1.015 3.728 3.728 0 01-.953-2.657 3.872 3.872 0 01.992-2.807 3.564 3.564 0 012.667-1.022 3.252 3.252 0 012.519 1 3.908 3.908 0 01.9 2.723 3.848 3.848 0 01-.972 2.735 3.422 3.422 0 01-2.604 1.043zm.079-6.125a1.806 1.806 0 00-1.46.622 2.684 2.684 0 00-.547 1.791 2.524 2.524 0 00.551 1.726 1.831 1.831 0 001.456.609 1.728 1.728 0 001.422-.59 2.721 2.721 0 00.507-1.771 2.771 2.771 0 00-.508-1.792 1.719 1.719 0 00-1.421-.596z" transform="translate(-2242.197 -622.443)"/><path id="패스_14891" data-name="패스 14891" d="M2368.745 632.856v-4.066c0-1.705-.756-1.9-1.325-1.9a1.455 1.455 0 00-1.157.526 2 2 0 00-.47 1.377v4.066h-1.547v-7.187h1.547v.676a2.61 2.61 0 011.994-.834 2.287 2.287 0 011.867.8 3.407 3.407 0 01.637 2.206v4.341z" transform="translate(-2286.489 -622.443)"/><path id="패스_14892" data-name="패스 14892" d="M2437.623 623.475c-.912 0-2-.382-2-2.2v-3.739h-1.154v-1.389h1.154v-1.576l1.547-.5v2.075h1.692v1.389h-1.692v3.549a1.326 1.326 0 00.178.817.7.7 0 00.576.2.892.892 0 00.559-.175l.378-.285v1.531l-.122.067a2.312 2.312 0 01-1.116.236z" transform="translate(-2344.942 -612.918)"/><path id="패스_14893" data-name="패스 14893" d="M2475.155 617.613v-4.105c0-1.67-.756-1.863-1.325-1.863a1.463 1.463 0 00-1.148.527 2.015 2.015 0 00-.479 1.4v4.039h-1.547V607.2h1.547v3.908a2.616 2.616 0 011.994-.839c1.143 0 2.5.515 2.5 2.97v4.374z" transform="translate(-2375.064 -607.199)"/><path id="패스_14894" data-name="패스 14894" d="M2520.771 633.014a3.075 3.075 0 01-2.412-.994 3.986 3.986 0 01-.873-2.731 3.916 3.916 0 01.949-2.712 3.088 3.088 0 012.382-1.065 2.761 2.761 0 012.219.936 3.8 3.8 0 01.777 2.52v.8h-4.729a2.153 2.153 0 00.526 1.334 1.839 1.839 0 001.416.536 3.084 3.084 0 001.94-.7l.381-.3v1.615l-.1.07a4.141 4.141 0 01-2.476.691zm1.46-4.629a1.816 1.816 0 00-.383-1.061 1.3 1.3 0 00-1.051-.435 1.5 1.5 0 00-1.123.473 2.141 2.141 0 00-.541 1.023z" transform="translate(-2414.046 -622.443)"/></g><g id="그룹_7334" data-name="그룹 7334" transform="translate(0 16.346)"><path id="패스_14895" data-name="패스 14895" d="M1903.2 725.577l-1.787-5.134h-6.64l-1.681 5.134h-2.954l6.715-19.021h2.546l6.74 19.021zm-2.675-7.77l-2.44-7.2-2.418 7.2z" transform="translate(-1890.139 -706.249)"/><path id="패스_14896" data-name="패스 14896" d="M2000.887 756.076v-19.8h2.8v1.607a5.225 5.225 0 014.219-1.914 5.148 5.148 0 014.221 1.887 7.646 7.646 0 011.5 4.928 8.483 8.483 0 01-1.675 5.478 5.675 5.675 0 01-4.643 2.1 4.655 4.655 0 01-3.618-1.559v7.268zm6.5-17.637a3.346 3.346 0 00-2.672 1.15 4.29 4.29 0 00-1.024 2.954v1.826a3.516 3.516 0 00.959 2.511 3.406 3.406 0 005.115-.3 6.373 6.373 0 001.01-3.838 4.959 4.959 0 00-.93-3.2 2.977 2.977 0 00-2.461-1.104z" transform="translate(-1982.325 -730.733)"/><path id="패스_14897" data-name="패스 14897" d="M2094.039 756.076v-19.8h2.8v1.607a5.224 5.224 0 014.218-1.914 5.148 5.148 0 014.222 1.887 7.646 7.646 0 011.5 4.928 8.485 8.485 0 01-1.675 5.478 5.677 5.677 0 01-4.643 2.1 4.654 4.654 0 01-3.618-1.559v7.268zm6.5-17.637a3.346 3.346 0 00-2.671 1.15 4.288 4.288 0 00-1.023 2.954v1.826a3.516 3.516 0 00.958 2.511 3.406 3.406 0 005.115-.3 6.373 6.373 0 001.01-3.838 4.96 4.96 0 00-.929-3.2 2.978 2.978 0 00-2.464-1.104z" transform="translate(-2059.865 -730.733)"/><path id="패스_14898" data-name="패스 14898" d="M2211.061 724.361a10.521 10.521 0 01-1.111-.073 15.197 15.197 0 01-1.334-.209 11.047 11.047 0 01-1.3-.343 4.208 4.208 0 01-1.038-.484l-.155-.105v-3.5l.587.518a4.565 4.565 0 00.966.639 8.105 8.105 0 001.224.5 9.875 9.875 0 001.3.314 7.172 7.172 0 001.193.11 4.6 4.6 0 002.744-.663 2.4 2.4 0 00.56-2.941 3.338 3.338 0 00-.815-.905 8.636 8.636 0 00-1.306-.833 114.89 114.89 0 00-1.687-.872 26.754 26.754 0 01-1.81-1 8.134 8.134 0 01-1.509-1.149 4.954 4.954 0 01-1.038-1.464 4.985 4.985 0 01.215-4.288 5.08 5.08 0 011.55-1.639 6.925 6.925 0 012.146-.943 9.718 9.718 0 012.419-.3 9.156 9.156 0 014.111.692l.189.1v3.3l-.555-.384a6.846 6.846 0 00-3.962-1.061 6.534 6.534 0 00-1.333.139 3.636 3.636 0 00-1.141.436 2.435 2.435 0 00-.782.748 1.938 1.938 0 00-.286 1.083 2.292 2.292 0 00.223 1.052 2.626 2.626 0 00.683.821 7.373 7.373 0 001.188.779 50.44 50.44 0 001.681.862c.663.328 1.3.676 1.892 1.037a8.913 8.913 0 011.609 1.237 5.655 5.655 0 011.123 1.539 4.422 4.422 0 01.426 1.97 4.969 4.969 0 01-.575 2.466 4.724 4.724 0 01-1.545 1.649 6.625 6.625 0 01-2.192.9 11.788 11.788 0 01-2.555.265z" transform="translate(-2153.163 -704.727)"/><path id="패스_14899" data-name="패스 14899" d="M2290.529 731.988c-1.729 0-3.789-.726-3.789-4.185v-7.386h-2.248v-2.495h2.248v-3.1l2.8-.905v4h3.3v2.495h-3.3v7.016a2.766 2.766 0 00.37 1.657 1.467 1.467 0 001.205.429 1.841 1.841 0 001.153-.363l.567-.428v2.707l-.183.1a4.4 4.4 0 01-2.123.458z" transform="translate(-2218.397 -712.379)"/><path id="패스_14900" data-name="패스 14900" d="M2350.939 750.367a6.432 6.432 0 01-4.887-1.944 7.158 7.158 0 01-1.827-5.1 7.442 7.442 0 011.9-5.393 6.842 6.842 0 015.119-1.959 6.228 6.228 0 014.827 1.916 7.511 7.511 0 011.733 5.232 7.4 7.4 0 01-1.865 5.255 6.563 6.563 0 01-5 1.993zm.153-11.929a3.617 3.617 0 00-2.924 1.249 5.326 5.326 0 00-1.09 3.557 5.019 5.019 0 001.1 3.431 3.668 3.668 0 002.916 1.222 3.465 3.465 0 002.851-1.188 5.4 5.4 0 001.01-3.516 5.5 5.5 0 00-1.011-3.556 3.449 3.449 0 00-2.852-1.199z" transform="translate(-2268.119 -730.733)"/><path id="패스_14901" data-name="패스 14901" d="M2439.594 750.441v-13.785h2.8v1.577a4.325 4.325 0 01.837-.952 3.474 3.474 0 012.283-.856 3.715 3.715 0 011.386.205l.219.09v3.125l-.569-.436a2.244 2.244 0 00-1.369-.348 2.32 2.32 0 00-1.953 1.116 5.531 5.531 0 00-.835 3.243v7.02z" transform="translate(-2347.503 -731.113)"/><path id="패스_14902" data-name="패스 14902" d="M2496.916 750.367a5.889 5.889 0 01-4.619-1.9 7.661 7.661 0 01-1.673-5.248 7.524 7.524 0 011.821-5.211 5.913 5.913 0 014.56-2.039 5.275 5.275 0 014.242 1.785 7.292 7.292 0 011.489 4.839v1.452h-9.217a4.358 4.358 0 001.062 2.775 3.681 3.681 0 002.834 1.077 6.108 6.108 0 003.843-1.38l.572-.45v2.875l-.146.106a7.966 7.966 0 01-4.768 1.319zm2.955-8.8a3.712 3.712 0 00-.778-2.24 2.623 2.623 0 00-2.126-.885 3.018 3.018 0 00-2.263.953 4.324 4.324 0 00-1.109 2.171z" transform="translate(-2389.981 -730.733)"/></g></g></g></svg>