<svg xmlns="http://www.w3.org/2000/svg" width="154.565" height="41.89" viewBox="0 0 154.565 41.89">
  <g id="그룹_9248" data-name="그룹 9248" transform="translate(-970.999 -1212)">
    <g id="그룹_7332" data-name="그룹 7332" transform="translate(970.999 1212)">
      <path id="패스_14881" data-name="패스 14881" d="M1656.133,659.552a2.489,2.489,0,0,1-1.124-.019c-.14-.034-.278-.072-.388-.1-.291-.087-2.974-1.164-3.65-1.257a7.66,7.66,0,0,0-3.621.221c-1.711.524-6.019,2.55-6.624,8.883a20.661,20.661,0,0,0,1.106,8.208,22.917,22.917,0,0,0,5.076,8.336,4.32,4.32,0,0,0,4.9,1.176,10.274,10.274,0,0,1,4.23-1.164,6.5,6.5,0,0,1,2.755.582,6.616,6.616,0,0,0,3.749.815c1.118-.225,2.5-.815,4.261-3.33a23.4,23.4,0,0,0,3.237-6.186,8.315,8.315,0,0,1-4.277-4.308,8.141,8.141,0,0,1,3.3-9.88,8.075,8.075,0,0,0-4.028-3.074,8.59,8.59,0,0,0-6.093.093A22.616,22.616,0,0,1,1656.133,659.552Z" transform="translate(-1640.675 -649.23)"/>
      <path id="패스_14882" data-name="패스 14882" d="M1727.815,614.338a7.567,7.567,0,0,1,1.688-5.35,8.188,8.188,0,0,1,5.542-2.992,7,7,0,0,1-.675,3.865,7.649,7.649,0,0,1-2.957,3.469A6.184,6.184,0,0,1,1727.815,614.338Z" transform="translate(-1713.199 -605.996)"/>
    </g>
    <g id="그룹_7335" data-name="그룹 7335" transform="translate(1012.81 1212.201)">
      <g id="그룹_7333" data-name="그룹 7333" transform="translate(1.705 0)">
        <path id="패스_14883" data-name="패스 14883" d="M1900.311,620.284v-9.876h2.833c3.455,0,5.207,1.622,5.207,4.82a4.867,4.867,0,0,1-1.453,3.669,5.372,5.372,0,0,1-3.859,1.387Zm2.741-1.468a3.776,3.776,0,0,0,2.716-.924,3.5,3.5,0,0,0,.957-2.637c0-2.273-1.18-3.378-3.607-3.378h-1.233v6.94Z" transform="translate(-1900.311 -609.87)"/>
        <path id="패스_14884" data-name="패스 14884" d="M1958.512,633.014a3.354,3.354,0,0,1-2.549-1.015,3.728,3.728,0,0,1-.953-2.657,3.873,3.873,0,0,1,.991-2.807,3.565,3.565,0,0,1,2.668-1.022,3.252,3.252,0,0,1,2.519,1,3.909,3.909,0,0,1,.9,2.723,3.85,3.85,0,0,1-.972,2.735A3.423,3.423,0,0,1,1958.512,633.014Zm.079-6.125a1.807,1.807,0,0,0-1.461.622,2.684,2.684,0,0,0-.547,1.791,2.525,2.525,0,0,0,.551,1.726,1.832,1.832,0,0,0,1.457.609,1.728,1.728,0,0,0,1.422-.59,2.722,2.722,0,0,0,.506-1.771,2.772,2.772,0,0,0-.507-1.792A1.72,1.72,0,0,0,1958.591,626.888Z" transform="translate(-1945.843 -622.443)"/>
        <path id="패스_14885" data-name="패스 14885" d="M2009.281,633.638l-1.346-4.677-1.457,4.677h-1.424l-2.176-7.187h1.625l1.345,4.886,1.5-4.886h1.338l1.341,4.883,1.316-4.883h1.56l-2.155,7.187Z" transform="translate(-1985.687 -623.224)"/>
        <path id="패스_14886" data-name="패스 14886" d="M2076.958,632.856v-4.066c0-1.705-.756-1.9-1.325-1.9a1.457,1.457,0,0,0-1.157.526,2,2,0,0,0-.47,1.377v4.066h-1.547v-7.187h1.547v.676a2.61,2.61,0,0,1,1.994-.834,2.289,2.289,0,0,1,1.868.8,3.408,3.408,0,0,1,.637,2.206v4.341Z" transform="translate(-2043.606 -622.443)"/>
        <rect id="사각형_10671" data-name="사각형 10671" width="1.547" height="10.414" transform="translate(37.396 0)"/>
        <path id="패스_14887" data-name="패스 14887" d="M2147.121,633.014a3.354,3.354,0,0,1-2.549-1.015,3.728,3.728,0,0,1-.953-2.657,3.873,3.873,0,0,1,.991-2.807,3.565,3.565,0,0,1,2.668-1.022,3.251,3.251,0,0,1,2.519,1,3.908,3.908,0,0,1,.9,2.723,3.851,3.851,0,0,1-.972,2.735A3.422,3.422,0,0,1,2147.121,633.014Zm.079-6.125a1.806,1.806,0,0,0-1.461.622,2.684,2.684,0,0,0-.547,1.791,2.525,2.525,0,0,0,.551,1.726,1.833,1.833,0,0,0,1.457.609,1.728,1.728,0,0,0,1.422-.59,2.721,2.721,0,0,0,.506-1.771,2.775,2.775,0,0,0-.507-1.792A1.72,1.72,0,0,0,2147.2,626.888Z" transform="translate(-2102.84 -622.443)"/>
        <path id="패스_14888" data-name="패스 14888" d="M2195.526,633.014a2.444,2.444,0,0,1-1.732-.595,2.075,2.075,0,0,1-.642-1.582c0-.952.42-2.146,2.42-2.424l1.8-.253c-.065-1.135-.677-1.272-1.143-1.272a3.052,3.052,0,0,0-2.039.771l-.388.328v-1.739l.109-.069a4.409,4.409,0,0,1,2.408-.666c1.7,0,2.6.948,2.6,2.741v4.6h-1.547v-.607A2.444,2.444,0,0,1,2195.526,633.014Zm.5-3.334a2.419,2.419,0,0,0-1.025.33.848.848,0,0,0-.28.748.793.793,0,0,0,.271.627,1.121,1.121,0,0,0,.778.252,1.486,1.486,0,0,0,1.149-.486,1.76,1.76,0,0,0,.458-1.259v-.4Z" transform="translate(-2144.071 -622.443)"/>
        <path id="패스_14889" data-name="패스 14889" d="M2240.691,617.77a2.744,2.744,0,0,1-2.2-.986,3.94,3.94,0,0,1-.813-2.608,4.269,4.269,0,0,1,.894-2.821,3.007,3.007,0,0,1,2.417-1.088,2.469,2.469,0,0,1,1.8.667V607.2h1.547v10.414h-1.547v-.693A2.735,2.735,0,0,1,2240.691,617.77Zm.433-6.125a1.62,1.62,0,0,0-1.362.631,2.951,2.951,0,0,0-.514,1.849,2.63,2.63,0,0,0,.489,1.685,1.53,1.53,0,0,0,1.269.584,1.6,1.6,0,0,0,1.281-.568,2.173,2.173,0,0,0,.5-1.485v-.99a1.68,1.68,0,0,0-.473-1.215A1.564,1.564,0,0,0,2241.124,611.645Z" transform="translate(-2181.132 -607.199)"/>
        <path id="패스_14890" data-name="패스 14890" d="M2314.537,633.014a3.355,3.355,0,0,1-2.549-1.015,3.728,3.728,0,0,1-.953-2.657,3.872,3.872,0,0,1,.992-2.807,3.564,3.564,0,0,1,2.667-1.022,3.252,3.252,0,0,1,2.519,1,3.908,3.908,0,0,1,.9,2.723,3.848,3.848,0,0,1-.972,2.735A3.422,3.422,0,0,1,2314.537,633.014Zm.079-6.125a1.806,1.806,0,0,0-1.46.622,2.684,2.684,0,0,0-.547,1.791,2.524,2.524,0,0,0,.551,1.726,1.831,1.831,0,0,0,1.456.609,1.728,1.728,0,0,0,1.422-.59,2.721,2.721,0,0,0,.507-1.771,2.771,2.771,0,0,0-.508-1.792A1.719,1.719,0,0,0,2314.616,626.888Z" transform="translate(-2242.197 -622.443)"/>
        <path id="패스_14891" data-name="패스 14891" d="M2368.745,632.856v-4.066c0-1.705-.756-1.9-1.325-1.9a1.455,1.455,0,0,0-1.157.526,2,2,0,0,0-.47,1.377v4.066h-1.547v-7.187h1.547v.676a2.61,2.61,0,0,1,1.994-.834,2.287,2.287,0,0,1,1.867.8,3.407,3.407,0,0,1,.637,2.206v4.341Z" transform="translate(-2286.489 -622.443)"/>
        <path id="패스_14892" data-name="패스 14892" d="M2437.623,623.475c-.912,0-2-.382-2-2.2v-3.739h-1.154v-1.389h1.154v-1.576l1.547-.5v2.075h1.692v1.389h-1.692v3.549a1.326,1.326,0,0,0,.178.817.7.7,0,0,0,.576.2.892.892,0,0,0,.559-.175l.378-.285v1.531l-.122.067A2.312,2.312,0,0,1,2437.623,623.475Z" transform="translate(-2344.942 -612.918)"/>
        <path id="패스_14893" data-name="패스 14893" d="M2475.155,617.613v-4.105c0-1.67-.756-1.863-1.325-1.863a1.463,1.463,0,0,0-1.148.527,2.015,2.015,0,0,0-.479,1.4v4.039h-1.547V607.2h1.547v3.908a2.616,2.616,0,0,1,1.994-.839c1.143,0,2.5.515,2.5,2.97v4.374Z" transform="translate(-2375.064 -607.199)"/>
        <path id="패스_14894" data-name="패스 14894" d="M2520.771,633.014a3.075,3.075,0,0,1-2.412-.994,3.986,3.986,0,0,1-.873-2.731,3.916,3.916,0,0,1,.949-2.712,3.088,3.088,0,0,1,2.382-1.065,2.761,2.761,0,0,1,2.219.936,3.8,3.8,0,0,1,.777,2.52v.8h-4.729a2.153,2.153,0,0,0,.526,1.334,1.839,1.839,0,0,0,1.416.536,3.084,3.084,0,0,0,1.94-.7l.381-.3v1.615l-.1.07A4.141,4.141,0,0,1,2520.771,633.014Zm1.46-4.629a1.816,1.816,0,0,0-.383-1.061,1.3,1.3,0,0,0-1.051-.435,1.5,1.5,0,0,0-1.123.473,2.141,2.141,0,0,0-.541,1.023Z" transform="translate(-2414.046 -622.443)"/>
      </g>
      <g id="그룹_7334" data-name="그룹 7334" transform="translate(0 16.346)">
        <path id="패스_14895" data-name="패스 14895" d="M1903.2,725.577l-1.787-5.134h-6.64l-1.681,5.134h-2.954l6.715-19.021h2.546l6.74,19.021Zm-2.675-7.77-2.44-7.2-2.418,7.2Z" transform="translate(-1890.139 -706.249)"/>
        <path id="패스_14896" data-name="패스 14896" d="M2000.887,756.076v-19.8h2.8v1.607a5.225,5.225,0,0,1,4.219-1.914,5.148,5.148,0,0,1,4.221,1.887,7.646,7.646,0,0,1,1.5,4.928,8.483,8.483,0,0,1-1.675,5.478,5.675,5.675,0,0,1-4.643,2.1,4.655,4.655,0,0,1-3.618-1.559v7.268Zm6.5-17.637a3.346,3.346,0,0,0-2.672,1.15,4.29,4.29,0,0,0-1.024,2.954v1.826a3.516,3.516,0,0,0,.959,2.511,3.406,3.406,0,0,0,5.115-.3,6.373,6.373,0,0,0,1.01-3.838,4.959,4.959,0,0,0-.93-3.2A2.977,2.977,0,0,0,2007.384,738.438Z" transform="translate(-1982.325 -730.733)"/>
        <path id="패스_14897" data-name="패스 14897" d="M2094.039,756.076v-19.8h2.8v1.607a5.224,5.224,0,0,1,4.218-1.914,5.148,5.148,0,0,1,4.222,1.887,7.646,7.646,0,0,1,1.5,4.928,8.485,8.485,0,0,1-1.675,5.478,5.677,5.677,0,0,1-4.643,2.1,4.654,4.654,0,0,1-3.618-1.559v7.268Zm6.5-17.637a3.346,3.346,0,0,0-2.671,1.15,4.288,4.288,0,0,0-1.023,2.954v1.826a3.516,3.516,0,0,0,.958,2.511,3.406,3.406,0,0,0,5.115-.3,6.373,6.373,0,0,0,1.01-3.838,4.96,4.96,0,0,0-.929-3.2A2.978,2.978,0,0,0,2100.535,738.438Z" transform="translate(-2059.865 -730.733)"/>
        <path id="패스_14898" data-name="패스 14898" d="M2211.061,724.361a10.521,10.521,0,0,1-1.111-.073c-.435-.048-.883-.118-1.334-.209a11.047,11.047,0,0,1-1.3-.343,4.208,4.208,0,0,1-1.038-.484l-.155-.105v-3.5l.587.518a4.565,4.565,0,0,0,.966.639,8.105,8.105,0,0,0,1.224.5,9.875,9.875,0,0,0,1.3.314,7.172,7.172,0,0,0,1.193.11,4.6,4.6,0,0,0,2.744-.663,2.4,2.4,0,0,0,.56-2.941,3.338,3.338,0,0,0-.815-.905,8.636,8.636,0,0,0-1.306-.833c-.522-.276-1.09-.569-1.687-.872-.642-.325-1.251-.66-1.81-1a8.134,8.134,0,0,1-1.509-1.149,4.954,4.954,0,0,1-1.038-1.464,4.985,4.985,0,0,1,.215-4.288,5.08,5.08,0,0,1,1.55-1.639,6.925,6.925,0,0,1,2.146-.943,9.718,9.718,0,0,1,2.419-.3,9.156,9.156,0,0,1,4.111.692l.189.1v3.3l-.555-.384a6.846,6.846,0,0,0-3.962-1.061,6.534,6.534,0,0,0-1.333.139,3.636,3.636,0,0,0-1.141.436,2.435,2.435,0,0,0-.782.748,1.938,1.938,0,0,0-.286,1.083,2.292,2.292,0,0,0,.223,1.052,2.626,2.626,0,0,0,.683.821,7.373,7.373,0,0,0,1.188.779c.483.261,1.049.551,1.681.862.663.328,1.3.676,1.892,1.037a8.913,8.913,0,0,1,1.609,1.237,5.655,5.655,0,0,1,1.123,1.539,4.422,4.422,0,0,1,.426,1.97,4.969,4.969,0,0,1-.575,2.466,4.724,4.724,0,0,1-1.545,1.649,6.625,6.625,0,0,1-2.192.9A11.788,11.788,0,0,1,2211.061,724.361Z" transform="translate(-2153.163 -704.727)"/>
        <path id="패스_14899" data-name="패스 14899" d="M2290.529,731.988c-1.729,0-3.789-.726-3.789-4.185v-7.386h-2.248v-2.495h2.248v-3.1l2.8-.905v4h3.3v2.495h-3.3v7.016a2.766,2.766,0,0,0,.37,1.657,1.467,1.467,0,0,0,1.205.429,1.841,1.841,0,0,0,1.153-.363l.567-.428v2.707l-.183.1A4.4,4.4,0,0,1,2290.529,731.988Z" transform="translate(-2218.397 -712.379)"/>
        <path id="패스_14900" data-name="패스 14900" d="M2350.939,750.367a6.432,6.432,0,0,1-4.887-1.944,7.158,7.158,0,0,1-1.827-5.1,7.442,7.442,0,0,1,1.9-5.393,6.842,6.842,0,0,1,5.119-1.959,6.228,6.228,0,0,1,4.827,1.916,7.511,7.511,0,0,1,1.733,5.232,7.4,7.4,0,0,1-1.865,5.255A6.563,6.563,0,0,1,2350.939,750.367Zm.153-11.929a3.617,3.617,0,0,0-2.924,1.249,5.326,5.326,0,0,0-1.09,3.557,5.019,5.019,0,0,0,1.1,3.431,3.668,3.668,0,0,0,2.916,1.222,3.465,3.465,0,0,0,2.851-1.188,5.4,5.4,0,0,0,1.01-3.516,5.5,5.5,0,0,0-1.011-3.556A3.449,3.449,0,0,0,2351.092,738.438Z" transform="translate(-2268.119 -730.733)"/>
        <path id="패스_14901" data-name="패스 14901" d="M2439.594,750.441V736.656h2.8v1.577a4.325,4.325,0,0,1,.837-.952,3.474,3.474,0,0,1,2.283-.856,3.715,3.715,0,0,1,1.386.205l.219.09v3.125l-.569-.436a2.244,2.244,0,0,0-1.369-.348,2.32,2.32,0,0,0-1.953,1.116,5.531,5.531,0,0,0-.835,3.243v7.02Z" transform="translate(-2347.503 -731.113)"/>
        <path id="패스_14902" data-name="패스 14902" d="M2496.916,750.367a5.889,5.889,0,0,1-4.619-1.9,7.661,7.661,0,0,1-1.673-5.248,7.524,7.524,0,0,1,1.821-5.211,5.913,5.913,0,0,1,4.56-2.039,5.275,5.275,0,0,1,4.242,1.785,7.292,7.292,0,0,1,1.489,4.839v1.452h-9.217a4.358,4.358,0,0,0,1.062,2.775,3.681,3.681,0,0,0,2.834,1.077,6.108,6.108,0,0,0,3.843-1.38l.572-.45v2.875l-.146.106A7.966,7.966,0,0,1,2496.916,750.367Zm2.955-8.8a3.712,3.712,0,0,0-.778-2.24,2.623,2.623,0,0,0-2.126-.885,3.018,3.018,0,0,0-2.263.953,4.324,4.324,0,0,0-1.109,2.171Z" transform="translate(-2389.981 -730.733)"/>
      </g>
    </g>
  </g>
</svg>
