<svg xmlns="http://www.w3.org/2000/svg" xmlns:xlink="http://www.w3.org/1999/xlink" width="172.915" height="40.24" viewBox="0 0 172.915 40.24">
  <defs>
    <linearGradient id="linear-gradient" y1="0.5" x2="1" y2="0.5" gradientUnits="objectBoundingBox">
      <stop offset="0" stop-color="#ffbc00"/>
      <stop offset="1" stop-color="#ffdc00"/>
    </linearGradient>
    <linearGradient id="linear-gradient-2" x1="0.85" y1="0.893" x2="0.17" y2="-0.153" gradientUnits="objectBoundingBox">
      <stop offset="0" stop-color="#00f076"/>
      <stop offset="1" stop-color="#0eda74"/>
    </linearGradient>
    <linearGradient id="linear-gradient-3" x1="0.85" y1="0.107" x2="0.17" y2="1.153" gradientUnits="objectBoundingBox">
      <stop offset="0" stop-color="#ff3a44"/>
      <stop offset="1" stop-color="#e12653"/>
    </linearGradient>
    <linearGradient id="linear-gradient-4" x1="-0.345" y1="0.591" x2="0.827" y2="0.308" gradientUnits="objectBoundingBox">
      <stop offset="0" stop-color="#00dfff"/>
      <stop offset="1" stop-color="#00b4ff"/>
    </linearGradient>
  </defs>
  <g id="그룹_7346" data-name="그룹 7346" transform="translate(-267.364 -611.222)">
    <g id="그룹_7346-2" data-name="그룹 7346" transform="translate(267.364 611.342)">
      <path id="패스_14925" data-name="패스 14925" d="M383.89,699.088l-6.252-6.251,6.252-6.251,7.733,4.42a2.109,2.109,0,0,1,0,3.662Z" transform="translate(-358.19 -673.415)" fill="url(#linear-gradient)"/>
      <path id="패스_14926" data-name="패스 14926" d="M289.753,631.323l-18.818-18.813a2.1,2.1,0,0,1,2.527-.327l22.543,12.889Z" transform="translate(-270.305 -611.901)" fill="url(#linear-gradient-2)"/>
      <path id="패스_14927" data-name="패스 14927" d="M270.935,740.844l18.818-18.814,6.252,6.251L273.462,741.17A2.1,2.1,0,0,1,270.935,740.844Z" transform="translate(-270.305 -702.608)" fill="url(#linear-gradient-3)"/>
      <path id="패스_14928" data-name="패스 14928" d="M270.52,740.632,300.8,723.322a2.092,2.092,0,0,0,1.059-1.946,2.085,2.085,0,0,1-1.059,1.716L270.52,740.4a2.109,2.109,0,0,1-3.156-1.831v.231A2.109,2.109,0,0,0,270.52,740.632Z" transform="translate(-267.364 -702.069)" fill="#d1d3d4" style="mix-blend-mode: multiply;isolation: isolate"/>
      <path id="패스_14929" data-name="패스 14929" d="M268,652.979a2.078,2.078,0,0,1-.629-1.5V616.856a2.078,2.078,0,0,1,.629-1.5l18.818,18.813Z" transform="translate(-267.367 -614.743)" fill="url(#linear-gradient-4)"/>
      <path id="패스_14930" data-name="패스 14930" d="M271.156,612.434l30.277,17.309a2.1,2.1,0,0,1,1.041,2.126,2.129,2.129,0,0,0,.142-.656,2.085,2.085,0,0,0-1.059-1.719L271.28,612.185a2.112,2.112,0,0,0-2.993,1.013A2.111,2.111,0,0,1,271.156,612.434Z" transform="translate(-268.124 -611.903)" fill="#231f20" style="mix-blend-mode: screen;isolation: isolate"/>
    </g>
    <g id="그룹_7352" data-name="그룹 7352" transform="translate(314.12 611.222)">
      <g id="그룹_7349" data-name="그룹 7349" transform="translate(83.783 15.819)">
        <g id="그룹_7347" data-name="그룹 7347">
          <path id="패스_14931" data-name="패스 14931" d="M1014.212,700.919h-6.653v18.6h2.776v-7.047h3.877a5.785,5.785,0,1,0,0-11.553Zm.072,8.965h-3.948v-6.376h3.948a3.164,3.164,0,0,1,2.644,1.341,3.244,3.244,0,0,1,.609,1.848,3.291,3.291,0,0,1-1.732,2.824A3.24,3.24,0,0,1,1014.283,709.884Z" transform="translate(-1007.559 -700.919)"/>
        </g>
        <g id="그룹_7348" data-name="그룹 7348" transform="translate(18.592 6.293)">
          <path id="패스_14932" data-name="패스 14932" d="M1118.271,736.6a5.214,5.214,0,0,0-4.953,2.848l2.465,1.029a2.63,2.63,0,0,1,2.537-1.364,2.672,2.672,0,0,1,2.918,2.393l0,.209a6.134,6.134,0,0,0-2.9-.736c-2.655,0-5.359,1.46-5.359,4.188,0,2.488,2.177,4.091,4.618,4.091a3.916,3.916,0,0,0,3.541-1.817h.1v1.436h2.68v-7.131C1123.918,738.445,1121.453,736.6,1118.271,736.6Zm-.335,10.193c-.91,0-2.178-.454-2.178-1.578,0-1.436,1.579-1.986,2.944-1.986a4.905,4.905,0,0,1,2.524.616A3.358,3.358,0,0,1,1117.936,746.795Z" transform="translate(-1112.983 -736.602)"/>
        </g>
        <path id="패스_14933" data-name="패스 14933" d="M1185.641,738.911l-3.182,8.064h-.1l-3.3-8.064h-2.991l4.953,11.27-2.823,6.269h2.9l7.633-17.539Z" transform="translate(-1146.352 -732.211)"/>
        <rect id="사각형_10674" data-name="사각형 10674" width="2.776" height="18.599" transform="translate(14.285 0)"/>
      </g>
      <g id="그룹_7350" data-name="그룹 7350" transform="translate(0 0)">
        <path id="패스_14934" data-name="패스 14934" d="M541.509,616.247a4.029,4.029,0,0,1-1.109,2.98,4.328,4.328,0,0,1-3.279,1.321,4.663,4.663,0,1,1,0-9.325,4.606,4.606,0,0,1,1.832.374,3.682,3.682,0,0,1,1.4,1l-.785.785a3.014,3.014,0,0,0-2.444-1.059,3.565,3.565,0,1,0,2.493,6.134,2.809,2.809,0,0,0,.748-1.808h-3.241v-1.072h4.325A3.776,3.776,0,0,1,541.509,616.247Z" transform="translate(-532.484 -611.222)"/>
        <path id="패스_14935" data-name="패스 14935" d="M689.273,621.325V612.4h1.146v8.927Z" transform="translate(-661.622 -612.191)"/>
        <path id="패스_14936" data-name="패스 14936" d="M598.258,621.6h-5.327v-8.867h5.123v.966H594v3.032h3.664v.96H594v2.943h4.259Z" transform="translate(-582.271 -612.47)"/>
        <path id="패스_14937" data-name="패스 14937" d="M634.107,613.7h-2.631v7.9h-1.068v-7.9h-2.625v-.966h6.324Z" transform="translate(-610.976 -612.47)"/>
        <path id="패스_14938" data-name="패스 14938" d="M709.828,613.7H707.2v7.9h-1.068v-7.9H703.5v-.966h6.324Z" transform="translate(-673.344 -612.47)"/>
        <path id="패스_14939" data-name="패스 14939" d="M764.651,620.557a4.433,4.433,0,0,1-3.276-1.228,4.316,4.316,0,0,1-1.231-3.2,4.333,4.333,0,0,1,4.668-4.631,4.188,4.188,0,0,1,4.426,4.417,4.58,4.58,0,0,1-1.247,3.391A4.517,4.517,0,0,1,764.651,620.557Zm.08-8.125a3.24,3.24,0,0,0-2.461,1,4.115,4.115,0,0,0-.023,5.221,3.14,3.14,0,0,0,2.4.987,3.313,3.313,0,0,0,2.495-.941,3.625,3.625,0,0,0,.912-2.633,3.779,3.779,0,0,0-.885-2.682A3.179,3.179,0,0,0,764.731,612.432Z" transform="translate(-719.995 -611.453)"/>
        <path id="패스_14940" data-name="패스 14940" d="M827.875,621.6h-1.309l-4.691-7.017a3.037,3.037,0,0,1-.292-.572h-.038a5.352,5.352,0,0,1,.051,1V621.6h-1.068v-8.867h1.386l4.564,6.9q.286.445.369.61h.025a9.628,9.628,0,0,1-.063-1.341v-6.172h1.068Z" transform="translate(-769.729 -612.47)"/>
      </g>
      <g id="그룹_7351" data-name="그룹 7351" transform="translate(0 15.39)">
        <path id="패스_14941" data-name="패스 14941" d="M548.891,701.175l-1.8,1.8a.037.037,0,0,1-.053,0,6.773,6.773,0,0,0-4.541-1.846c-2.975-.007-7.087,1.779-7.087,7.311a6.864,6.864,0,0,0,5.587,6.55,6.525,6.525,0,0,0,2.455.07,5.783,5.783,0,0,0,5.163-5.093H542.3v-2.651h8.9c.058.447.644,4.571-1.8,7.356a8.82,8.82,0,0,1-7.222,3.1,10.036,10.036,0,0,1-9.258-6.809,9.486,9.486,0,0,1,2.055-9.219,9.967,9.967,0,0,1,7.592-3.26,9.088,9.088,0,0,1,6.325,2.635A.037.037,0,0,1,548.891,701.175Z" transform="translate(-532.484 -698.488)"/>
        <path id="패스_14942" data-name="패스 14942" d="M652.107,737.425a6.228,6.228,0,1,0,6.266,6.228A6.247,6.247,0,0,0,652.107,737.425Zm0,10.013a3.8,3.8,0,1,1,3.5-3.785A3.655,3.655,0,0,1,652.107,747.438Z" transform="translate(-625.85 -730.558)"/>
        <path id="패스_14943" data-name="패스 14943" d="M730.648,737.425a6.228,6.228,0,1,0,6.266,6.228A6.247,6.247,0,0,0,730.648,737.425Zm0,10.013a3.8,3.8,0,1,1,3.5-3.785A3.655,3.655,0,0,1,730.648,747.438Z" transform="translate(-690.539 -730.558)"/>
        <path id="패스_14944" data-name="패스 14944" d="M812.675,737.827v.975c-.1,0-.118-.025-.145-.056a4.2,4.2,0,0,0-2.857-1.321,6.093,6.093,0,0,0-6.338,6.228,6.282,6.282,0,0,0,6.3,6.194,4.165,4.165,0,0,0,2.923-1.364c.074-.079.125-.041.125.031s-.012.449-.012.958c-.106,3.438-2.7,3.486-3.22,3.486a3.4,3.4,0,0,1-3.2-2.163.023.023,0,0,0-.03-.011l-2.348.969a.024.024,0,0,0-.012.032,5.814,5.814,0,0,0,5.445,3.622,5.412,5.412,0,0,0,4.224-1.537,6.507,6.507,0,0,0,1.75-4.591V737.827a.026.026,0,0,0-.026-.026H812.7A.026.026,0,0,0,812.675,737.827Zm-3.193,9.608a3.805,3.805,0,1,1,3.378-3.781A3.6,3.6,0,0,1,809.482,747.434Z" transform="translate(-755.568 -730.558)"/>
        <rect id="사각형_10675" data-name="사각형 10675" width="2.675" height="18.213" rx="0.14" transform="translate(61.803 0.701)"/>
        <path id="패스_14945" data-name="패스 14945" d="M912.289,747.363a3.27,3.27,0,0,1-3.025-1.865l8.3-3.441a.038.038,0,0,0,.02-.049,7.675,7.675,0,0,0-2.311-3.509,5.485,5.485,0,0,0-5.753-.567,6.222,6.222,0,0,0-3.332,6.78,6.124,6.124,0,0,0,6.086,5.1,6.282,6.282,0,0,0,5.175-2.715.037.037,0,0,0-.009-.053l-2.082-1.382a.037.037,0,0,0-.051.011A3.447,3.447,0,0,1,912.289,747.363Zm-3.471-3.968a3.47,3.47,0,0,1,1.922-3.27,2.756,2.756,0,0,1,3.641.954.019.019,0,0,1-.009.027c-.62.262-5.14,2.145-5.529,2.307A.018.018,0,0,1,908.818,743.395Z" transform="translate(-840.206 -730.523)"/>
      </g>
    </g>
  </g>
</svg>
