<svg xmlns="http://www.w3.org/2000/svg" width="100" height="100"><g id="그룹_12321" data-name="그룹 12321" transform="translate(-1513 -4660)"><path id="사각형_17320" data-name="사각형 17320" transform="translate(1513 4660)" fill="none" d="M0 0h100v100H0z"/><g id="구성_요소_88_1" data-name="구성 요소 88 – 1" transform="translate(1513 4661)"><path id="패스_19013" data-name="패스 19013" d="M1117.2 413.352v14.03a10.241 10.241 0 002.615 6.3l4.776 4.76a10.281 10.281 0 006.3 2.607h6.763a10.329 10.329 0 006.317-2.612l4.771-4.755a10.241 10.241 0 002.615-6.3v-14.03m-26.734 33.736v-7.77m19.311 0v7.77m-30.866 0h11.555l-.325-8.6 5.345 1.871h10.693l4.279-1.605-.682 8.333h8.723a14.945 14.945 0 018.433 3.152l9.3 8.076c1.992 1.734 3.681 4.457 3.753 6.051l-.121 1.24-1.374 11.59a5.558 5.558 0 01-5.375 4.76h-67.032" transform="translate(-1075.983 -386.557)" fill="#fff"/><path id="패스_19014" data-name="패스 19014" d="M1130.623 439.4h-9.791a1.748 1.748 0 01-1.75-1.748v-2.193a1.75 1.75 0 011.75-1.748h9.791a1.748 1.748 0 011.748 1.748v2.193a1.746 1.746 0 01-1.748 1.748" transform="translate(-1044.242 -352.262)" fill="#fff"/><path id="패스_19015" data-name="패스 19015" d="M1110.05 422.378l1.071-12.4c.185-2.167.4-4.39.481-4.935s1.93-.991 4.11-.991h4.107c2.18 0 4.029.443 4.108.991s.3 2.768.483 4.935l1.071 12.4" transform="translate(-1059.457 -402.214)" fill="#fff"/><path id="패스_19016" data-name="패스 19016" d="M1147.945 422.378c-.754 0-1.928-1.691-2.61-3.759l-1.154-3.5a11.609 11.609 0 00-4.712-5.67l-2.73-1.5c-1.912-1.047-3.544-2.357-3.619-2.9s-1.93-.991-4.11-.991h-4.11c-2.177 0-4.032.443-4.11.991s-1.681 1.9-3.56 3l-3.375 1.989a11.693 11.693 0 00-4.553 5.8l-.824 2.749c-.625 2.086-1.759 3.788-2.513 3.788s-1.375 1.262-1.375 2.806.454 2.805 1.009 2.805 2.8.107 4.98.236l11.737.687c2.177.126 5.745.126 7.923 0l11.737-.687c2.183-.129 4.723-.236 5.651-.236s1.688-1.259 1.688-2.805-.62-2.806-1.374-2.806" transform="translate(-1068.651 -402.214)" fill="#fff"/><path id="패스_19017" data-name="패스 19017" d="M1112.421 423.547a20.534 20.534 0 1020.535 20.533 20.533 20.533 0 00-20.535-20.533m0 6.486a14.05 14.05 0 0113.708 11 47.784 47.784 0 00-27.414 0 14.045 14.045 0 0113.706-11m-13.1 19.1h9.16v8.422a14.071 14.071 0 01-9.16-8.422m17.032 8.422v-8.422h9.158a14.061 14.061 0 01-9.158 8.422" transform="translate(-1090.06 -369.381)" fill="#fff"/><path id="패스_19018" data-name="패스 19018" d="M1104.578 432.771c0 1.248-1.388 2.258-3.1 2.258s-3.1-1.009-3.1-2.258 1.385-2.258 3.1-2.258 3.1 1.009 3.1 2.258" transform="translate(-1079.114 -357.645)" fill="#fff"/><path id="패스_19019" data-name="패스 19019" d="M1157.784 484.956h-50.067a1.843 1.843 0 110-3.686h50.067a3.7 3.7 0 003.546-3.133l1.493-12.79a10.582 10.582 0 00-3.13-4.486l-9.294-8.073a13.2 13.2 0 00-7.228-2.7h-8.076l-9.147 7.351a1.848 1.848 0 01-2.309 0l-9.147-7.351h-2.9a1.844 1.844 0 010-3.689h1.7v-6.003l-4.269-4.258a11.948 11.948 0 01-3.157-7.6v-14.031a1.844 1.844 0 013.689 0v14.033a8.509 8.509 0 002.07 4.988l4.774 4.763a8.569 8.569 0 005 2.067h6.76a8.591 8.591 0 005.018-2.073l4.771-4.755a8.51 8.51 0 002.07-4.991v-14.032a1.843 1.843 0 013.686 0v14.033a11.944 11.944 0 01-3.157 7.6l-4.269 4.258v6.002h6.881a16.775 16.775 0 019.646 3.606l9.294 8.076c2.046 1.78 4.277 4.964 4.384 7.359l-.126 1.5-1.38 11.63a7.435 7.435 0 01-7.205 6.384m-40.8-37.594l7.813 6.28 7.81-6.28v-4.384a11.4 11.4 0 01-4.435 1.069h-6.76a11.284 11.284 0 01-4.427-1.052z" transform="translate(-1066.495 -387.713)" fill="#ed6f00"/><path id="패스_19020" data-name="패스 19020" d="M1131.778 442.4h-9.791a3.593 3.593 0 01-3.592-3.589v-2.191a3.6 3.6 0 013.592-3.595h9.791a3.6 3.6 0 013.59 3.595v2.191a3.593 3.593 0 01-3.59 3.589m-.094-5.78l-9.7.094.094 2.1 9.6-.1zm.094 2.094z" transform="translate(-1045.397 -353.418)" fill="#ed6f00"/><path id="패스_19021" data-name="패스 19021" d="M1126.629 425.38a1.84 1.84 0 01-1.831-1.686l-1.074-12.4a207.09 207.09 0 00-.376-4.008 10.814 10.814 0 00-2.378-.231h-4.108a10.831 10.831 0 00-2.381.231c-.1.95-.245 2.489-.373 4l-1.071 12.4a1.843 1.843 0 11-3.673-.317l1.074-12.4c.185-2.209.411-4.475.486-5.031.312-2.132 3.4-2.58 5.939-2.58h4.108c2.534 0 5.622.448 5.933 2.569.078.566.309 2.832.491 5.047l1.074 12.39a1.844 1.844 0 01-1.676 1.995 1.779 1.779 0 01-.163.008" transform="translate(-1060.626 -403.371)" fill="#ed6f00"/><path id="패스_19022" data-name="패스 19022" d="M1127.432 432.006c-1.474 0-2.945-.032-4.067-.1l-11.741-.685c-2.131-.126-4.322-.231-4.87-.231-1.732 0-2.854-1.826-2.854-4.647 0-2.459 1.13-4.3 2.741-4.607a7.455 7.455 0 001.227-2.524l.827-2.744a13.536 13.536 0 015.38-6.857l3.375-1.992a13.005 13.005 0 002.762-2.054c.6-1.8 3.466-2.2 5.842-2.2h4.108c2.368 0 5.221.389 5.839 2.172a12.529 12.529 0 002.776 1.946l2.733 1.5a13.493 13.493 0 015.576 6.709l1.152 3.5a7.631 7.631 0 001.313 2.532c1.624.293 2.765 2.14 2.765 4.612 0 2.647-1.519 4.647-3.533 4.647-.908 0-3.4.1-5.542.231l-11.737.685c-1.125.067-2.6.1-4.073.1m-19.754-4.674c1.01.038 2.6.118 4.164.209l11.738.687c2.089.121 5.622.121 7.713 0l11.735-.687c1.989-.115 4.271-.215 5.407-.231a2.253 2.253 0 00.2-.967 3 3 0 00-.166-1.052c-2.186-.6-3.471-4.172-3.727-4.937l-1.151-3.5a9.779 9.779 0 00-3.85-4.634l-2.731-1.5c-1.589-.87-3.455-2.1-4.22-3.372a9.974 9.974 0 00-2.623-.3h-4.108a9.854 9.854 0 00-2.618.3 12.347 12.347 0 01-4.116 3.447l-3.375 1.989a9.818 9.818 0 00-3.721 4.741l-.829 2.749c-.234.781-1.439 4.411-3.646 5.015a3.1 3.1 0 00-.161 1.052 5.05 5.05 0 00.088.988m41.42-1.954zm.57-3.541zm-29.54-15.931l-.008.043zm15.963-.005l.005.04-.005-.04" transform="translate(-1069.817 -403.371)" fill="#ed6f00"/><path id="패스_19023" data-name="패스 19023" d="M1114.076 450.654a1.84 1.84 0 01-1.842-1.842v-18.846a1.842 1.842 0 113.683 0v18.847a1.841 1.841 0 01-1.841 1.842" transform="translate(-1055.777 -361.674)" fill="#ed6f00"/><path id="패스_19024" data-name="패스 19024" d="M1113.582 467.615a22.377 22.377 0 1122.377-22.377 22.4 22.4 0 01-22.377 22.377m0-41.068a18.692 18.692 0 1018.694 18.691 18.714 18.714 0 00-18.694-18.691m3.936 34.015a1.848 1.848 0 01-1.844-1.844V450.3a1.844 1.844 0 011.844-1.844h9.16a1.842 1.842 0 011.715 2.51 15.975 15.975 0 01-10.36 9.525 1.779 1.779 0 01-.516.075m1.842-8.422v3.836a12.311 12.311 0 004.271-3.836zm-9.714 8.422a1.779 1.779 0 01-.515-.075 15.975 15.975 0 01-10.36-9.525 1.842 1.842 0 011.716-2.51h9.16a1.842 1.842 0 011.842 1.844v8.422a1.833 1.833 0 01-.736 1.474 1.852 1.852 0 01-1.106.371m-6.113-8.422a12.317 12.317 0 004.271 3.836v-3.836zm23.757-8.108a1.8 1.8 0 01-.542-.083 45.995 45.995 0 00-26.334 0 1.841 1.841 0 01-2.338-2.159 15.884 15.884 0 0131.014 0 1.844 1.844 0 01-1.8 2.242m-13.708-5.694a51.058 51.058 0 0110.776 1.189 12.188 12.188 0 00-21.553 0 51.064 51.064 0 0110.777-1.189" transform="translate(-1091.205 -370.536)" fill="#ed6f00"/><path id="패스_19025" data-name="패스 19025" d="M1104.578 432.771c0 1.248-1.388 2.258-3.1 2.258s-3.1-1.009-3.1-2.258 1.385-2.258 3.1-2.258 3.1 1.009 3.1 2.258" transform="translate(-1079.114 -357.645)" fill="#ed6f00"/></g></g></svg>