<svg xmlns="http://www.w3.org/2000/svg" width="100.728" height="100"><g id="구성_요소_48_1" data-name="구성 요소 48 – 1" transform="translate(.5)"><path id="사각형_17151" data-name="사각형 17151" fill="none" d="M0 0h100v100H0z"/><path id="패스_18832" data-name="패스 18832" d="M834.28 356.928a3.012 3.012 0 11-3.011-3.006 3.006 3.006 0 013.011 3.006" transform="translate(-754.443 -311.754)" fill="#074b94"/><path id="패스_18833" data-name="패스 18833" d="M1 77.969V69.85h38.415v24.1H1v-9.476m6.176-6.983h26.06m-22.773 0v10.258m9.469-10.258v10.258m9.459-10.258v10.258M1 54.091V45.98h38.415v24.093H1v-9.482m6.176-7.168h26.06m-22.773 0v9.2m9.464-9.2v9.2m9.464-9.2v9.2m35.8 17.012l4.8-25.213m13.493.745l2.463 24.464m2.7-34.767a11.781 11.781 0 11-11.78-11.78 11.779 11.779 0 0111.78 11.777zm-15.583-11.78L50.01 14.66m.947 17.438l14.224 14.26M50.012 17.877A11.876 11.876 0 1138.138 6.001a11.873 11.873 0 0111.877 11.876z" fill="none" stroke="#074b93" stroke-linecap="round" stroke-linejoin="round" stroke-width="3"/><path id="패스_18834" data-name="패스 18834" d="M818.739 345.965a3.008 3.008 0 11-3-3 3.005 3.005 0 013 3" transform="translate(-777.595 -328.089)" fill="#074b93"/><path id="패스_18835" data-name="패스 18835" d="M98.728 93.946H55.011V79.63h43.718zM26.652 20.883l-3.118 15.862 14.606-6.993" fill="none" stroke="#074b93" stroke-linecap="round" stroke-linejoin="round" stroke-width="3"/></g></svg>