<svg xmlns="http://www.w3.org/2000/svg" width="100.002" height="100"><g id="그룹_12324" data-name="그룹 12324" transform="translate(-790 -4902)"><path id="사각형_17337" data-name="사각형 17337" transform="translate(790 4902)" fill="none" d="M0 0h100v100H0z"/><g id="구성_요소_91_1" data-name="구성 요소 91 – 1" transform="translate(790 4910)"><path id="패스_19057" data-name="패스 19057" d="M1112.261 641.354v-17.29a12 12 0 01-1.03-21.717v9.573l5.586 2.277 5.588-2.277v-9.573a12 12 0 01-1.024 21.717v16.556" transform="translate(-1066.668 -590.227)" fill="#fff"/><path id="패스_19058" data-name="패스 19058" d="M1118.721 618.3h2.882v14.034a7.02 7.02 0 01-7.021 7.018h-.845a7.02 7.02 0 01-7.02-7.018V618.3h5.461" transform="translate(-1064.011 -567.906)" fill="#fff"/><path id="패스_19059" data-name="패스 19059" d="M1144.291 680.616h-20.534a16.789 16.789 0 01-11.934-4.94l-7.258-7.263a1.647 1.647 0 012.33-2.33l7.26 7.263a13.488 13.488 0 009.6 3.976h20.534a13.486 13.486 0 009.6-3.976l14.524-14.523a13.666 13.666 0 003.973-9.6v-26.842a1.647 1.647 0 013.294 0v26.844a17 17 0 01-4.94 11.927l-14.521 14.523a16.779 16.779 0 01-11.93 4.94m-50.281-23.439a1.646 1.646 0 01-1.646-1.646v-26.843a16.762 16.762 0 014.938-11.927l14.521-14.523a16.771 16.771 0 0111.934-4.94h20.534a16.761 16.761 0 0111.93 4.94l7.26 7.26a1.648 1.648 0 01-2.33 2.332l-7.26-7.26a13.488 13.488 0 00-9.6-3.978h-20.534a13.485 13.485 0 00-9.6 3.978l-14.524 14.521a13.486 13.486 0 00-3.976 9.6v26.844a1.646 1.646 0 01-1.646 1.646" transform="translate(-1084.096 -597.296)" fill="#ed6f00"/><path id="패스_19060" data-name="패스 19060" d="M1122.34 643.225a1.644 1.644 0 01-1.646-1.646v-16.553a1.652 1.652 0 011.017-1.526 10.351 10.351 0 003.3-16.983v6.363a1.649 1.649 0 01-1.029 1.526l-5.586 2.277a1.655 1.655 0 01-1.24 0l-5.591-2.277a1.647 1.647 0 01-1.027-1.526v-6.363a10.351 10.351 0 003.3 16.983 1.65 1.65 0 011.022 1.526V635.5a1.647 1.647 0 01-3.294 0v-9.42a13.645 13.645 0 01-.154-24.229 1.647 1.647 0 012.416 1.456v8.467l3.944 1.6 3.938-1.6v-8.467a1.647 1.647 0 012.416-1.456 13.643 13.643 0 01-.149 24.229v15.5a1.646 1.646 0 01-1.646 1.646" transform="translate(-1067.63 -591.186)" fill="#ed6f00"/><path id="패스_19061" data-name="패스 19061" d="M1115.547 641.958h-.845a8.675 8.675 0 01-8.666-8.666V619.26a1.649 1.649 0 011.646-1.648h5.461a1.647 1.647 0 010 3.294h-3.815v12.385a5.382 5.382 0 005.375 5.372h.845a5.38 5.38 0 005.372-5.372v-12.385h-1.233a1.647 1.647 0 110-3.294h2.879a1.65 1.65 0 011.648 1.648v14.031a8.677 8.677 0 01-8.667 8.666" transform="translate(-1064.964 -568.867)" fill="#ed6f00"/><path id="패스_19062" data-name="패스 19062" d="M1098.785 630.094h-.029a1.649 1.649 0 01-1.238-.6l-8.22-9.928a1.645 1.645 0 112.536-2.1l7 8.448 7.287-8.22a1.648 1.648 0 012.464 2.188l-8.566 9.655a1.649 1.649 0 01-1.231.552" transform="translate(-1088.918 -569.901)" fill="#ed6f00"/><path id="패스_19063" data-name="패스 19063" d="M1140.662 620.03a1.641 1.641 0 01-1.267-.6l-7-8.448-7.292 8.218a1.647 1.647 0 11-2.464-2.186l8.566-9.655a1.55 1.55 0 011.262-.552 1.649 1.649 0 011.24.6l8.218 9.926a1.647 1.647 0 01-1.267 2.7" transform="translate(-1042.307 -583.984)" fill="#ed6f00"/></g></g></svg>