<svg xmlns="http://www.w3.org/2000/svg" width="100" height="100"><g id="그룹_12326" data-name="그룹 12326" transform="translate(-1272 -4902)"><path id="사각형_17303" data-name="사각형 17303" transform="translate(1272 4902)" fill="none" d="M0 0h100v100H0z"/><g id="구성_요소_93_1" data-name="구성 요소 93 – 1" transform="translate(1273 4908)"><path id="사각형_16906" data-name="사각형 16906" transform="translate(30.593 1.768)" fill="#fff" d="M0 0h27.904v7.7H0z"/><path id="사각형_16907" data-name="사각형 16907" transform="translate(37.757 9.47)" fill="#fff" d="M0 0h13.574v34.506H0z"/><path id="선_1916" data-name="선 1916" transform="translate(35.477 19.015)" fill="#fff" d="M0 0l18.152 4.006"/><path id="선_1917" data-name="선 1917" transform="translate(35.477 24.862)" fill="#fff" d="M0 0l18.152 4.006"/><path id="선_1918" data-name="선 1918" transform="translate(35.864 30.708)" fill="#fff" d="M0 0l18.152 4.008"/><path id="선_1919" data-name="선 1919" transform="translate(35.477 36.013)" fill="#fff" d="M0 0l9.076 2.006"/><path id="패스_19077" data-name="패스 19077" d="M1123.735 780.289l.583-22.019a15.812 15.812 0 01-1.356-28.621v12.616l7.364 3 7.362-3v-12.616a15.81 15.81 0 01-1.351 28.618v21.815" transform="translate(-1050.056 -720.591)" fill="#fff"/><path id="패스_19078" data-name="패스 19078" d="M1132.661 749.213h3.794V767.7a9.248 9.248 0 01-9.249 9.251h-1.113a9.248 9.248 0 01-9.249-9.251v-18.487h7.195" transform="translate(-1046.376 -689.724)" fill="#fff"/><path id="패스_19079" data-name="패스 19079" d="M1114.065 745.274h-9.865a8.142 8.142 0 00-4.98 2.062l-6.973 6.973a8.115 8.115 0 00-2.062 4.98v9.862a8.12 8.12 0 002.062 4.98l6.973 6.975a8.139 8.139 0 004.98 2.06h9.862a8.132 8.132 0 004.98-2.06l6.973-6.975a8.121 8.121 0 002.062-4.98v-9.862a8.116 8.116 0 00-2.062-4.98l-6.973-6.973a8.135 8.135 0 00-4.98-2.062" transform="translate(-1088.435 -695.939)" fill="#fff"/><path id="선_1920" data-name="선 1920" transform="translate(11.84 68.281)" fill="#fff" d="M0 0h17.745"/><path id="선_1921" data-name="선 1921" transform="translate(20.707 59.41)" fill="#fff" d="M0 0v17.745"/><path id="패스_19080" data-name="패스 19080" d="M1130.36 737.377h-27.917a1.773 1.773 0 01-1.753-1.773v-7.694a1.773 1.773 0 011.753-1.773h27.917a1.756 1.756 0 011.753 1.773v7.69a1.756 1.756 0 01-1.753 1.773m-26.138-3.542h24.365v-4.161h-24.365z" transform="translate(-1071.863 -726.135)" fill="#ed6f00"/><path id="패스_19081" data-name="패스 19081" d="M1118.808 767.169h-13.585a1.755 1.755 0 01-1.753-1.771V730.89a1.755 1.755 0 011.753-1.768h13.585a1.777 1.777 0 011.778 1.768v34.51a1.777 1.777 0 01-1.778 1.771M1107 763.63h10.038v-30.966H1107z" transform="translate(-1067.478 -721.422)" fill="#ed6f00"/><path id="패스_19082" data-name="패스 19082" d="M1122.5 740.368a1.738 1.738 0 01-.382-.044l-18.152-4.006a1.769 1.769 0 01-1.348-2.109 1.79 1.79 0 012.109-1.346l18.15 4.006a1.769 1.769 0 01-.376 3.5" transform="translate(-1068.88 -715.579)" fill="#ed6f00"/><path id="패스_19083" data-name="패스 19083" d="M1122.5 742.637a1.738 1.738 0 01-.382-.044l-18.152-4.006a1.769 1.769 0 01-1.348-2.108 1.792 1.792 0 012.109-1.346l18.15 4.006a1.769 1.769 0 01-.376 3.5" transform="translate(-1068.88 -711.999)" fill="#ed6f00"/><path id="패스_19084" data-name="패스 19084" d="M1122.665 744.906a1.757 1.757 0 01-.384-.044l-18.152-4.008a1.77 1.77 0 01-1.346-2.108 1.8 1.8 0 012.111-1.346l18.15 4.008a1.77 1.77 0 01-.379 3.5" transform="translate(-1068.627 -708.418)" fill="#ed6f00"/><path id="패스_19085" data-name="패스 19085" d="M1113.429 744.962a1.772 1.772 0 01-.384-.044l-9.076-2a1.77 1.77 0 11.765-3.457l9.073 2.005a1.77 1.77 0 01-.379 3.5" transform="translate(-1068.878 -705.174)" fill="#ed6f00"/><path id="패스_19086" data-name="패스 19086" d="M1137.423 782.932a1.766 1.766 0 01-1.769-1.768v-21.815a1.777 1.777 0 011.093-1.639 14.036 14.036 0 003.8-23.653v9.29a1.773 1.773 0 01-1.1 1.639l-7.362 3a1.785 1.785 0 01-1.335 0l-7.365-3a1.771 1.771 0 01-1.1-1.639v-9.29a14.037 14.037 0 003.8 23.656 1.779 1.779 0 011.1 1.639v13.8a1.77 1.77 0 11-3.539 0v-12.659a17.578 17.578 0 01-.413-31.325 1.765 1.765 0 012.593 1.562v11.425l5.6 2.281 5.594-2.281V730.73a1.767 1.767 0 012.593-1.562 17.573 17.573 0 01-.407 31.319v20.676a1.768 1.768 0 01-1.768 1.768" transform="translate(-1051.138 -721.672)" fill="#ed6f00"/><path id="패스_19087" data-name="패스 19087" d="M1128.3 779.805h-1.111a11.033 11.033 0 01-11.022-11.017V750.3a1.77 1.77 0 011.771-1.771h7.195a1.77 1.77 0 110 3.539h-5.433v16.722a7.487 7.487 0 007.481 7.478h1.111a7.487 7.487 0 007.478-7.478v-16.724h-2.023a1.77 1.77 0 010-3.539h3.794a1.769 1.769 0 011.769 1.771v18.49a11.032 11.032 0 01-11.017 11.017" transform="translate(-1047.451 -690.807)" fill="#ed6f00"/><path id="패스_19088" data-name="패스 19088" d="M1115.153 786.019h-9.863a9.827 9.827 0 01-6.228-2.578l-6.975-6.975a9.816 9.816 0 01-2.581-6.23v-9.862a9.789 9.789 0 012.583-6.23l6.97-6.975a9.852 9.852 0 016.23-2.58h9.863a9.824 9.824 0 016.23 2.58l6.975 6.975a9.8 9.8 0 012.578 6.23v9.862a9.812 9.812 0 01-2.578 6.228l-6.975 6.978a9.822 9.822 0 01-6.23 2.578m-9.863-37.893a6.385 6.385 0 00-3.73 1.544l-6.97 6.973a6.362 6.362 0 00-1.547 3.73v9.862a6.373 6.373 0 001.547 3.727l6.973 6.973a6.358 6.358 0 003.727 1.544h9.863a6.357 6.357 0 003.727-1.544l6.976-6.973a6.379 6.379 0 001.542-3.727v-9.862a6.374 6.374 0 00-1.542-3.73l-6.976-6.973a6.362 6.362 0 00-3.727-1.544z" transform="translate(-1089.507 -697.023)" fill="#ed6f00"/><path id="패스_19089" data-name="패스 19089" d="M1112.925 755.477h-17.745a1.77 1.77 0 110-3.539h17.745a1.77 1.77 0 010 3.539" transform="translate(-1083.351 -685.424)" fill="#ed6f00"/><path id="패스_19090" data-name="패스 19090" d="M1098.623 769.781a1.768 1.768 0 01-1.768-1.768v-17.748a1.768 1.768 0 113.536 0v17.748a1.768 1.768 0 01-1.768 1.768" transform="translate(-1077.915 -690.856)" fill="#ed6f00"/></g></g></svg>