<svg xmlns="http://www.w3.org/2000/svg" width="110" height="100"><g id="그룹_12325" data-name="그룹 12325" transform="translate(-1026 -4902)"><path id="사각형_17312" data-name="사각형 17312" transform="translate(1031 4902)" fill="none" d="M0 0h100v100H0z"/><g id="구성_요소_92_1" data-name="구성 요소 92 – 1" transform="translate(1026 4914.177)"><path id="패스_19064" data-name="패스 19064" d="M1085.37 703v19.44a5.407 5.407 0 005.374 5.441h88.2l-.325-49.745v-5.552a5.409 5.409 0 00-5.374-5.444h-82.5a5.409 5.409 0 00-5.374 5.444V703z" transform="translate(-1083.594 -665.366)" fill="#fff"/><path id="선_1914" data-name="선 1914" transform="translate(10.887 44.308)" fill="#fff" d="M0 0h49.122"/><path id="패스_19065" data-name="패스 19065" d="M1109.054 689.128a3.384 3.384 0 11-3.383-3.383 3.384 3.384 0 013.383 3.383" transform="translate(-1057.213 -636.367)" fill="#fff"/><path id="사각형_16905" data-name="사각형 16905" transform="translate(29.635 71.852)" fill="#fff" d="M0 0h37.714v4.235H0z"/><path id="패스_19066" data-name="패스 19066" d="M1099.24 700.142l2-9.533h18.536l1.8 10.137" transform="translate(-1062.036 -628.896)" fill="#fff"/><path id="패스_19067" data-name="패스 19067" d="M1151.459 687.116a20.923 20.923 0 10-15.969 27.384l6.282 18.1a2.389 2.389 0 003.036 1.476l2.265-.784a2.382 2.382 0 001.475-3.034l-6.326-18.233a20.928 20.928 0 009.236-24.9" transform="translate(-1044.389 -656.839)" fill="#fff"/><path id="선_1915" data-name="선 1915" transform="translate(93.558 62.546)" fill="#fff" d="M0 2.343L6.782 0"/><path id="패스_19068" data-name="패스 19068" d="M1158.911 708.746H1091.9a7.223 7.223 0 01-7.217-7.219v-19.438a1.777 1.777 0 113.554 0v19.437a3.666 3.666 0 003.663 3.665h67.011a1.777 1.777 0 010 3.554" transform="translate(-1084.684 -645.011)" fill="#ed6f00"/><path id="패스_19069" data-name="패스 19069" d="M1086.439 695.357a1.764 1.764 0 01-1.755-1.776v-19.907a7.183 7.183 0 017.132-7.217h82.531a7.183 7.183 0 017.134 7.217v5.558a1.757 1.757 0 11-3.514 0v-5.558a3.643 3.643 0 00-3.62-3.66h-82.531a3.645 3.645 0 00-3.621 3.66v19.908a1.765 1.765 0 01-1.755 1.776" transform="translate(-1084.684 -666.457)" fill="#ed6f00"/><path id="패스_19070" data-name="패스 19070" d="M1139.106 686.615h-49.122a1.777 1.777 0 110-3.554h49.122a1.777 1.777 0 010 3.554" transform="translate(-1079.089 -640.534)" fill="#ed6f00"/><path id="패스_19071" data-name="패스 19071" d="M1106.767 695.379a5.16 5.16 0 115.159-5.159 5.167 5.167 0 01-5.159 5.159m0-6.766a1.606 1.606 0 101.607 1.607 1.609 1.609 0 00-1.607-1.607" transform="translate(-1058.289 -637.464)" fill="#ed6f00"/><path id="패스_19072" data-name="패스 19072" d="M1135.12 701.628h-37.714a1.783 1.783 0 01-1.786-1.776v-4.235a1.783 1.783 0 011.786-1.778h37.714a1.783 1.783 0 011.786 1.778v4.235a1.782 1.782 0 01-1.786 1.776m-35.928-3.551h34.163v-.684h-34.163z" transform="translate(-1067.765 -623.766)" fill="#ed6f00"/><path id="패스_19073" data-name="패스 19073" d="M1121.994 703.615a1.776 1.776 0 01-1.747-1.468l-1.543-8.669h-15.559l-.64 3.6a1.777 1.777 0 01-3.5-.624l.9-5.068a1.774 1.774 0 011.747-1.468h18.548a1.774 1.774 0 011.747 1.47l1.8 10.137a1.775 1.775 0 01-1.439 2.058 1.845 1.845 0 01-.313.029" transform="translate(-1062.456 -629.987)" fill="#ed6f00"/><path id="패스_19074" data-name="패스 19074" d="M1145.123 737.074a4.181 4.181 0 01-1.82-.422 4.135 4.135 0 01-2.115-2.387l-5.8-16.7a22.838 22.838 0 01-24.065-15.117 22.7 22.7 0 1134.137 11.413l5.863 16.9a4.165 4.165 0 01-2.576 5.3l-2.265.782a4.125 4.125 0 01-1.364.23m-8.534-23.26a1.777 1.777 0 011.677 1.2l6.285 18.1a.582.582 0 00.308.352.606.606 0 00.471.026l2.263-.782a.61.61 0 00.352-.311.6.6 0 00.026-.466l-6.327-18.233a1.776 1.776 0 01.787-2.117 19.2 19.2 0 10-6.169 2.27 1.754 1.754 0 01.326-.031m-3.792-2.8a15.951 15.951 0 115.2-.872 16 16 0 01-5.2.872m4.62-2.552zm-4.646-25.843a12.425 12.425 0 00-11.729 16.478 12.42 12.42 0 1011.729-16.478" transform="translate(-1045.476 -657.931)" fill="#ed6f00"/><path id="패스_19075" data-name="패스 19075" d="M1122.351 696.081a1.776 1.776 0 01-.58-3.456l6.782-2.343a1.777 1.777 0 111.159 3.36l-6.779 2.343a1.905 1.905 0 01-.582.1" transform="translate(-1028.792 -629.429)" fill="#ed6f00"/><path id="패스_19076" data-name="패스 19076" d="M1120.759 693.092a1.776 1.776 0 01-1.178-.448l-18.958-16.766-8.511 7.83a1.778 1.778 0 11-2.4-2.619l9.692-8.91a1.772 1.772 0 012.379-.023l18.917 16.729 12.7-12.51a1.777 1.777 0 012.493 2.534L1122 692.582a1.767 1.767 0 01-1.245.51" transform="translate(-1077.62 -658.3)" fill="#ed6f00"/></g></g></svg>