<svg xmlns="http://www.w3.org/2000/svg" width="101" height="101.549"><g id="그룹_12303" data-name="그룹 12303" transform="translate(-548 -4659)"><path id="사각형_17185" data-name="사각형 17185" transform="translate(549 4659)" fill="none" d="M0 0h100v100H0z"/><g id="구성_요소_46_1" data-name="구성 요소 46 – 1" transform="translate(549.5 4695.5)"><path id="패스_19122" data-name="패스 19122" d="M61.978 37.832h6.17v6.2m-20.6-6.2h6.17v6.2m-20.6-6.2h6.165v6.2m-27.632 1.1V25.59h77.963v37.959H11.651v-8.5M0 63.549h97.775M86.894 19.39H70.863v-3.521h16.031zM11.683 38.598l-8.809-.07V26.667l8.809.067zM68.528 9.854H30.783a2.353 2.353 0 00-2.347 2.357l-.01 4.437H22.77l.015-5.674a6.8 6.8 0 016.771-6.8h44.782m-.013 15.22v6.2h9.023v-6.2m0-8.115V0h-9.023v15.868m-56.357 9.724v-8.736h35.825v8.736" fill="none" stroke="#074b93" stroke-linecap="round" stroke-linejoin="round" stroke-width="3"/></g></g></svg>