<svg xmlns="http://www.w3.org/2000/svg" width="100.999" height="100"><g id="그룹_12316" data-name="그룹 12316" transform="translate(-307 -4658)"><path id="사각형_17350" data-name="사각형 17350" transform="translate(307 4658)" fill="none" d="M0 0h100v100H0z"/><g id="구성_요소_83_1" data-name="구성 요소 83 – 1" transform="translate(308 4674)"><path id="패스_18943" data-name="패스 18943" d="M1083.7 638.3v-18.272h-85.916V638.3h10.7" transform="translate(-996.041 -579.295)" fill="#fff"/><path id="패스_18944" data-name="패스 18944" d="M1041.618 633.855a10.94 10.94 0 11-10.94-10.94 10.94 10.94 0 0110.94 10.94" transform="translate(-962.218 -574.847)" fill="#fff"/><path id="선_1896" data-name="선 1896" transform="translate(34.329 59.007)" fill="#fff" d="M0 0h23.191"/><path id="패스_18945" data-name="패스 18945" d="M1000.93 632.281v-19.926h33.628v19.492" transform="translate(-991.195 -591.117)" fill="#fff"/><path id="패스_18946" data-name="패스 18946" d="M1014.17 631.848v-19.492h33.63v19.421" transform="translate(-970.796 -591.115)" fill="#fff"/><path id="사각형_16891" data-name="사각형 16891" transform="translate(26.565 1.744)" fill="#fff" d="M0 0h33.628v19.494H0z"/><path id="패스_18947" data-name="패스 18947" d="M1003.862 639.972a10.939 10.939 0 119.073 4.825" transform="translate(-989.554 -574.849)" fill="#fff"/><path id="패스_18948" data-name="패스 18948" d="M1027.9 628.675a2.4 2.4 0 11-2.4-2.4 2.4 2.4 0 012.4 2.4" transform="translate(-957.035 -569.667)" fill="#fff"/><path id="패스_18949" data-name="패스 18949" d="M1010.157 628.675a2.4 2.4 0 11-2.4-2.4 2.4 2.4 0 012.4 2.4" transform="translate(-984.365 -569.667)" fill="#fff"/><path id="패스_18950" data-name="패스 18950" d="M1084.755 641.1a1.741 1.741 0 01-1.743-1.743v-16.528h-82.428v14.787h8.961a1.744 1.744 0 110 3.488h-10.7a1.742 1.742 0 01-1.743-1.743v-18.275a1.743 1.743 0 011.743-1.745h85.914a1.743 1.743 0 011.743 1.745v18.275a1.742 1.742 0 01-1.743 1.743" transform="translate(-997.098 -580.354)" fill="#ed6f00"/><path id="패스_18951" data-name="패스 18951" d="M1037.668 664.746h-8.26a1.744 1.744 0 110-3.488h6.516v-48.346a1.744 1.744 0 01.765-1.446l10.6-7.172a1.745 1.745 0 111.954 2.891l-9.83 6.649V663a1.743 1.743 0 01-1.743 1.743" transform="translate(-950.012 -603.996)" fill="#ed6f00"/><path id="패스_18952" data-name="패스 18952" d="M1031.732 647.6a12.684 12.684 0 1112.685-12.685 12.7 12.7 0 01-12.685 12.685m0-21.88a9.2 9.2 0 109.195 9.194 9.207 9.207 0 00-9.195-9.194" transform="translate(-963.282 -575.906)" fill="#ed6f00"/><path id="패스_18953" data-name="패스 18953" d="M1034.86 630.022h-23.191a1.744 1.744 0 010-3.488h23.191a1.744 1.744 0 010 3.488" transform="translate(-977.334 -569.273)" fill="#ed6f00"/><path id="패스_18954" data-name="패스 18954" d="M1035.619 634.651a1.742 1.742 0 01-1.743-1.743v-17.749h-30.142v9.21a1.743 1.743 0 11-3.486 0v-10.956a1.745 1.745 0 011.743-1.745h33.628a1.743 1.743 0 011.743 1.745v19.494a1.741 1.741 0 01-1.743 1.743" transform="translate(-992.244 -592.175)" fill="#ed6f00"/><path id="패스_18955" data-name="패스 18955" d="M1015.227 634.651a1.743 1.743 0 01-1.743-1.743v-19.495a1.745 1.745 0 011.743-1.745h33.625a1.743 1.743 0 011.743 1.745v10.335a1.743 1.743 0 11-3.486 0v-8.59h-30.14v17.749a1.741 1.741 0 01-1.743 1.743" transform="translate(-971.853 -592.175)" fill="#ed6f00"/><path id="패스_18956" data-name="패스 18956" d="M1042.251 626.979h-33.638a1.752 1.752 0 01-1.753-1.745v-19.495a1.75 1.75 0 011.753-1.743h33.638a1.728 1.728 0 011.728 1.743v19.494a1.73 1.73 0 01-1.728 1.745m-31.885-3.491h30.14v-16.005h-30.14z" transform="translate(-982.058 -603.996)" fill="#ed6f00"/><path id="패스_18957" data-name="패스 18957" d="M1013.992 647.6a1.744 1.744 0 010-3.488 9.188 9.188 0 10-7.627-4.055 1.744 1.744 0 01-2.891 1.951 12.686 12.686 0 1110.518 5.592" transform="translate(-990.614 -575.908)" fill="#ed6f00"/><path id="패스_18958" data-name="패스 18958" d="M1027.9 628.675a2.4 2.4 0 11-2.4-2.4 2.4 2.4 0 012.4 2.4" transform="translate(-957.035 -569.667)" fill="#ed6f00"/><path id="패스_18959" data-name="패스 18959" d="M1010.157 628.675a2.4 2.4 0 11-2.4-2.4 2.4 2.4 0 012.4 2.4" transform="translate(-984.365 -569.667)" fill="#ed6f00"/></g></g></svg>