<svg xmlns="http://www.w3.org/2000/svg" width="100" height="100.586"><g id="구성_요소_55_1" data-name="구성 요소 55 – 1" transform="translate(0 .5)" fill="none"><path id="사각형_17184" data-name="사각형 17184" d="M0 0h100v100H0z"/><path id="선_1884" data-name="선 1884" stroke="#00479d" stroke-linecap="round" stroke-miterlimit="10" stroke-width="3" d="M7 98.586h84.95"/><path id="패스_18813" data-name="패스 18813" d="M19.093 98.586V71.608h60.764v19.635m-47.586-9.175h6.06v6.06m8.116-6.06h6.057v6.06m8.116-6.06h6.06v6.06m-6.715-16.52v-18.4h7.371v11.629m-7.371-4.585h6.715" stroke="#00479d" stroke-linecap="round" stroke-linejoin="round" stroke-width="3"/><path id="패스_18814" data-name="패스 18814" d="M32.833 40.735a4.651 4.651 0 01-3.612-4.641c0-5.977 4.6-12 4.6-12a1.494 1.494 0 012.539.039s4.65 6.455 4.65 11.958a4.593 4.593 0 01-3.2 4.506m-4.969.33c-6.818-.653-11.823-4.627-11.823-11.721 0-14.283 12.625-27.586 12.625-27.586a1.922 1.922 0 012.878.051s12.685 14.381 12.685 27.535c0 6.813-4.832 10.767-11.254 11.647m25.35.074c-7.238 0-14.1-4.627-14.1-11.721 0-14.283 12.63-27.586 12.63-27.586a1.922 1.922 0 012.878.051s12.695 14.384 12.695 27.538c0 6.813-6.855 11.721-14.1 11.721zm7.368-15.141a5.8 5.8 0 01-.2 4.179 4.7 4.7 0 01-2.941 2.983" stroke="#00479d" stroke-linecap="round" stroke-miterlimit="10" stroke-width="3"/></g></svg>