<svg xmlns="http://www.w3.org/2000/svg" width="100" height="100"><g id="그룹_12312" data-name="그룹 12312" transform="translate(-790 -4418)"><path id="사각형_17348" data-name="사각형 17348" transform="translate(790 4418)" fill="none" d="M0 0h100v100H0z"/><g id="구성_요소_79_1" data-name="구성 요소 79 – 1" transform="translate(803 4418)"><path id="패스_18895" data-name="패스 18895" d="M1060.489 400.836l7.283 4.265 7.432-7.429-4.215-7.2 2.556-6.376 8.169-2.135v-10.514l-8.073-2.112-2.7-6.318 4.261-7.286-7.432-7.429-7.2 4.215-6.376-2.556-2.132-8.169h-10.512l-2.112 8.076-6.318 2.7-7.286-4.265-7.429 7.429 4.22 7.207-2.562 6.373-8.167 2.135v10.509l8.076 2.112 2.7 6.318-4.264 7.286 7.429 7.429 7.2-4.218" transform="translate(-1009.885 -339.785)" fill="#fff"/><path id="패스_18896" data-name="패스 18896" d="M1028.023 397.561v-21.153a15.016 15.016 0 01-1.29-27.184v11.983l6.99 2.852 7-2.852v-11.983a15.018 15.018 0 01-1.29 27.184v20.717" transform="translate(-996.782 -325.476)" fill="#fff"/><path id="패스_18897" data-name="패스 18897" d="M1035.674 365.6h3.61v17.561a8.787 8.787 0 01-8.79 8.784h-1.059a8.781 8.781 0 01-8.78-8.784V365.6h6.835" transform="translate(-993.026 -293.953)" fill="#fff"/><path id="패스_18898" data-name="패스 18898" d="M1069.1 408.431a2.022 2.022 0 01-1.015-.275l-7.286-4.264a2.008 2.008 0 112.03-3.466l5.947 3.484 5.241-5.241-3.434-5.864a1.992 1.992 0 01-.129-1.758l2.553-6.379a2.015 2.015 0 011.357-1.2l6.669-1.743v-7.405l-6.572-1.72a2 2 0 01-1.34-1.155l-2.7-6.318a2.016 2.016 0 01.111-1.8l3.484-5.946-5.239-5.236-5.865 3.428a2.008 2.008 0 01-1.761.132l-6.382-2.556a2.012 2.012 0 01-1.193-1.357l-1.743-6.669h-7.409l-1.72 6.578a2.012 2.012 0 01-1.15 1.334l-6.321 2.7a2.022 2.022 0 01-1.8-.111l-5.943-3.481-5.241 5.239 3.436 5.864a1.984 1.984 0 01.132 1.764l-2.562 6.379a2.014 2.014 0 01-1.354 1.193l-6.666 1.74v7.406l6.575 1.723a2 2 0 011.34 1.152l2.7 6.318a2.026 2.026 0 01-.111 1.8l-3.486 5.946 5.238 5.238 5.867-3.434a2.008 2.008 0 112.027 3.466l-7.2 4.218a2 2 0 01-2.431-.313l-7.432-7.429a2.009 2.009 0 01-.313-2.436l3.755-6.409-1.913-4.487-7.125-1.86a2.008 2.008 0 01-1.5-1.942v-10.512a2.007 2.007 0 011.5-1.939l7.187-1.881 1.819-4.525-3.72-6.353a2 2 0 01.31-2.434l7.432-7.432a2.013 2.013 0 012.431-.313l6.411 3.756 4.484-1.916 1.866-7.125a2.005 2.005 0 011.939-1.5h10.512a2.006 2.006 0 011.942 1.5l1.878 7.189 4.528 1.816 6.349-3.72a2.016 2.016 0 012.434.313l7.432 7.432a2.01 2.01 0 01.313 2.431l-3.753 6.414 1.916 4.484 7.122 1.863a2.007 2.007 0 011.5 1.939v10.512a2.008 2.008 0 01-1.5 1.942l-7.189 1.878-1.817 4.525 3.721 6.353a2.018 2.018 0 01-.313 2.436l-7.432 7.429a2.007 2.007 0 01-1.419.588" transform="translate(-1011.209 -341.105)" fill="#ed6f00"/><path id="패스_18899" data-name="패스 18899" d="M1040.752 400.454a2.006 2.006 0 01-2.006-2.006v-20.723a2.011 2.011 0 011.24-1.854 13.007 13.007 0 004.063-21.428v8.087a2 2 0 01-1.252 1.857l-7 2.852a2.047 2.047 0 01-1.512 0l-6.994-2.852a2.008 2.008 0 01-1.252-1.857v-8.09a13.011 13.011 0 004.06 21.431 2.011 2.011 0 011.249 1.857v13.106a2.009 2.009 0 11-4.019 0v-11.819a17.022 17.022 0 01-.217-30.244 2.006 2.006 0 012.943 1.775v10.632l4.987 2.033 4.987-2.033v-10.632a2.006 2.006 0 012.943-1.775 17.022 17.022 0 01-.217 30.244v19.433a2 2 0 01-2.006 2.006" transform="translate(-998.104 -326.799)" fill="#ed6f00"/><path id="패스_18900" data-name="패스 18900" d="M1031.818 395.275h-1.059a10.805 10.805 0 01-10.79-10.793v-17.559a2.007 2.007 0 012.007-2.009h6.832a2.008 2.008 0 110 4.016h-4.823v15.552a6.783 6.783 0 006.774 6.777h1.059a6.781 6.781 0 006.777-6.777V368.93H1037a2.008 2.008 0 110-4.016h3.6a2.01 2.01 0 012.013 2.009v17.558a10.806 10.806 0 01-10.8 10.793" transform="translate(-994.347 -295.275)" fill="#ed6f00"/></g></g></svg>