<svg xmlns="http://www.w3.org/2000/svg" width="100" height="100"><g id="그룹_12320" data-name="그룹 12320" transform="translate(-1272 -4660)"><path id="사각형_17319" data-name="사각형 17319" transform="translate(1272 4660)" fill="none" d="M0 0h100v100H0z"/><g id="구성_요소_87_1" data-name="구성 요소 87 – 1" transform="translate(1272 4661)"><path id="패스_18997" data-name="패스 18997" d="M1111.654 349.375v14.054a10.246 10.246 0 002.619 6.3l4.781 4.767a10.3 10.3 0 006.311 2.608h6.768a10.308 10.308 0 006.327-2.616l4.776-4.759a10.26 10.26 0 002.619-6.3v-14.054m-26.768 33.784v-7.781m19.338 0v7.781m-34.4 0h15.062l-.422-9 4.609 2.439 10.574-.272 4.61-1.625-.033 8.454h8.731a14.947 14.947 0 018.445 3.155l9.306 8.086c2 1.737 3.687 4.46 3.763 6.06l-.12 1.239-1.38 11.609a5.559 5.559 0 01-5.38 4.762h-57.765m30.234-22.989l-1.312 2.731a1.993 1.993 0 01-1.9 1.386h-4.587a2 2 0 01-1.9-1.386l-1.314-2.731" transform="translate(-1070.524 -322.522)" fill="#fff"/><path id="패스_18998" data-name="패스 18998" d="M1119.445 373.369h-6.39a1.773 1.773 0 01-1.773-1.772v-2.151a1.772 1.772 0 011.773-1.77h6.39a1.77 1.77 0 011.772 1.77v2.154a1.771 1.771 0 01-1.772 1.772" transform="translate(-1058.023 -290.998)" fill="#fff"/><path id="패스_18999" data-name="패스 18999" d="M1122.119 376.579l-1.527-6.812h-6.877l-2.957 13.18" transform="translate(-1058.927 -287.396)" fill="#fff"/><path id="패스_19000" data-name="패스 19000" d="M1130.717 375.171h-9.761a1.772 1.772 0 01-1.772-1.772v-2.149a1.773 1.773 0 011.772-1.772h9.761a1.771 1.771 0 011.772 1.772v2.15a1.771 1.771 0 01-1.772 1.772" transform="translate(-1044.411 -287.893)" fill="#fff"/><path id="패스_19001" data-name="패스 19001" d="M1110.27 358.546l1.07-12.412c.185-2.17.4-4.394.482-4.939s1.936-1 4.12-1h4.108c2.183 0 4.038.449 4.116 1s.294 2.769.482 4.939l1.07 12.412" transform="translate(-1059.766 -338.329)" fill="#fff"/><path id="패스_19002" data-name="패스 19002" d="M1148.3 358.546c-.754 0-1.933-1.7-2.614-3.765l-1.157-3.5a11.63 11.63 0 00-4.718-5.676l-2.731-1.5c-1.917-1.051-3.547-2.358-3.629-2.9s-1.928-1-4.117-1h-4.106c-2.186 0-4.041.449-4.122 1s-1.677 1.9-3.564 3.006l-3.376 1.993A11.709 11.709 0 001109.6 352l-.828 2.753c-.626 2.083-1.759 3.792-2.516 3.792s-1.375 1.266-1.375 2.813.457 2.807 1.01 2.807 2.8.106 4.982.231l11.756.692c2.18.125 5.755.125 7.936 0l11.756-.692c2.181-.125 4.727-.231 5.655-.231s1.694-1.263 1.694-2.807-.624-2.812-1.378-2.812" transform="translate(-1069.042 -338.329)" fill="#fff"/><path id="사각형_16903" data-name="사각형 16903" transform="translate(1.882 54.533)" fill="#fff" d="M0 0h31.007v41.018H0z"/><path id="사각형_16904" data-name="사각형 16904" transform="translate(10.223 62.877)" fill="#fff" d="M0 0h14.307v5.587H0z"/><path id="선_1906" data-name="선 1906" transform="translate(10.223 80.923)" fill="#fff" d="M14.307 0H0"/><path id="선_1907" data-name="선 1907" transform="translate(10.223 86.667)" fill="#fff" d="M14.307 0H0"/><path id="패스_19003" data-name="패스 19003" d="M1158.966 421.123h-51.441a1.869 1.869 0 010-3.738h51.441a3.676 3.676 0 003.523-3.115l1.5-12.807a10.567 10.567 0 00-3.128-4.471l-9.3-8.086a13.205 13.205 0 00-7.223-2.7h-6.964l-.594 10.561a2.869 2.869 0 01-4.533 2.17l-.016-.011-.419.874a3.738 3.738 0 01-3.58 2.442h-4.585a3.847 3.847 0 01-3.675-2.679l-.318-.645-.025.016a2.87 2.87 0 01-4.538-2.167l-.586-10.561h-6.973a1.87 1.87 0 010-3.741h6.869v-5.978l-4.269-4.255a12 12 0 01-3.169-7.626v-14.049a1.87 1.87 0 013.741 0v14.054a8.5 8.5 0 002.066 4.98l4.781 4.767a8.554 8.554 0 004.993 2.061h6.768a8.563 8.563 0 005.01-2.069l4.778-4.759a8.5 8.5 0 002.067-4.98v-14.054a1.869 1.869 0 013.738 0v14.054a11.983 11.983 0 01-3.166 7.626l-4.269 4.255v5.978h6.864a16.838 16.838 0 019.673 3.616l9.306 8.089c2.05 1.783 4.291 4.977 4.4 7.384l-.128 1.506-1.38 11.647a7.465 7.465 0 01-7.236 6.412m-36.246-24.408l.92 1.794h4.585c.027-.082.177-.245.213-.324l.708-1.467-3.216-2.309zm6.3-4.691l4.114 2.957.368-6.553zm-10.656-3.6l.37 6.553 4.114-2.957zm-.229-4.982l7.8 6.267 7.8-6.267v-4.34a11.475 11.475 0 01-4.421 1.054h-6.768a11.362 11.362 0 01-4.408-1.037z" transform="translate(-1067.71 -323.704)" fill="#ed6f00"/><path id="패스_19004" data-name="패스 19004" d="M1120.626 376.42h-6.39a3.644 3.644 0 01-3.64-3.643v-2.151a3.643 3.643 0 013.64-3.637h6.39a3.644 3.644 0 013.64 3.637v2.151a3.646 3.646 0 01-3.64 3.643m-.1-5.794l-6.295.1.1 2.053 6.194-.093zm.1 2.055z" transform="translate(-1059.204 -292.181)" fill="#ed6f00"/><path id="패스_19005" data-name="패스 19005" d="M1111.945 386a1.764 1.764 0 01-.411-.046 1.869 1.869 0 01-1.416-2.232l2.96-13.18a1.864 1.864 0 011.818-1.459h6.88a1.867 1.867 0 011.822 1.459l1.527 6.812a1.868 1.868 0 11-3.646.819l-1.2-5.353h-3.879l-2.63 11.721a1.87 1.87 0 01-1.821 1.459" transform="translate(-1060.107 -288.58)" fill="#ed6f00"/><path id="패스_19006" data-name="패스 19006" d="M1131.9 378.222h-9.761a3.646 3.646 0 01-3.643-3.64v-2.151a3.648 3.648 0 013.643-3.64h9.761a3.645 3.645 0 013.64 3.64v2.151a3.643 3.643 0 01-3.64 3.64m-.1-5.791l-9.665.1.1 2.056 9.567-.1zm.1 2.053z" transform="translate(-1045.595 -289.077)" fill="#ed6f00"/><path id="패스_19007" data-name="패스 19007" d="M1126.9 361.6a1.865 1.865 0 01-1.857-1.707l-1.075-12.415a266.427 266.427 0 00-.37-4 11.11 11.11 0 00-2.366-.226h-4.109a11.1 11.1 0 00-2.366.226c-.1.956-.245 2.491-.37 3.994l-1.073 12.42a1.868 1.868 0 01-3.722-.321l1.07-12.415c.185-2.211.414-4.487.493-5.045.307-2.145 3.417-2.6 5.968-2.6h4.109c2.553 0 5.66.452 5.968 2.6.079.558.308 2.832.492 5.045l1.07 12.415a1.865 1.865 0 01-1.7 2.02 1.844 1.844 0 01-.166.008" transform="translate(-1060.954 -339.512)" fill="#ed6f00"/><path id="패스_19008" data-name="패스 19008" d="M1127.78 368.233c-1.476 0-2.948-.03-4.073-.1l-11.759-.689c-2.132-.122-4.326-.226-4.87-.226-1.751 0-2.884-1.838-2.884-4.68 0-2.469 1.135-4.323 2.755-4.634a7.485 7.485 0 001.22-2.51l.825-2.75a13.615 13.615 0 015.4-6.88l3.379-1.99a13.024 13.024 0 002.753-2.053c.61-1.816 3.488-2.211 5.878-2.211h4.108c2.382 0 5.243.392 5.87 2.186a12.6 12.6 0 002.775 1.944l2.73 1.5a13.55 13.55 0 015.6 6.733l1.154 3.5a7.664 7.664 0 001.307 2.524c1.633.3 2.777 2.154 2.777 4.637 0 2.665-1.53 4.68-3.561 4.68-.909 0-3.411.1-5.549.226l-11.751.689c-1.127.068-2.6.1-4.081.1m-19.758-4.724c1.007.038 2.592.117 4.144.207l11.759.689c2.091.12 5.625.12 7.718 0l11.751-.689c1.984-.114 4.261-.212 5.4-.232a2.27 2.27 0 00.188-.945 3.073 3.073 0 00-.158-1.035c-2.2-.613-3.485-4.185-3.738-4.955l-1.157-3.507a9.77 9.77 0 00-3.841-4.623l-2.733-1.5a11.938 11.938 0 01-4.231-3.373 9.974 9.974 0 00-2.613-.294h-4.114a9.747 9.747 0 00-2.608.294 12.448 12.448 0 01-4.122 3.449l-3.382 1.993a9.811 9.811 0 00-3.716 4.732l-.83 2.753c-.234.781-1.438 4.416-3.651 5.034a3.092 3.092 0 00-.161 1.035 4.835 4.835 0 00.09.969m41.454-1.911zm.583-3.588zm-25.925-15.364zm8.647 0zm-12.344-.539" transform="translate(-1070.233 -339.51)" fill="#ed6f00"/><path id="패스_19009" data-name="패스 19009" d="M1124.609 403.61H1093.6a1.875 1.875 0 01-1.879-1.868v-41.018a1.875 1.875 0 011.879-1.868h31.01a1.875 1.875 0 011.878 1.868v41.018a1.875 1.875 0 01-1.878 1.868m-29.132-3.738h27.269v-37.28h-27.269z" transform="translate(-1091.72 -306.191)" fill="#ed6f00"/><path id="패스_19010" data-name="패스 19010" d="M1110.962 371.247h-14.293a1.877 1.877 0 01-1.879-1.87v-5.589a1.877 1.877 0 011.879-1.868h14.293a1.877 1.877 0 011.879 1.868v5.589a1.877 1.877 0 01-1.879 1.87m-12.442-3.741h10.569v-1.849h-10.569z" transform="translate(-1086.432 -300.913)" fill="#ed6f00"/><path id="패스_19011" data-name="패스 19011" d="M1110.966 372.287h-14.307a1.869 1.869 0 110-3.738h14.307a1.869 1.869 0 010 3.738" transform="translate(-1086.435 -289.495)" fill="#ed6f00"/><path id="패스_19012" data-name="패스 19012" d="M1110.966 374.4h-14.307a1.869 1.869 0 110-3.738h14.307a1.869 1.869 0 010 3.738" transform="translate(-1086.435 -285.862)" fill="#ed6f00"/></g></g></svg>