<svg xmlns="http://www.w3.org/2000/svg" width="100" height="100"><g id="그룹_12311" data-name="그룹 12311" transform="translate(-549 -4418)"><path id="사각형_17347" data-name="사각형 17347" transform="translate(549 4418)" fill="none" d="M0 0h100v100H0z"/><g id="구성_요소_78_1" data-name="구성 요소 78 – 1" transform="translate(549 4431)"><path id="선_1889" data-name="선 1889" transform="translate(1.784 9.759)" fill="#fff" d="M0 48.45V0"/><path id="패스_18876" data-name="패스 18876" d="M1014.669 286.273h80.4v53.373a9.571 9.571 0 01-9.572 9.572h-86.842" transform="translate(-996.863 -276.514)" fill="#fff"/><path id="패스_18877" data-name="패스 18877" d="M998.652 354.121a7.973 7.973 0 0115.947 0v-62.945a7.973 7.973 0 00-15.947 0v48.45" transform="translate(-996.868 -281.417)" fill="#fff"/><path id="패스_18878" data-name="패스 18878" d="M1021.279 313.507a11.963 11.963 0 119.913-18.659" transform="translate(-979.834 -271.231)" fill="#fff"/><path id="패스_18879" data-name="패스 18879" d="M1010.69 293.084a11.964 11.964 0 116.188 20.2" transform="translate(-977.636 -271.229)" fill="#fff"/><path id="패스_18880" data-name="패스 18880" d="M1027.91 293.723v28.532l8.744.1v-28.632z" transform="translate(-950.125 -264.612)" fill="#fff"/><path id="패스_18881" data-name="패스 18881" d="M1031.618 308.45h1.335a3.7 3.7 0 003.7-3.7h-8.744a3.7 3.7 0 003.7 3.7" transform="translate(-950.119 -247.001)" fill="#fff"/><path id="선_1890" data-name="선 1890" transform="translate(77.785 34.605)" fill="#fff" d="M0 0h8.743"/><path id="패스_18882" data-name="패스 18882" d="M1027.91 298.7h8.744l-4.372-8.1z" transform="translate(-950.125 -269.593)" fill="#fff"/><path id="패스_18883" data-name="패스 18883" d="M1013.92 310.457v-16.271h21.989v21.989h-21.989" transform="translate(-972.476 -263.872)" fill="#fff"/><path id="선_1891" data-name="선 1891" transform="translate(77.785 53.796)" fill="#fff" d="M0 3.951V0"/><path id="선_1892" data-name="선 1892" transform="translate(77.785 55.771)" fill="#fff" d="M0 0h8.743"/><path id="패스_18884" data-name="패스 18884" d="M999.748 337.6a1.782 1.782 0 01-1.782-1.782v-48.45a1.782 1.782 0 113.564 0v48.453a1.78 1.78 0 01-1.782 1.782" transform="translate(-997.964 -277.612)" fill="#ed6f00"/><path id="패스_18885" data-name="패스 18885" d="M1086.6 352.1h-86.848a1.783 1.783 0 010-3.567h86.848a7.8 7.8 0 007.79-7.79v-51.59h-70.3a1.783 1.783 0 010-3.567h72.081a1.782 1.782 0 011.782 1.782v53.373A11.369 11.369 0 011086.6 352.1" transform="translate(-997.957 -277.612)" fill="#ed6f00"/><path id="패스_18886" data-name="패스 18886" d="M1015.694 357a1.782 1.782 0 01-1.782-1.782 6.191 6.191 0 00-12.383 0 1.782 1.782 0 11-3.564 0 9.751 9.751 0 0115.947-7.538v-55.407a6.191 6.191 0 00-12.383 0v48.453a1.782 1.782 0 11-3.564 0v-48.453a9.755 9.755 0 1119.51 0v62.947a1.782 1.782 0 01-1.782 1.782" transform="translate(-997.965 -282.516)" fill="#ed6f00"/><path id="패스_18887" data-name="패스 18887" d="M1022.375 316.386a13.747 13.747 0 1111.39-21.441 1.784 1.784 0 01-2.956 2 10.179 10.179 0 10-8.434 15.877 1.783 1.783 0 010 3.566" transform="translate(-980.93 -272.329)" fill="#ed6f00"/><path id="패스_18888" data-name="패스 18888" d="M1037.754 325.238a1.78 1.78 0 01-1.782-1.782V296.6h-5.177v15.887a1.783 1.783 0 01-3.566 0v-17.666a1.782 1.782 0 011.782-1.785h8.744a1.78 1.78 0 011.782 1.785v28.636a1.78 1.78 0 01-1.782 1.782" transform="translate(-951.214 -265.709)" fill="#ed6f00"/><path id="패스_18889" data-name="패스 18889" d="M1034.047 311.329h-1.335a5.493 5.493 0 01-5.489-5.486 1.785 1.785 0 013.569 0 1.92 1.92 0 001.92 1.92h1.335a1.92 1.92 0 001.92-1.92 1.783 1.783 0 013.567 0 5.492 5.492 0 01-5.486 5.486" transform="translate(-951.222 -248.096)" fill="#ed6f00"/><path id="패스_18890" data-name="패스 18890" d="M1037.754 298.718h-8.744a1.783 1.783 0 010-3.566h8.744a1.783 1.783 0 010 3.566" transform="translate(-951.214 -262.331)" fill="#ed6f00"/><path id="패스_18891" data-name="패스 18891" d="M1037.75 301.541h-8.744a1.782 1.782 0 01-1.569-2.629l4.369-8.1a1.857 1.857 0 013.138 0l4.374 8.1a1.784 1.784 0 01-1.569 2.629m-5.756-3.567h2.766l-1.384-2.561z" transform="translate(-951.222 -270.645)" fill="#ed6f00"/><path id="패스_18892" data-name="패스 18892" d="M1037 319.054h-21.989a1.783 1.783 0 010-3.567h20.207v-18.421H1016.8v14.487a1.783 1.783 0 11-3.566 0v-16.269a1.782 1.782 0 011.782-1.785H1037a1.78 1.78 0 011.782 1.785v21.989a1.78 1.78 0 01-1.782 1.782" transform="translate(-973.58 -264.969)" fill="#ed6f00"/><path id="패스_18893" data-name="패스 18893" d="M1029.006 310.056a1.782 1.782 0 01-1.782-1.782v-3.951a1.782 1.782 0 113.564 0v3.951a1.78 1.78 0 01-1.782 1.782" transform="translate(-951.221 -250.528)" fill="#ed6f00"/><path id="패스_18894" data-name="패스 18894" d="M1037.754 306.867h-8.744a1.783 1.783 0 010-3.567h8.744a1.783 1.783 0 010 3.567" transform="translate(-951.214 -249.311)" fill="#ed6f00"/></g></g></svg>