<svg xmlns="http://www.w3.org/2000/svg" width="100.927" height="100"><g id="그룹_12310" data-name="그룹 12310" transform="translate(-1513 -4900)"><path id="사각형_17138" data-name="사각형 17138" transform="translate(1513 4900)" fill="none" d="M0 0h100v100H0z"/><g id="구성_요소_39_1" data-name="구성 요소 39 – 1" transform="translate(1514.5 4916.5)"><path id="패스_19115" data-name="패스 19115" d="M86.809 61.687H0V9.627h86.809zm11.118-3.524H86.809V9.632h11.118zm0-29.834h-5.556V16.918h5.557zM0 61.687V15.444h17.4m0 46.243V15.444h17.4v39.981m-.19-39.979h17.4v46.243m0-46.243h17.4v39.981m6.308-39.981h11.091v46.243M20.243 9.631h-5.686V3.946h5.686zm3.408-5.691h-12.5V-.001h12.5zm31.207 5.691h-5.687V3.946h5.686zm3.4-5.691h-12.5V-.001h12.5zm28.55 63.434H0v-5.686h86.809z" fill="none" stroke="#00479d" stroke-linecap="round" stroke-linejoin="round" stroke-width="3"/></g></g></svg>