<svg xmlns="http://www.w3.org/2000/svg" width="113.838" height="100"><g id="그룹_12308" data-name="그룹 12308" transform="translate(-1024.944 -4900)"><path id="사각형_17152" data-name="사각형 17152" transform="translate(1031 4900)" fill="none" d="M0 0h100v100H0z"/><g id="구성_요소_41_1" data-name="구성 요소 41 – 1" transform="translate(1026.444 4912.826)"><path id="패스_19118" data-name="패스 19118" d="M74.619 62.554H5.603a5.6 5.6 0 01-5.6-5.605V36.936m0-10.832v-20.5a5.6 5.6 0 015.605-5.6H91.58a5.6 5.6 0 015.6 5.6v5.723M9.396 44.266h50.6m-7.917 8.808a3.486 3.486 0 11-3.489-3.483 3.485 3.485 0 013.49 3.479zm15.935 24.285H29.172v-4.363h38.843zm-29.9-9.58l.926-5.221h19.1L59.995 73m49.616-42.817a21.546 21.546 0 10-16.445 28.2l6.468 18.634a2.467 2.467 0 003.128 1.524l2.336-.806a2.461 2.461 0 001.519-3.131l-6.516-18.776a21.553 21.553 0 009.511-25.65zm-15.59 20.853a14.62 14.62 0 119.043-18.6 14.623 14.623 0 01-9.043 18.6zm1.66 14.63l6.983-2.41M11.87 23.18l9.983-9.182 20.759 18.364 14.291-14.08" fill="none" stroke="#00479d" stroke-linecap="round" stroke-linejoin="round" stroke-width="3"/></g></g></svg>