<svg xmlns="http://www.w3.org/2000/svg" width="100" height="100"><g id="그룹_12317" data-name="그룹 12317" transform="translate(-549 -4660)"><path id="사각형_17334" data-name="사각형 17334" transform="translate(549 4660)" fill="none" d="M0 0h100v100H0z"/><g id="구성_요소_84_1" data-name="구성 요소 84 – 1" transform="translate(562 4664)"><path id="사각형_16892" data-name="사각형 16892" transform="translate(1.916 1.907)" fill="#fff" d="M0 0h70.479v87.889H0z"/><path id="선_1897" data-name="선 1897" transform="translate(1.916 15.031)" fill="#fff" d="M0 0h59.2"/><path id="패스_18960" data-name="패스 18960" d="M1020.086 673.957h-3.286a1.58 1.58 0 00-1.574 1.577v11.614a1.58 1.58 0 001.574 1.574h11.611a1.581 1.581 0 001.577-1.574V682.7" transform="translate(-999.85 -644.603)" fill="#fff"/><path id="패스_18961" data-name="패스 18961" d="M1016.99 678.222l2.837 3.684 5.674-7.365" transform="translate(-996.726 -643.564)" fill="#fff"/><path id="패스_18962" data-name="패스 18962" d="M1024.361 684.208h-7.553a1.579 1.579 0 00-1.577 1.579V697.4a1.578 1.578 0 001.577 1.574h11.609a1.579 1.579 0 001.577-1.574v-4.444" transform="translate(-999.85 -626.398)" fill="#fff"/><path id="선_1898" data-name="선 1898" transform="translate(39.418 33.058)" fill="#fff" d="M0 0h21.71"/><path id="선_1899" data-name="선 1899" transform="translate(39.418 40.416)" fill="#fff" d="M0 0h12.677"/><path id="선_1900" data-name="선 1900" transform="translate(39.418 61.514)" fill="#fff" d="M0 0h21.71"/><path id="선_1901" data-name="선 1901" transform="translate(39.418 68.872)" fill="#fff" d="M0 0h12.677"/><path id="패스_18963" data-name="패스 18963" d="M1082.084 755.082h-70.479a1.913 1.913 0 01-1.915-1.9v-87.893a1.912 1.912 0 011.915-1.907h70.479a1.912 1.912 0 011.915 1.907v87.889a1.913 1.913 0 01-1.915 1.9m-68.564-3.814h66.668V667.19h-66.668z" transform="translate(-1009.69 -663.382)" fill="#ed6f00"/><path id="패스_18964" data-name="패스 18964" d="M1070.8 671.921h-59.2a1.906 1.906 0 010-3.811h59.2a1.906 1.906 0 010 3.811" transform="translate(-1009.677 -654.985)" fill="#ed6f00"/><path id="패스_18965" data-name="패스 18965" d="M1029.646 691.846h-11.612a3.487 3.487 0 01-3.481-3.481v-11.614a3.487 3.487 0 013.481-3.481h3.281a1.906 1.906 0 110 3.811h-2.951v10.953h10.951v-4.111a1.906 1.906 0 113.811 0v4.442a3.486 3.486 0 01-3.481 3.481" transform="translate(-1001.054 -645.822)" fill="#ed6f00"/><path id="패스_18966" data-name="패스 18966" d="M1021.042 685.026a1.905 1.905 0 01-1.51-.744l-2.832-3.682a1.905 1.905 0 013.02-2.323l1.327 1.721 4.164-5.4a1.907 1.907 0 013.023 2.326l-5.677 7.361a1.911 1.911 0 01-1.51.741" transform="translate(-997.947 -644.781)" fill="#ed6f00"/><path id="패스_18967" data-name="패스 18967" d="M1029.646 702.1h-11.612a3.487 3.487 0 01-3.481-3.481v-11.613a3.487 3.487 0 013.481-3.484h7.556a1.906 1.906 0 010 3.811h-7.226v10.953h10.951v-4.111a1.906 1.906 0 113.811 0v4.442a3.486 3.486 0 01-3.481 3.481" transform="translate(-1001.054 -627.616)" fill="#ed6f00"/><path id="패스_18968" data-name="패스 18968" d="M1046.817 678.415h-21.71a1.906 1.906 0 010-3.811h21.71a1.906 1.906 0 010 3.811" transform="translate(-985.693 -643.453)" fill="#ed6f00"/><path id="패스_18969" data-name="패스 18969" d="M1037.79 681.067h-12.677a1.906 1.906 0 110-3.811h12.677a1.906 1.906 0 010 3.811" transform="translate(-985.688 -638.744)" fill="#ed6f00"/><path id="패스_18970" data-name="패스 18970" d="M1046.817 688.667h-21.71a1.906 1.906 0 010-3.811h21.71a1.906 1.906 0 010 3.811" transform="translate(-985.693 -625.247)" fill="#ed6f00"/><path id="패스_18971" data-name="패스 18971" d="M1037.79 691.318h-12.677a1.906 1.906 0 110-3.811h12.677a1.906 1.906 0 010 3.811" transform="translate(-985.688 -620.539)" fill="#ed6f00"/></g></g></svg>