<svg xmlns="http://www.w3.org/2000/svg" width="105.735" height="100"><g id="그룹_12314" data-name="그룹 12314" transform="translate(-1269 -4418)"><path id="사각형_17338" data-name="사각형 17338" transform="translate(1272 4418)" fill="none" d="M0 0h100v100H0z"/><g id="구성_요소_81_1" data-name="구성 요소 81 – 1" transform="translate(1269 4431)"><path id="패스_18913" data-name="패스 18913" d="M1027.773 476.641c0 2.489-7.78 4.508-17.383 4.508s-17.385-2.019-17.385-4.508 7.785-4.508 17.385-4.508 17.383 2.019 17.383 4.508" transform="translate(-991.35 -470.488)" fill="#fff"/><path id="패스_18914" data-name="패스 18914" d="M993 474.015v17.912s5.88 4.216 17.383 4.216 17.385-4.216 17.385-4.216v-17.912" transform="translate(-991.351 -467.861)" fill="#fff"/><path id="패스_18915" data-name="패스 18915" d="M1056.427 494.213s-17.73 6.269-17.73 0-17.73 0-17.73 0V472.6h35.461z" transform="translate(-952.335 -469.836)" fill="#fff"/><path id="패스_18916" data-name="패스 18916" d="M1034.848 505.2a13.1 13.1 0 11-13.1-13.1 13.1 13.1 0 0113.1 13.1" transform="translate(-969.537 -442.633)" fill="#fff"/><path id="패스_18917" data-name="패스 18917" d="M1011.34 483.751c-1.947 0-19.026-.173-19.026-6.151 0-4.855 11.958-6.154 19.026-6.154s19.028 1.3 19.028 6.154c0 5.979-17.081 6.151-19.028 6.151m-15.658-6.151c.987 1.1 6.645 2.862 15.658 2.862s14.671-1.762 15.66-2.862c-.987-1.1-6.644-2.862-15.658-2.862s-14.671 1.76-15.658 2.862m31.427.151z" transform="translate(-992.314 -471.446)" fill="#ed6f00"/><path id="패스_18918" data-name="패스 18918" d="M1011.345 498.747c-11.893 0-18.082-4.34-18.343-4.525a1.656 1.656 0 01-.685-1.337v-17.914a1.646 1.646 0 013.291 0v16.993c1.8 1.008 7.121 3.495 15.737 3.495s13.934-2.484 15.737-3.495v-16.993a1.646 1.646 0 013.291 0v17.915a1.657 1.657 0 01-.685 1.337c-.261.184-6.451 4.525-18.344 4.525" transform="translate(-992.311 -468.82)" fill="#ed6f00"/><path id="패스_18919" data-name="패스 18919" d="M1044.351 499.582a8.2 8.2 0 01-4.664-1.1 3.89 3.89 0 01-1.677-3.315.642.642 0 00-.287-.632c-2.06-1.461-10.319.441-15.249 2.182a1.643 1.643 0 01-2.194-1.55v-21.61a1.644 1.644 0 011.643-1.643h35.461a1.643 1.643 0 011.643 1.643v21.613a1.645 1.645 0 01-1.1 1.55c-1.689.6-8.439 2.862-13.579 2.862m-9.395-8.824a8.2 8.2 0 014.664 1.095 3.9 3.9 0 011.677 3.317.643.643 0 00.287.632c1.917 1.353 9.184-.187 14.157-1.808V475.2h-32.169v17.7a42.565 42.565 0 0111.385-2.139m22.428 4.412z" transform="translate(-953.292 -470.793)" fill="#ed6f00"/><path id="패스_18920" data-name="패스 18920" d="M1021.285 480.129h-8.614a1.644 1.644 0 010-3.289h8.614a1.644 1.644 0 010 3.289" transform="translate(-966.202 -463.92)" fill="#ed6f00"/><path id="패스_18921" data-name="패스 18921" d="M1015.139 485.733a1.643 1.643 0 01-.9-3.021l3.31-2.165-3.31-2.165a1.644 1.644 0 111.8-2.752l5.416 3.54a1.646 1.646 0 010 2.755l-5.416 3.54a1.637 1.637 0 01-.9.268" transform="translate(-962.763 -465.984)" fill="#ed6f00"/><path id="패스_18922" data-name="패스 18922" d="M1022.7 520.908a14.749 14.749 0 1114.748-14.748 14.767 14.767 0 01-14.748 14.748m0-26.21a11.461 11.461 0 1011.459 11.462 11.474 11.474 0 00-11.459-11.46" transform="translate(-970.494 -443.592)" fill="#ed6f00"/><path id="패스_18923" data-name="패스 18923" d="M1011.484 496.454a1.64 1.64 0 01-1.162-.481l-6.091-6.089a1.645 1.645 0 012.326-2.326l6.089 6.089a1.644 1.644 0 01-1.162 2.807" transform="translate(-976.354 -449.64)" fill="#ed6f00"/><path id="패스_18924" data-name="패스 18924" d="M1005.919 495.9a1.651 1.651 0 01-1.61-1.308l-1.324-6.336a1.644 1.644 0 011.947-1.945l6.336 1.327a1.644 1.644 0 11-.675 3.217l-3.873-.81.814 3.871a1.651 1.651 0 01-1.615 1.983" transform="translate(-977.472 -450.756)" fill="#ed6f00"/><path id="패스_18925" data-name="패스 18925" d="M1023.7 496.054a1.644 1.644 0 01-1.162-2.807l6.089-6.089a1.645 1.645 0 012.326 2.326l-6.091 6.089a1.64 1.64 0 01-1.162.482" transform="translate(-950.818 -450.197)" fill="#ed6f00"/><path id="패스_18926" data-name="패스 18926" d="M1022.9 497a1.649 1.649 0 01-1.612-1.983l1.327-6.333a1.646 1.646 0 013.222.673l-.814 3.876 3.876-.812a1.644 1.644 0 11.675 3.217l-6.336 1.327a1.619 1.619 0 01-.338.036" transform="translate(-951.934 -449.226)" fill="#ed6f00"/></g></g></svg>