<svg xmlns="http://www.w3.org/2000/svg" width="100" height="101"><g id="구성_요소_51_1" data-name="구성 요소 51 – 1" transform="translate(0 1)" fill="none"><path id="사각형_17173" data-name="사각형 17173" d="M0 0h100v100H0z"/><path id="패스_19121" data-name="패스 19121" d="M8.5 98.328h82.494m-35.285-34.8h-5.537a.628.628 0 01-.63-.63V58.31a.628.628 0 01.63-.63h26.487a.628.628 0 01.63.63v4.586a.628.628 0 01-.63.63H63.417m-12.591 0l1.029 4.177c1.156 4.692 1.291 6.189.394 10.934l-3.682 10.114m28.53 9.577a2.957 2.957 0 002.617-4.2l-5.13-15.486c-.894-4.746-.764-6.243.392-10.934m-33.239 19.83l.644 10.795m-8.5-7.127l1.007-20.208h6.206l.411 10.594m-21.954 7.262l1-29.746h6.206l1.284 39.224M60.29 20.283h3.11L47.269 37.859l4.785-12.349h-8.592l5.63-17.615h11.417l-3.562 7.737m17.2 6.184A21.314 21.314 0 1152.832.501 21.318 21.318 0 0174.15 21.81z" stroke="#074b93" stroke-linecap="round" stroke-linejoin="round" stroke-width="3"/></g></svg>