<svg xmlns="http://www.w3.org/2000/svg" width="112.36" height="100"><g id="그룹_12318" data-name="그룹 12318" transform="translate(-783.82 -4660)"><path id="사각형_17336" data-name="사각형 17336" transform="translate(790 4660)" fill="none" d="M0 0h100v100H0z"/><g id="구성_요소_85_1" data-name="구성 요소 85 – 1" transform="translate(783.82 4674)"><path id="패스_18972" data-name="패스 18972" d="M1089.01 236.642h108.515l-10.692 27.044h-87.349l3.447-8.565z" transform="translate(-1087.096 -192.872)" fill="#fff"/><path id="패스_18973" data-name="패스 18973" d="M1111.079 244.722l5.995-17.009h26.721v25h-35.53" transform="translate(-1052.44 -208.943)" fill="#fff"/><path id="사각형_16893" data-name="사각형 16893" transform="translate(70.33 11.807)" fill="#fff" d="M0 0h15.69v6.963H0z"/><path id="패스_18974" data-name="패스 18974" d="M1123.51 260.753v-37.288h6.577v36.9" transform="translate(-1025.002 -216.588)" fill="#fff"/><path id="사각형_16894" data-name="사각형 16894" transform="translate(93.339 1.921)" fill="#fff" d="M0 0h16.928v4.95H0z"/><path id="사각형_16895" data-name="사각형 16895" transform="translate(80.628 50.738)" fill="#fff" d="M0 0h5.757v2.982H0z"/><path id="사각형_16896" data-name="사각형 16896" transform="translate(89.422 50.738)" fill="#fff" d="M0 0h5.754v2.982H0z"/><path id="사각형_16897" data-name="사각형 16897" transform="translate(12.791 11.813)" fill="#fff" d="M0 0h18.241v31.96H0z"/><path id="사각형_16898" data-name="사각형 16898" transform="translate(31.041 22.463)" fill="#fff" d="M0 0h18.246v21.309H0z"/><path id="선_1902" data-name="선 1902" transform="translate(12.806 22.463)" fill="#fff" d="M0 0h18.244"/><path id="선_1903" data-name="선 1903" transform="translate(12.806 33.117)" fill="#fff" d="M0 0h29.286"/><path id="패스_18975" data-name="패스 18975" d="M1188.069 266.842h-87.346a1.922 1.922 0 01-1.784-2.64l3.043-7.557-13.268-17.611a1.923 1.923 0 011.534-3.08h108.515a1.924 1.924 0 011.789 2.629l-10.7 27.043a1.926 1.926 0 01-1.789 1.215m-84.5-3.844h83.2l9.172-23.2H1094.1l11.6 15.4a1.915 1.915 0 01.249 1.876z" transform="translate(-1088.326 -194.109)" fill="#ed6f00"/><path id="패스_18976" data-name="패스 18976" d="M1145.036 255.871h-35.53a1.922 1.922 0 110-3.844h33.609v-21.153h-23.44l-5.543 15.724a1.921 1.921 0 11-3.623-1.28l5.991-17.009a1.931 1.931 0 011.817-1.282h26.719a1.922 1.922 0 011.921 1.921v25a1.92 1.92 0 01-1.921 1.921" transform="translate(-1053.668 -210.178)" fill="#ed6f00"/><path id="패스_18977" data-name="패스 18977" d="M1130.371 235.344h-15.679a1.928 1.928 0 01-1.932-1.921v-6.96a1.93 1.93 0 011.932-1.923h15.679a1.93 1.93 0 011.932 1.923v6.96a1.928 1.928 0 01-1.932 1.921m-13.747-3.841h11.843v-3.116h-11.843z" transform="translate(-1044.351 -214.654)" fill="#ed6f00"/><path id="패스_18978" data-name="패스 18978" d="M1176.555 246.4h-78.2a1.922 1.922 0 110-3.844h78.2a1.922 1.922 0 010 3.844" transform="translate(-1073.735 -182.229)" fill="#ed6f00"/><path id="패스_18979" data-name="패스 18979" d="M1131.324 263.52a1.92 1.92 0 01-1.921-1.921v-34.975h-2.733V254.9a1.923 1.923 0 11-3.847 0v-30.2a1.925 1.925 0 011.923-1.923h6.577a1.923 1.923 0 011.921 1.923v36.9a1.92 1.92 0 01-1.921 1.921" transform="translate(-1026.237 -217.826)" fill="#ed6f00"/><path id="패스_18980" data-name="패스 18980" d="M1139.841 229.8H1122.9a1.929 1.929 0 01-1.932-1.923v-4.947a1.929 1.929 0 011.932-1.923h16.939a1.9 1.9 0 011.9 1.923v4.947a1.9 1.9 0 01-1.9 1.923m-15.007-3.844h13.084v-1.106h-13.084z" transform="translate(-1029.574 -221.009)" fill="#ed6f00"/><path id="사각형_16899" data-name="사각형 16899" transform="translate(80.628 50.738)" fill="#ed6f00" d="M0 0h5.757v2.982H0z"/><path id="사각형_16900" data-name="사각형 16900" transform="translate(89.422 50.738)" fill="#ed6f00" d="M0 0h5.754v2.982H0z"/><path id="패스_18981" data-name="패스 18981" d="M1112.369 260.347h-18.227a1.93 1.93 0 01-1.932-1.921v-31.963a1.931 1.931 0 011.932-1.923h18.227a1.93 1.93 0 011.932 1.923v31.963a1.93 1.93 0 01-1.932 1.921m-16.323-3.847h14.4v-28.116h-14.4z" transform="translate(-1081.337 -214.654)" fill="#ed6f00"/><path id="패스_18982" data-name="패스 18982" d="M1118.889 253.5h-18.255a1.906 1.906 0 01-1.9-1.921v-21.311a1.9 1.9 0 011.9-1.923h18.255a1.9 1.9 0 011.9 1.923v21.309a1.905 1.905 0 01-1.9 1.921m-16.323-3.847h14.4v-17.462h-14.4z" transform="translate(-1069.602 -207.805)" fill="#ed6f00"/><path id="패스_18983" data-name="패스 18983" d="M1112.372 232.189h-18.244a1.922 1.922 0 010-3.844h18.244a1.922 1.922 0 010 3.844" transform="translate(-1081.34 -207.805)" fill="#ed6f00"/><path id="패스_18984" data-name="패스 18984" d="M1123.421 236h-29.286a1.922 1.922 0 010-3.844h29.286a1.922 1.922 0 010 3.844" transform="translate(-1081.329 -200.955)" fill="#ed6f00"/></g></g></svg>