<svg xmlns="http://www.w3.org/2000/svg" width="100.124" height="100"><g id="그룹_12306" data-name="그룹 12306" transform="translate(-549 -4900)"><path id="사각형_17186" data-name="사각형 17186" transform="translate(549 4900)" fill="none" d="M0 0h100v100H0z"/><g id="구성_요소_43_1" data-name="구성 요소 43 – 1" transform="translate(550.5 4903.5)"><path id="패스_19123" data-name="패스 19123" d="M0 41.958v-20.49a5.593 5.593 0 015.592-5.6h85.934a5.593 5.593 0 015.6 5.6v51.319a5.6 5.6 0 01-5.6 5.6H5.592A5.6 5.6 0 010 72.787V52.778m9.395 7.327h87.729m-45.081 8.8a3.481 3.481 0 11-3.48-3.482 3.481 3.481 0 013.48 3.485zm15.928 24.271H29.15v-4.358h38.822zm-29.879-9.577l.931-5.217h19.08l1.851 10.437m-.613-42.839V35.229a10.3 10.3 0 00-20.6 0v10.754m22.735 4.961h-24.87v-4.519a.436.436 0 01.439-.439h24a.438.438 0 01.439.439zm-10.563-4.961h-3.744v-8.731a1.794 1.794 0 011.793-1.79h.156a1.794 1.794 0 011.8 1.79zM48.454 3.946V.001M60.787 6.67l2.218-2.216M36.338 6.669l-2.216-2.216" fill="none" stroke="#00479d" stroke-linecap="round" stroke-linejoin="round" stroke-width="3"/></g></g></svg>