<svg xmlns="http://www.w3.org/2000/svg" width="100" height="100"><g id="그룹_12315" data-name="그룹 12315" transform="translate(-1513 -4418)"><path id="사각형_17339" data-name="사각형 17339" transform="translate(1513 4418)" fill="none" d="M0 0h100v100H0z"/><g id="구성_요소_82_1" data-name="구성 요소 82 – 1" transform="translate(1513 4431)"><path id="선_1894" data-name="선 1894" transform="translate(1.803 9.772)" fill="#fff" d="M0 48.433V0"/><path id="패스_18927" data-name="패스 18927" d="M1015.5 543.477h79.964v53.352a9.568 9.568 0 01-9.568 9.567h-86.81" transform="translate(-997.281 -533.706)" fill="#fff"/><path id="패스_18928" data-name="패스 18928" d="M999.086 611.334a7.969 7.969 0 1115.937 0v-62.919a7.969 7.969 0 10-15.937 0v48.433" transform="translate(-997.283 -538.643)" fill="#fff"/><path id="패스_18929" data-name="패스 18929" d="M1021.8 553.987a2.873 2.873 0 11-2.871-2.871 2.871 2.871 0 012.871 2.871" transform="translate(-969.64 -521.26)" fill="#fff"/><path id="패스_18930" data-name="패스 18930" d="M1017.15 563.89v-5.666h20.522v5.666" transform="translate(-967.855 -509.681)" fill="#fff"/><path id="선_1895" data-name="선 1895" transform="translate(59.549 29.853)" fill="#fff" d="M0 0v24.356"/><path id="패스_18931" data-name="패스 18931" d="M1029.471 553.987a2.874 2.874 0 11-2.871-2.871 2.871 2.871 0 012.871 2.871" transform="translate(-957.145 -521.26)" fill="#fff"/><path id="패스_18932" data-name="패스 18932" d="M1017.15 553.3v6.191h20.15V553.3" transform="translate(-967.855 -517.703)" fill="#fff"/><path id="패스_18933" data-name="패스 18933" d="M1050.009 548.414h-29.785l-7.8 7.8V576.4h5.458v9.533h34.47V576.4h5.458v-20.186z" transform="translate(-975.553 -525.663)" fill="#fff"/><path id="패스_18934" data-name="패스 18934" d="M1000.2 594.833a1.8 1.8 0 01-1.8-1.8V544.6a1.8 1.8 0 113.607 0v48.433a1.8 1.8 0 01-1.8 1.8" transform="translate(-998.4 -534.825)" fill="#ed6f00"/><path id="패스_18935" data-name="패스 18935" d="M1087.018 609.322h-86.81a1.8 1.8 0 010-3.61h86.81a7.77 7.77 0 007.764-7.764V546.4h-70.241a1.806 1.806 0 110-3.612h72.047a1.805 1.805 0 011.8 1.806v53.352a11.386 11.386 0 01-11.374 11.373" transform="translate(-998.392 -534.825)" fill="#ed6f00"/><path id="패스_18936" data-name="패스 18936" d="M1016.145 614.258a1.8 1.8 0 01-1.8-1.8 6.164 6.164 0 10-12.327 0 1.806 1.806 0 01-3.612 0 9.772 9.772 0 0115.94-7.582v-55.34a6.164 6.164 0 00-12.327 0v48.433a1.806 1.806 0 11-3.612 0v-48.437a9.774 9.774 0 0119.547 0v62.922a1.8 1.8 0 01-1.8 1.8" transform="translate(-998.398 -539.76)" fill="#ed6f00"/><path id="패스_18937" data-name="패스 18937" d="M1053.465 588.856H1019a1.8 1.8 0 01-1.806-1.806v-7.724h-3.652a1.8 1.8 0 01-1.806-1.806v-20.186a1.812 1.812 0 01.529-1.275l7.8-7.8a1.811 1.811 0 011.275-.528h29.785a1.817 1.817 0 011.275.528l7.8 7.8a1.8 1.8 0 01.528 1.275v20.186a1.8 1.8 0 01-1.8 1.806h-3.654v7.724a1.8 1.8 0 01-1.8 1.806m-32.667-3.61h30.863v-7.726a1.8 1.8 0 011.8-1.8h3.652v-17.64l-6.744-6.744h-28.289l-6.744 6.744v17.636H1019a1.8 1.8 0 011.8 1.8z" transform="translate(-976.682 -526.782)" fill="#ed6f00"/><path id="패스_18938" data-name="패스 18938" d="M1020.05 559.786a4.678 4.678 0 114.677-4.68 4.687 4.687 0 01-4.677 4.68m0-5.747a1.067 1.067 0 101.067 1.067 1.069 1.069 0 00-1.067-1.067" transform="translate(-970.754 -522.379)" fill="#ed6f00"/><path id="패스_18939" data-name="패스 18939" d="M1038.794 566.815a1.8 1.8 0 01-1.8-1.8v-3.862h-16.916v3.862a1.8 1.8 0 01-3.607 0v-5.666a1.806 1.806 0 011.8-1.809h20.523a1.806 1.806 0 011.8 1.809v5.666a1.8 1.8 0 01-1.8 1.8" transform="translate(-968.965 -510.8)" fill="#ed6f00"/><path id="패스_18940" data-name="패스 18940" d="M1022.167 578.4a1.8 1.8 0 01-1.8-1.8v-24.363a1.8 1.8 0 113.607 0v24.356a1.8 1.8 0 01-1.8 1.8" transform="translate(-962.619 -522.381)" fill="#ed6f00"/><path id="패스_18941" data-name="패스 18941" d="M1027.72 559.786a4.678 4.678 0 114.677-4.68 4.687 4.687 0 01-4.677 4.68m0-5.747a1.067 1.067 0 101.067 1.067 1.069 1.069 0 00-1.067-1.067" transform="translate(-958.259 -522.379)" fill="#ed6f00"/><path id="패스_18942" data-name="패스 18942" d="M1038.426 562.417h-20.152a1.805 1.805 0 01-1.806-1.8v-6.2a1.806 1.806 0 013.612 0v4.391h16.542v-4.391a1.8 1.8 0 113.607 0v6.2a1.8 1.8 0 01-1.8 1.8" transform="translate(-968.965 -518.822)" fill="#ed6f00"/></g></g></svg>