<svg xmlns="http://www.w3.org/2000/svg" width="100" height="101.082"><g id="그룹_12307" data-name="그룹 12307" transform="translate(-790 -4900)"><path id="사각형_17169" data-name="사각형 17169" transform="translate(790 4900)" fill="none" d="M0 0h100v100H0z"/><g id="구성_요소_42_1" data-name="구성 요소 42 – 1" transform="translate(806.839 4901.5)"><path id="패스_19119" data-name="패스 19119" d="M29.637 44.717L14.59 97.727m37.123 0L36.531 44.698M17.144 88.729h31.993M21.626 75.112h23.235m-19.99-13.61h16.468m3.363-28.344A11.539 11.539 0 1133.159 21.62a11.541 11.541 0 0111.544 11.538zm-13.7-10.01l5.752 10.408h-7.2l5.358 9.905m18.21-.191a22.469 22.469 0 01-6.445 7.717m-26.634.314a22.38 22.38 0 1135.488-18.138M3.77 48.543a33.162 33.162 0 1145.954 13.343m-33.009.079a33.156 33.156 0 01-8.061-6.463" fill="none" stroke="#00479d" stroke-linecap="round" stroke-linejoin="round" stroke-width="3"/></g></g></svg>