<svg id="구성_요소_50_1" data-name="구성 요소 50 – 1" xmlns="http://www.w3.org/2000/svg" width="100" height="100"><path id="사각형_17150" data-name="사각형 17150" fill="none" d="M0 0h100v100H0z"/><path id="패스_18837" data-name="패스 18837" d="M912.992 299.843l21.023-.166-10.646-17.157z" transform="translate(-873.58 -265.353)" fill="#00479d"/><path id="패스_18838" data-name="패스 18838" d="M80.573 49.411a30.725 30.725 0 11-30.966-30.482 30.726 30.726 0 0130.966 30.482z" fill="none" stroke="#00479d" stroke-linecap="round" stroke-linejoin="round" stroke-width="3"/><path id="패스_18839" data-name="패스 18839" d="M72.8 5.052l21.079 20.75a12.025 12.025 0 013.591 8.48l.232 29.576a12.035 12.035 0 01-3.455 8.536l-20.75 21.079a12.029 12.029 0 01-8.48 3.591l-29.579.232a12.021 12.021 0 01-8.535-3.455L5.824 73.091a12.042 12.042 0 01-3.59-8.48l-.232-29.576a12.038 12.038 0 013.458-8.538L26.21 5.421" fill="none" stroke="#00479d" stroke-linecap="round" stroke-linejoin="round" stroke-width="3"/><path id="패스_18840" data-name="패스 18840" d="M933.825 276.671l-21 .166 10.633 17.135z" transform="translate(-873.867 -275.671)" fill="#00479d"/></svg>