<svg xmlns="http://www.w3.org/2000/svg" width="101.001" height="100"><g id="구성_요소_52_1" data-name="구성 요소 52 – 1" transform="translate(1.001)" fill="none"><path id="사각형_17172" data-name="사각형 17172" d="M0 0h100v100H0z"/><path id="패스_19120" data-name="패스 19120" d="M4.008 50.014l-.365-3.5h34.333l2.451 25.457H6.092L4.65 56.696m5.642 2.548h28.911M15.088 46.513l2.449 25.457m9-25.457l1.965 20.376m3.823 20.048H13.997l1.45-4.831h15.429zm-9.163-4.829V71.969m75.2 23.1l-57.93-.017 7.81-8.1-47.739-.013m54.6 8.13V66.45h37.465v21.4m-26.542-21.4h-8.675v-6.347h8.675zm24.676 0h-8.52v-6.347h8.52zm-9.021 14.4a7.845 7.845 0 11-7.843-7.847 7.842 7.842 0 017.836 7.851zm-9.336-6.809l3.91 7.068h-4.891l3.644 6.736M59.756 22.127a8.37 8.37 0 11-8.369-8.369 8.37 8.37 0 018.369 8.369zm-27.433 0h4.384m28.49 0h4.382M50.95 3.5v4.382m0 28.492v4.382m-13.176-31.8l3.1 3.1m20.151 20.151l3.1 3.1m0-26.343l-3.1 3.1M40.878 32.215l-3.1 3.1" stroke="#074b93" stroke-linecap="round" stroke-linejoin="round" stroke-width="3"/></g></svg>