<svg xmlns="http://www.w3.org/2000/svg" width="131.918" height="100"><g id="그룹_12305" data-name="그룹 12305" transform="translate(-291.936 -4900)"><path id="사각형_17204" data-name="사각형 17204" transform="translate(308 4900)" fill="none" d="M0 0h100v100H0z"/><g id="구성_요소_44_1" data-name="구성 요소 44 – 1" transform="translate(293.436 4924.094)"><path id="패스_18841" data-name="패스 18841" d="M64.459 15.62a35.005 35.005 0 11-2.938 5.322m2.261 34.822a35.1 35.1 0 114-7.21m-2.136-4.8l1.855 6.491 5.811-3.448m-9.59-20.87l-2.015-6.449-5.723 3.591m-23.2 28.839a3.746 3.746 0 01-2.785-3.706c0-4.584 3.53-9.206 3.53-9.206a1.147 1.147 0 011.949.033s3.57 4.952 3.57 9.173a3.686 3.686 0 01-2.345 3.652m-3.919.054c-5.231-.5-9.073-3.549-9.073-8.993 0-10.954 9.686-21.158 9.686-21.158a1.475 1.475 0 012.207.04s9.729 11.029 9.729 21.118c0 5.229-3.7 8.264-8.63 8.939" fill="none" stroke="#00479d" stroke-linecap="round" stroke-linejoin="round" stroke-width="3"/></g></g></svg>