<svg xmlns="http://www.w3.org/2000/svg" width="100" height="101.183"><g id="구성_요소_53_1" data-name="구성 요소 53 – 1" transform="translate(0 .889)" fill="none"><path id="사각형_17174" data-name="사각형 17174" d="M0 0h100v100H0z"/><path id="패스_18817" data-name="패스 18817" d="M65.336 39.873l-2.5-8.752-22.76-.011-11.4 39.742 9.323 21.157 26.856.011 9.342-21.148-7.106-24.854" stroke="#00479d" stroke-linecap="round" stroke-miterlimit="10" stroke-width="3"/><path id="선_1886" data-name="선 1886" stroke="#00479d" stroke-linecap="round" stroke-linejoin="round" stroke-width="3" d="M34.589 92.182l35.652.015"/><path id="패스_18818" data-name="패스 18818" d="M60.104 98.794l-16.576-.007-1.248-6.6 19.079.009z" stroke="#00479d" stroke-linecap="round" stroke-linejoin="round" stroke-width="3"/><path id="사각형_16806" data-name="사각형 16806" stroke="#00479d" stroke-linecap="round" stroke-linejoin="round" stroke-width="3" d="M46.504 9.095h11.885v21.661H46.504z"/><path id="패스_18819" data-name="패스 18819" d="M63.809 31.132l17.607.007M58.39 18.859l11.327.007 6.7 12.271m-24.4-22.475l2.472-7.661" stroke="#00479d" stroke-linecap="round" stroke-linejoin="round" stroke-width="3"/><path id="패스_18820" data-name="패스 18820" d="M30.378 54.14l50.174.022M32.425 19.389l-3.266 4.884" stroke="#00479d" stroke-linecap="round" stroke-linejoin="round" stroke-width="3"/><path id="패스_18821" data-name="패스 18821" d="M46.509 11.869a9.051 9.051 0 11-9.048-9.055 9.051 9.051 0 019.048 9.055z" stroke="#00479d" stroke-linecap="round" stroke-linejoin="round" stroke-width="3"/><path id="패스_18822" data-name="패스 18822" d="M32.171 29.913a6.778 6.778 0 11-6.775-6.782 6.779 6.779 0 016.775 6.782z" stroke="#00479d" stroke-linecap="round" stroke-linejoin="round" stroke-width="3"/><path id="패스_18823" data-name="패스 18823" d="M57.325 42.697a4.888 4.888 0 11-4.886-4.89 4.89 4.89 0 014.886 4.89zm-4.9 38.3h0a5.67 5.67 0 01-5.667-5.671l.007-13.851h11.336l-.006 13.851a5.668 5.668 0 01-5.674 5.667zm-17.809-44.3l-20.619-.014 11.38 17.455-6.52 16.315h1.926l25.971.013m17.033.007l20.273.009" stroke="#00479d" stroke-linecap="round" stroke-linejoin="round" stroke-width="3"/></g></svg>