<svg xmlns="http://www.w3.org/2000/svg" width="100" height="100.778"><g id="구성_요소_57_1" data-name="구성 요소 57 – 1" transform="translate(0 .5)"><g id="구성_요소_56_1" data-name="구성 요소 56 – 1" fill="none"><path id="사각형_17202" data-name="사각형 17202" d="M0 0h100v100H0z"/><path id="선_1883" data-name="선 1883" stroke="#00479d" stroke-linecap="round" stroke-miterlimit="10" stroke-width="3" d="M9 98.777h80.81"/><path id="패스_18811" data-name="패스 18811" d="M20.503 98.778V73.113h57.8v18.683m-45.268-8.734H38.8v5.765m7.72-5.765h5.768v5.765m7.722-5.765h5.765v5.765m-6.391-15.713V55.608h7.012v11.066m-7.012-4.363h6.384" stroke="#00479d" stroke-linecap="round" stroke-linejoin="round" stroke-width="3"/><path id="패스_18812" data-name="패스 18812" d="M46.792 46.438a5.318 5.318 0 01-4.131-5.306c0-6.834 5.264-13.718 5.264-13.718a1.71 1.71 0 012.906.042s5.317 7.385 5.317 13.676a5.25 5.25 0 01-3.655 5.15m-5.685.377c-7.8-.749-13.522-5.293-13.522-13.4 0-16.335 14.439-31.541 14.439-31.541a2.193 2.193 0 013.289.057s14.507 16.444 14.507 31.48c0 7.79-5.527 12.312-12.87 13.321" stroke="#00479d" stroke-linecap="round" stroke-miterlimit="10" stroke-width="3"/></g></g></svg>