<svg xmlns="http://www.w3.org/2000/svg" width="100" height="101"><g id="그룹_12302" data-name="그룹 12302" transform="translate(-308 -4658)"><path id="사각형_17203" data-name="사각형 17203" transform="translate(308 4659)" fill="none" d="M0 0h100v100H0z"/><g id="구성_요소_45_1" data-name="구성 요소 45 – 1" transform="translate(316.5 4659.5)"><path id="패스_19124" data-name="패스 19124" d="M0 97.764h82.444m-57.92-16.03h5.88v5.88m7.877-5.88h5.88v5.88m7.878-5.88h5.88v5.88m10.936 10.15l.074-32.117c0-.727-.514-.874-1.151-.323l-12.69 8.169c-.636.551-1.15.4-1.148-.323l.071-7.523c0-.727-.512-.874-1.148-.326L39.997 73.5c-.639.546-1.165.394-1.165-.331l-.039-7.523c0-.727-.556-.888-1.226-.367l-14.181 8.262c-.668.517-1.219.352-1.219-.372v-14c0-.328-.355-.6-.793-.6h-7.077c-.436 0-.793.269-.793.6V81.95m0 8.692v7.124m39.321-78.42h2.9l-15.06 16.406 4.468-11.53h-8.024l5.255-16.445H53.03l-3.329 7.221m-24.986 3.435a21.3 21.3 0 1121.109 24.166 21 21 0 01-3.351-.267m-16.45 8.778c-4.688 0-9.121-2.991-9.121-7.579 0-9.243 8.171-17.848 8.171-17.848a1.238 1.238 0 011.861.034s8.208 9.3 8.208 17.814c-.002 4.407-4.435 7.58-9.12 7.58zm4.769-9.794a3.759 3.759 0 01-.137 2.708 3.038 3.038 0 01-1.9 1.926" fill="none" stroke="#074b93" stroke-linecap="round" stroke-linejoin="round" stroke-width="3"/></g></g></svg>