<svg xmlns="http://www.w3.org/2000/svg" width="100.932" height="100"><g id="구성_요소_47_1" data-name="구성 요소 47 – 1" transform="translate(.5)"><path id="사각형_17168" data-name="사각형 17168" fill="none" d="M0 0h100v100H0z"/><path id="패스_18829" data-name="패스 18829" d="M10.109 76.428V65.294h79.715v33.038H10.109V85.341" fill="none" stroke="#00479d" stroke-linecap="round" stroke-linejoin="round" stroke-width="3"/><path id="선_1887" data-name="선 1887" fill="none" stroke="#00479d" stroke-linecap="round" stroke-miterlimit="10" stroke-width="3" d="M1 98.331h97.932"/><path id="패스_18830" data-name="패스 18830" d="M18.512 76.385h62.771m-56.682 0v16.221m12.973-16.221v16.221m12.979-16.221v16.221m12.976-16.221v16.221m-5.236-69.407h3.335L44.336 42.027l5.127-13.229h-9.209L46.29 9.922h12.232l-3.818 8.292m18.439 6.628A22.843 22.843 0 1150.3 1.999a22.845 22.845 0 0122.845 22.844z" fill="none" stroke="#00479d" stroke-linecap="round" stroke-linejoin="round" stroke-width="3"/><path id="패스_18831" data-name="패스 18831" d="M806.362 307.545a1.922 1.922 0 01-.243-.016 1.529 1.529 0 01-1.266-1.752c.051-.312.1-.618.16-.928a1.527 1.527 0 113 .565c-.053.28-.1.56-.144.845a1.532 1.532 0 01-1.509 1.285m1.386-5.665a1.5 1.5 0 01-.48-.077 1.535 1.535 0 01-.971-1.936c.1-.3.205-.592.309-.89a1.53 1.53 0 012.877 1.042c-.1.272-.189.541-.28.813a1.533 1.533 0 01-1.456 1.048m2.293-5.372a1.5 1.5 0 01-.709-.179 1.522 1.522 0 01-.643-2.061c.147-.28.293-.555.445-.829a1.527 1.527 0 112.666 1.49c-.136.248-.272.507-.405.757a1.524 1.524 0 01-1.354.821m3.122-4.935a1.506 1.506 0 01-.917-.307 1.525 1.525 0 01-.307-2.138c.186-.248.378-.5.573-.739a1.529 1.529 0 012.4 1.893 39.1 39.1 0 00-.528.68 1.521 1.521 0 01-1.224.611m62.248 14.688a25.22 25.22 0 00-.147-.845 1.527 1.527 0 113-.565c.059.309.109.616.16.928a1.53 1.53 0 01-1.267 1.752 1.915 1.915 0 01-.242.016 1.523 1.523 0 01-1.506-1.285m-1.336-5.428c-.085-.272-.184-.541-.28-.813a1.527 1.527 0 112.871-1.042c.109.3.211.594.312.89a1.535 1.535 0 01-.97 1.936 1.508 1.508 0 01-.48.077 1.537 1.537 0 01-1.453-1.048m-2.192-5.146c-.136-.251-.272-.509-.411-.757a1.53 1.53 0 012.672-1.49c.152.275.3.549.448.829a1.528 1.528 0 01-.645 2.061 1.519 1.519 0 01-2.064-.643m-2.991-4.724q-.256-.34-.528-.68a1.529 1.529 0 012.4-1.893c.195.24.381.491.571.739a1.532 1.532 0 01-.3 2.138 1.529 1.529 0 01-2.141-.3" transform="translate(-791.743 -249.99)" fill="#00479d"/><path id="선_1888" data-name="선 1888" fill="none" stroke="#00479d" stroke-linecap="round" stroke-linejoin="round" stroke-width="3" d="M76.505 76.385v16.221"/></g></svg>