<svg xmlns="http://www.w3.org/2000/svg" width="100" height="100"><g id="그룹_12319" data-name="그룹 12319" transform="translate(-1031 -4660)"><path id="사각형_17321" data-name="사각형 17321" transform="translate(1031 4660)" fill="none" d="M0 0h100v100H0z"/><g id="구성_요소_86_1" data-name="구성 요소 86 – 1" transform="translate(1032.08 4662.117)"><path id="패스_18985" data-name="패스 18985" d="M1121.005 297.5v6.655h-16.587V297.5H1188v-9.19h-89.712v8.356" transform="translate(-1092.614 -261.692)" fill="#fff"/><path id="패스_18986" data-name="패스 18986" d="M1100.3 304.78l59.554-24.529 19.156 24.529" transform="translate(-1088.493 -278.16)" fill="#fff"/><path id="선_1904" data-name="선 1904" transform="translate(70.962 35.808)" fill="#fff" d="M0 46.743V0"/><path id="선_1905" data-name="선 1905" transform="translate(71.357 2.091)" fill="#fff" d="M0 0v24.529"/><path id="패스_18987" data-name="패스 18987" d="M1121.181 350.028h12.33a5.324 5.324 0 005.325-5.322V299.3l.113-8.14h-18.787l-.067 29.84-.538 16.216v7.273z" transform="translate(-1049.154 -255.875)" fill="#fff"/><path id="패스_18988" data-name="패스 18988" d="M1115.865 306.718l-7.665-13.2-7.669 13.2" transform="translate(-1088.021 -251.055)" fill="#fff"/><path id="사각형_16901" data-name="사각형 16901" transform="translate(2.075 55.891)" fill="#fff" d="M0 0h36.175v22.055H0z"/><path id="패스_18989" data-name="패스 18989" d="M1122.4 307.648h-16.584a2.1 2.1 0 01-2.1-2.091v-6.652a2.1 2.1 0 012.1-2.091h81.491V291.8h-85.538v2.507a2.084 2.084 0 11-4.169 0v-4.595a2.09 2.09 0 012.069-2.091h89.737a2.07 2.07 0 012.069 2.091v9.19a2.07 2.07 0 01-2.069 2.088H1124.5v4.564a2.1 2.1 0 01-2.1 2.091m-14.485-4.178h12.406v-2.477h-12.406z" transform="translate(-1094.01 -263.095)" fill="#ed6f00"/><path id="패스_18990" data-name="패스 18990" d="M1101.7 308.272a2.091 2.091 0 01-.8-4.023l59.554-24.529a2.092 2.092 0 012.443.648l19.156 24.529a2.088 2.088 0 11-3.293 2.568l-18.182-23.279-58.078 23.928a2.118 2.118 0 01-.8.158" transform="translate(-1089.896 -279.564)" fill="#ed6f00"/><path id="패스_18991" data-name="패스 18991" d="M1133.832 348.052H1121.5a2.089 2.089 0 010-4.178h12.333a3.239 3.239 0 003.235-3.235v-45.4a2.089 2.089 0 014.178 0v45.4a7.422 7.422 0 01-7.413 7.413" transform="translate(-1049.45 -251.811)" fill="#ed6f00"/><path id="패스_18992" data-name="패스 18992" d="M1121.141 341.563a2.087 2.087 0 01-2.087-2.087v-46.743a2.088 2.088 0 014.175 0v46.743a2.085 2.085 0 01-2.088 2.087" transform="translate(-1050.18 -256.925)" fill="#ed6f00"/><path id="패스_18993" data-name="패스 18993" d="M1121.272 308.271a2.087 2.087 0 01-2.088-2.087v-24.529a2.088 2.088 0 114.175 0v24.529a2.085 2.085 0 01-2.088 2.087" transform="translate(-1049.914 -279.563)" fill="#ed6f00"/><path id="패스_18994" data-name="패스 18994" d="M1126.937 335.693a2.088 2.088 0 01-1.214-3.789l6.5-4.641-12.6-13.21a2.088 2.088 0 01-.006-2.876l14.406-15.257a2.088 2.088 0 013.037 2.867l-13.045 13.818 12.9 13.52a2.1 2.1 0 01.566 1.64 2.079 2.079 0 01-.867 1.5l-8.466 6.04a2.072 2.072 0 01-1.208.386" transform="translate(-1050.193 -247.486)" fill="#ed6f00"/><path id="패스_18995" data-name="패스 18995" d="M1117.267 310.159a2.087 2.087 0 01-1.807-1.041l-5.861-10.088-5.861 10.088a2.088 2.088 0 01-3.612-2.1l7.665-13.2a2.171 2.171 0 013.611 0l7.666 13.2a2.088 2.088 0 01-1.8 3.137" transform="translate(-1089.424 -252.409)" fill="#ed6f00"/><path id="패스_18996" data-name="패스 18996" d="M1134.67 323.479h-36.151a2.1 2.1 0 01-2.1-2.091v-22.055a2.1 2.1 0 012.1-2.087h36.151a2.1 2.1 0 012.1 2.087v22.055a2.1 2.1 0 01-2.1 2.091m-34.081-4.178h32v-17.875h-32z" transform="translate(-1096.42 -243.442)" fill="#ed6f00"/></g></g></svg>