<svg id="구성_요소_77_1" data-name="구성 요소 77 – 1" xmlns="http://www.w3.org/2000/svg" width="98.912" height="98.82"><path id="패스_18863" data-name="패스 18863" d="M1022.18 261.668a10.811 10.811 0 006.619 2.737h7.1a10.865 10.865 0 006.639-2.745l5.006-4.989a10.779 10.779 0 002.745-6.617v-21.5a9.316 9.316 0 00-2.745-6.608l3.5-9.488s-15.833-.216-23.766.146c-4.561.207-6.412 5.059-6.412 5.059-3.437.333-6.451 2.614-6.451 8v24.391a10.764 10.764 0 002.745 6.617z" transform="translate(-977.248 -210.473)" fill="#fff"/><path id="사각형_16878" data-name="사각형 16878" transform="translate(1.933 56.198)" fill="#fff" d="M0 0h30.766v40.699H0z"/><path id="패스_18864" data-name="패스 18864" d="M1068.246 310.53h-50.47a1.923 1.923 0 010-3.846h50.47a3.9 3.9 0 003.737-3.3l1.552-13.267a10.451 10.451 0 00-3.274-4.888l-9.762-8.482a13.876 13.876 0 00-7.6-2.838h-7.345l-.619 11.113a2.969 2.969 0 01-4.7 2.247l-.053-.036-.457.958a3.893 3.893 0 01-3.723 2.541h-4.813a4 4 0 01-3.821-2.79l-.35-.717-.065.045a2.968 2.968 0 01-4.695-2.249l-.625-11.11h-3.863a1.923 1.923 0 010-3.846h3.759v-6.238a.8.8 0 010-.087l-4.488-4.474a12.742 12.742 0 01-3.311-7.975V226.9c0-5.286 2.627-8.855 7.093-9.746.95-1.748 3.308-5.034 7.611-5.227 7.894-.364 23.225-.157 23.875-.148a1.92 1.92 0 011.779 2.586l-3.1 8.407a11.361 11.361 0 012.463 7.026v21.5a12.751 12.751 0 01-3.309 7.978l-4.488 4.471a.77.77 0 010 .087v6.238h7.238a17.61 17.61 0 0110.121 3.782l9.762 8.482c2.146 1.866 4.485 5.2 4.6 7.72a1.565 1.565 0 01-.008.277l-.126 1.3-1.448 12.214a7.792 7.792 0 01-7.555 6.692m-38.063-25.573l1.011 1.93h4.813c.028-.081.218-.283.258-.361l.754-1.569-3.411-2.466zm-4.561-8.765l.389 7.023 4.415-3.165zm11.155 3.857l4.409 3.165.39-7.023zm-11.4-8.984l8.219 6.6 8.217-6.6v-4.628a12.013 12.013 0 01-4.673 1.126h-7.1a11.9 11.9 0 01-4.661-1.109zm16.681-55.507c-4.639 0-9.877.045-13.449.207-3.261.148-4.687 3.787-4.7 3.821a1.929 1.929 0 01-1.613 1.233c-2.154.2-4.715 1.431-4.715 6.079V251.3a8.936 8.936 0 002.177 5.25l5.017 5a9.008 9.008 0 005.261 2.171h7.1a9.017 9.017 0 005.28-2.179l5.009-4.992a8.953 8.953 0 002.176-5.252v-21.5a7.454 7.454 0 00-2.176-5.247 1.921 1.921 0 01-.445-2.028l2.557-6.928a850.756 850.756 0 00-7.482-.034" transform="translate(-978.474 -211.71)" fill="#ed6f00"/><path id="패스_18865" data-name="패스 18865" d="M1028.764 248.367h-6.707a3.782 3.782 0 01-3.781-3.776v-2.263a3.784 3.784 0 013.781-3.782h6.707a3.782 3.782 0 013.776 3.782v2.263a3.781 3.781 0 01-3.776 3.776m-.07-6.04l-6.636.067.065 2.2 6.572-.07z" transform="translate(-970.302 -163.373)" fill="#ed6f00"/><path id="패스_18866" data-name="패스 18866" d="M1019.669 258.351a1.812 1.812 0 01-.423-.048 1.924 1.924 0 01-1.457-2.3l3.1-13.824a1.929 1.929 0 011.877-1.5h7.213a1.925 1.925 0 011.874 1.507l1.995 8.905a1.92 1.92 0 11-3.748.84l-1.661-7.4h-4.135l-2.762 12.323a1.925 1.925 0 01-1.874 1.5" transform="translate(-971.263 -159.532)" fill="#ed6f00"/><path id="패스_18867" data-name="패스 18867" d="M1040.357 250.2h-10.245a3.78 3.78 0 01-3.779-3.776v-2.263a3.781 3.781 0 013.779-3.779h10.245a3.781 3.781 0 013.779 3.779v2.263a3.78 3.78 0 01-3.779 3.776m-.067-6.04l-10.177.067.068 2.2 10.11-.07z" transform="translate(-955.787 -160.061)" fill="#ed6f00"/><path id="패스_18868" data-name="패스 18868" d="M1033.841 275.631h-30.758a1.929 1.929 0 01-1.933-1.922v-40.7a1.931 1.931 0 011.933-1.922h30.758a1.931 1.931 0 011.933 1.922v40.7a1.929 1.929 0 01-1.933 1.922m-28.853-3.846h26.92v-36.854h-26.92z" transform="translate(-1001.15 -176.811)" fill="#ed6f00"/><path id="패스_18869" data-name="패스 18869" d="M1020.217 243.433h-14.174a1.929 1.929 0 01-1.933-1.924v-5.544a1.929 1.929 0 011.933-1.924h14.174a1.93 1.93 0 011.933 1.924v5.544a1.93 1.93 0 01-1.933 1.924m-12.269-3.846h10.352v-1.7h-10.351z" transform="translate(-995.818 -171.489)" fill="#ed6f00"/><path id="패스_18870" data-name="패스 18870" d="M1020.224 244.279h-14.194a1.923 1.923 0 110-3.846h14.194a1.923 1.923 0 010 3.846" transform="translate(-995.826 -159.973)" fill="#ed6f00"/><path id="패스_18871" data-name="패스 18871" d="M1020.224 246.314h-14.194a1.923 1.923 0 110-3.846h14.194a1.923 1.923 0 010 3.846" transform="translate(-995.826 -156.308)" fill="#ed6f00"/><path id="패스_18872" data-name="패스 18872" d="M1051.315 230.853c-15.6 0-22.6-4.518-25.629-7.793-4.02 7.275-9.625 7.768-9.891 7.788a1.947 1.947 0 01-2.056-1.779 1.92 1.92 0 011.756-2.053c.263-.031 5.079-.661 8.073-8.53a1.9 1.9 0 011.849-1.238 1.921 1.921 0 011.779 1.333c.022.053 3.314 8.426 24.116 8.426.073 0 .137-.006.213 0a1.923 1.923 0 01.006 3.846z" transform="translate(-978.483 -201.739)" fill="#ed6f00"/></svg>