<svg xmlns="http://www.w3.org/2000/svg" width="100" height="100"><g id="그룹_12313" data-name="그룹 12313" transform="translate(-1031 -4418)"><path id="사각형_17340" data-name="사각형 17340" transform="translate(1031 4418)" fill="none" d="M0 0h100v100H0z"/><g id="구성_요소_80_1" data-name="구성 요소 80 – 1" transform="translate(1031 4428)"><path id="패스_18901" data-name="패스 18901" d="M998.54 435.169v-20.343a5.558 5.558 0 015.556-5.556h85.321a5.56 5.56 0 015.559 5.556v50.954a5.559 5.559 0 01-5.559 5.559H1004.1a5.557 5.557 0 01-5.556-5.559v-19.864" transform="translate(-996.75 -407.493)" fill="#fff"/><path id="선_1893" data-name="선 1893" transform="translate(11.115 45.699)" fill="#fff" d="M0 0h87.105"/><path id="패스_18902" data-name="패스 18902" d="M1022.736 431.724a3.458 3.458 0 11-3.455-3.458 3.457 3.457 0 013.455 3.458" transform="translate(-969.272 -377.286)" fill="#fff"/><path id="사각형_16890" data-name="사각형 16890" transform="translate(30.722 74.209)" fill="#fff" d="M0 0h38.542v4.328H0z"/><path id="패스_18903" data-name="패스 18903" d="M1012.5 443.39l2.585-10.156h18.945l1.842 10.361" transform="translate(-974.551 -369.386)" fill="#fff"/><path id="패스_18904" data-name="패스 18904" d="M1032.5 424.761a11.293 11.293 0 11-11.291-11.293 11.289 11.289 0 0111.291 11.293" transform="translate(-978.67 -400.817)" fill="#fff"/><path id="패스_18905" data-name="패스 18905" d="M1014.03 436.054h26.87l-13.436-22.586z" transform="translate(-972.118 -400.817)" fill="#fff"/><path id="패스_18906" data-name="패스 18906" d="M1090.5 474.212h-85.318a7.345 7.345 0 01-7.335-7.338v-19.865a1.778 1.778 0 113.556 0v19.864a3.786 3.786 0 003.779 3.782h85.318a3.786 3.786 0 003.779-3.782v-50.954a3.784 3.784 0 00-3.779-3.779h-85.318a3.783 3.783 0 00-3.779 3.779v20.343a1.778 1.778 0 11-3.556 0v-20.343a7.342 7.342 0 017.335-7.335h85.318a7.344 7.344 0 017.338 7.335v50.954a7.347 7.347 0 01-7.338 7.338" transform="translate(-997.849 -408.584)" fill="#ed6f00"/><path id="패스_18907" data-name="패스 18907" d="M1090.337 429.1h-87.106a1.778 1.778 0 010-3.556h87.106a1.778 1.778 0 010 3.556" transform="translate(-992.115 -381.619)" fill="#ed6f00"/><path id="패스_18908" data-name="패스 18908" d="M1020.375 438.052a5.236 5.236 0 115.238-5.235 5.243 5.243 0 01-5.238 5.235m0-6.916a1.68 1.68 0 101.678 1.681 1.682 1.682 0 00-1.678-1.681" transform="translate(-970.356 -378.377)" fill="#ed6f00"/><path id="패스_18909" data-name="패스 18909" d="M1049.333 444.433h-38.516a1.786 1.786 0 01-1.787-1.78v-4.328a1.785 1.785 0 011.787-1.777h38.516a1.769 1.769 0 011.787 1.777v4.328a1.769 1.769 0 01-1.787 1.78m-36.755-3.559h34.986v-.774h-34.986z" transform="translate(-980.07 -364.116)" fill="#ed6f00"/><path id="패스_18910" data-name="패스 18910" d="M1035.937 446.465a1.775 1.775 0 01-1.749-1.469l-1.583-8.892h-15.964l-.658 3.712a1.778 1.778 0 11-3.5-.622l.919-5.178a1.78 1.78 0 011.749-1.469h18.945a1.785 1.785 0 011.754 1.469l1.842 10.358a1.779 1.779 0 01-1.438 2.062 1.66 1.66 0 01-.316.029" transform="translate(-974.625 -370.477)" fill="#ed6f00"/><path id="패스_18911" data-name="패스 18911" d="M1022.294 438.924a13.071 13.071 0 1113.07-13.07 13.085 13.085 0 01-13.07 13.07m0-22.586a9.515 9.515 0 109.514 9.516 9.526 9.526 0 00-9.514-9.516" transform="translate(-979.76 -401.91)" fill="#ed6f00"/><path id="패스_18912" data-name="패스 18912" d="M1041.989 438.924h-26.873a1.778 1.778 0 01-1.528-2.689l13.438-22.584a1.775 1.775 0 013.054 0l13.435 22.584a1.778 1.778 0 01-1.526 2.689m-23.747-3.556h20.621l-10.309-17.331z" transform="translate(-973.222 -401.91)" fill="#ed6f00"/></g></g></svg>