<svg xmlns="http://www.w3.org/2000/svg" width="100" height="100"><g id="그룹_12323" data-name="그룹 12323" transform="translate(-549 -4902)"><path id="사각형_17335" data-name="사각형 17335" transform="translate(549 4902)" fill="none" d="M0 0h100v100H0z"/><g id="구성_요소_90_1" data-name="구성 요소 90 – 1" transform="translate(549 4907)"><path id="패스_19038" data-name="패스 19038" d="M1095.38 570.873v-32.924h82.252V588h-82.252v-6.949" transform="translate(-1086.518 -531.008)" fill="#fff"/><path id="선_1911" data-name="선 1911" transform="translate(1.891 56.994)" fill="#fff" d="M0 0h96.219"/><path id="선_1912" data-name="선 1912" transform="translate(1.891 6.941)" fill="#fff" d="M0 0h96.219"/><path id="선_1913" data-name="선 1913" transform="translate(49.807 1.894)" fill="#fff" d="M0 5.048V0"/><path id="패스_19039" data-name="패스 19039" d="M1119.25 567.677v-23.735a1.3 1.3 0 011.3-1.3h3.7a1.3 1.3 0 011.3 1.3v24.049" transform="translate(-1044.616 -522.761)" fill="#fff"/><path id="패스_19040" data-name="패스 19040" d="M1115.4 564.208V546.1a1.3 1.3 0 011.3-1.3h3.7a1.3 1.3 0 011.3 1.3v18.109" transform="translate(-1051.375 -518.979)" fill="#fff"/><path id="패스_19041" data-name="패스 19041" d="M1111.56 558.365v-9.115a1.3 1.3 0 011.293-1.3h3.7a1.3 1.3 0 011.293 1.3v9.429" transform="translate(-1058.115 -513.448)" fill="#fff"/><path id="패스_19042" data-name="패스 19042" d="M1123.806 557.226v-3.813l-2.932-.769-.981-2.293 1.549-2.642-2.7-2.7-2.615 1.529-2.315-.929-.771-2.965h-3.816l-.769 2.929-2.293.981-2.645-1.546-2.7 2.7 1.535 2.612-.934 2.315-2.962.777v3.813l2.932.766.978 2.3-1.549 2.643 2.7 2.695 2.615-1.529 2.314.931.778 2.962h3.816l.763-2.929 2.292-.981 2.646 1.546 2.7-2.695-1.529-2.612.926-2.32z" transform="translate(-1081.108 -522.761)" fill="#fff"/><path id="패스_19043" data-name="패스 19043" d="M1108.541 549.369a3.344 3.344 0 11-3.343-3.342 3.34 3.34 0 013.343 3.342" transform="translate(-1075.155 -516.828)" fill="#fff"/><path id="패스_19044" data-name="패스 19044" d="M1178.837 591.1h-82.252a1.892 1.892 0 01-1.893-1.89v-6.952a1.893 1.893 0 113.786 0v5.059h78.469v-46.269h-78.469v31.032a1.893 1.893 0 11-3.786 0v-32.925a1.894 1.894 0 011.893-1.893h82.252a1.892 1.892 0 011.89 1.893v50.055a1.89 1.89 0 01-1.89 1.89" transform="translate(-1087.726 -532.214)" fill="#ed6f00"/><path id="패스_19045" data-name="패스 19045" d="M1190.274 559.211h-96.219a1.892 1.892 0 010-3.783h96.219a1.892 1.892 0 010 3.783" transform="translate(-1092.164 -500.324)" fill="#ed6f00"/><path id="패스_19046" data-name="패스 19046" d="M1190.274 541.045h-96.219a1.892 1.892 0 010-3.783h96.219a1.892 1.892 0 010 3.783" transform="translate(-1092.164 -532.214)" fill="#ed6f00"/><path id="패스_19047" data-name="패스 19047" d="M1111.514 590.386a1.888 1.888 0 01-1.89-1.89v-31.175a1.89 1.89 0 113.78 0V588.5a1.89 1.89 0 01-1.89 1.89" transform="translate(-1061.515 -500.324)" fill="#ed6f00"/><path id="패스_19048" data-name="패스 19048" d="M1103.184 584.14a1.86 1.86 0 01-.948-.256 1.886 1.886 0 01-.683-2.585l13.248-22.776a1.892 1.892 0 013.273 1.9L1104.82 583.2a1.89 1.89 0 01-1.637.942" transform="translate(-1076.137 -496.547)" fill="#ed6f00"/><path id="패스_19049" data-name="패스 19049" d="M1130.474 587.917a1.89 1.89 0 01-1.637-.942l-16.7-28.706a1.892 1.892 0 113.274-1.9l16.693 28.706a1.886 1.886 0 01-.683 2.585 1.86 1.86 0 01-.948.256" transform="translate(-1057.549 -500.324)" fill="#ed6f00"/><path id="패스_19050" data-name="패스 19050" d="M1111.444 544.261a1.89 1.89 0 01-1.89-1.89v-5.048a1.89 1.89 0 113.781 0v5.048a1.888 1.888 0 01-1.89 1.89" transform="translate(-1061.638 -535.43)" fill="#ed6f00"/><path id="패스_19051" data-name="패스 19051" d="M1126.742 571.087a1.89 1.89 0 01-1.89-1.89v-23.454h-2.508v16.979a1.891 1.891 0 11-3.783 0v-17.577a3.191 3.191 0 013.188-3.185h3.7a3.188 3.188 0 013.185 3.185V569.2a1.889 1.889 0 01-1.89 1.89" transform="translate(-1045.826 -523.967)" fill="#ed6f00"/><path id="패스_19052" data-name="패스 19052" d="M1122.9 567.3a1.89 1.89 0 01-1.89-1.89V547.9h-2.5v17.516a1.892 1.892 0 01-3.783 0V547.3a3.19 3.19 0 013.182-3.188h3.7a3.189 3.189 0 013.185 3.188v18.111a1.89 1.89 0 01-1.89 1.89" transform="translate(-1052.565 -520.184)" fill="#ed6f00"/><path id="패스_19053" data-name="패스 19053" d="M1119.062 561.773a1.888 1.888 0 01-1.89-1.89v-8.837h-2.507v2.361a1.892 1.892 0 11-3.783 0v-2.954a3.189 3.189 0 013.185-3.188h3.7a3.188 3.188 0 013.185 3.188v9.429a1.89 1.89 0 01-1.89 1.89" transform="translate(-1059.307 -514.652)" fill="#ed6f00"/><path id="패스_19054" data-name="패스 19054" d="M1143.544 554.941h-31.519a1.892 1.892 0 010-3.783h31.519a1.892 1.892 0 010 3.783" transform="translate(-1060.617 -507.82)" fill="#ed6f00"/><path id="패스_19055" data-name="패스 19055" d="M1114.25 571.09h-3.816a1.89 1.89 0 01-1.83-1.416l-.534-2.042-.571-.232-1.816 1.066a1.89 1.89 0 01-2.292-.3l-2.7-2.7a1.887 1.887 0 01-.289-2.29l1.064-1.824-.24-.565-2.036-.529a1.9 1.9 0 01-1.414-1.832v-3.813a1.891 1.891 0 011.411-1.83l2.047-.535.229-.57-1.061-1.813a1.9 1.9 0 01.289-2.3l2.7-2.695a1.9 1.9 0 012.292-.295l1.822 1.067.565-.24.534-2.036a1.891 1.891 0 011.83-1.413h3.816a1.891 1.891 0 011.827 1.416l.535 2.042.57.229 1.813-1.064a1.9 1.9 0 012.3.295l2.695 2.695a1.894 1.894 0 01.3 2.3l-1.067 1.821.243.565 2.039.535a1.888 1.888 0 011.408 1.83v3.813a1.9 1.9 0 01-1.411 1.832l-2.044.529-.229.573 1.061 1.816a1.886 1.886 0 01-.3 2.29l-2.695 2.7a1.892 1.892 0 01-2.3.3l-1.818-1.072-.565.245-.535 2.033a1.888 1.888 0 01-1.827 1.416m-2.356-3.786h.893l.394-1.516a1.894 1.894 0 011.086-1.262l2.3-.981a1.881 1.881 0 011.7.1l1.386.813.631-.634-.793-1.353a1.882 1.882 0 01-.122-1.659l.929-2.317a1.891 1.891 0 011.278-1.127l1.551-.4v-.9l-1.521-.4a1.879 1.879 0 01-1.26-1.083l-.981-2.3a1.886 1.886 0 01.107-1.695l.81-1.389-.631-.631-1.356.793a1.887 1.887 0 01-1.661.121l-2.315-.926a1.893 1.893 0 01-1.127-1.278l-.4-1.549h-.893l-.4 1.518a1.883 1.883 0 01-1.089 1.256l-2.293.978a1.873 1.873 0 01-1.7-.1l-1.386-.81-.628.631.791 1.356a1.894 1.894 0 01.124 1.664l-.931 2.314a1.9 1.9 0 01-1.273 1.122l-1.554.405v.9l1.518.394a1.9 1.9 0 011.262 1.091l.978 2.292a1.891 1.891 0 01-.107 1.7l-.81 1.383.631.634 1.356-.8a1.878 1.878 0 011.662-.119l2.314.926a1.882 1.882 0 011.124 1.279zm13.119-8.872z" transform="translate(-1082.314 -523.967)" fill="#ed6f00"/><path id="패스_19056" data-name="패스 19056" d="M1106.394 555.811a5.235 5.235 0 115.232-5.235 5.241 5.241 0 01-5.232 5.235m0-6.687a1.451 1.451 0 101.449 1.452 1.454 1.454 0 00-1.449-1.452" transform="translate(-1076.37 -518.033)" fill="#ed6f00"/></g></g></svg>