<svg xmlns="http://www.w3.org/2000/svg" width="100.001" height="100"><g id="그룹_12322" data-name="그룹 12322" transform="translate(-308 -4902)"><path id="사각형_17351" data-name="사각형 17351" transform="translate(308 4902)" fill="none" d="M0 0h100v100H0z"/><g id="구성_요소_89_1" data-name="구성 요소 89 – 1" transform="translate(308 4919)"><path id="패스_19026" data-name="패스 19026" d="M1121.39 526.314v-40.5a2.194 2.194 0 012.187-2.187h6.247a2.194 2.194 0 012.188 2.188v40.625" transform="translate(-1036.971 -462.189)" fill="#fff"/><path id="패스_19027" data-name="패스 19027" d="M1113.29 520.951v-30.589a2.193 2.193 0 012.187-2.19h6.247a2.195 2.195 0 012.188 2.19v30.589" transform="translate(-1046.733 -456.707)" fill="#fff"/><path id="패스_19028" data-name="패스 19028" d="M1105.18 512.6v-15.591a2.191 2.191 0 012.187-2.187h6.25a2.191 2.191 0 012.185 2.188v15.928" transform="translate(-1056.506 -448.693)" fill="#fff"/><path id="패스_19029" data-name="패스 19029" d="M1092.077 500.992h-8.283v-17.165h8.283l18.278-9.237v34.788z" transform="translate(-1082.279 -473.076)" fill="#fff"/><path id="선_1908" data-name="선 1908" transform="translate(36.612 13.292)" fill="#fff" d="M0 0v11.235"/><path id="선_1909" data-name="선 1909" transform="translate(45.3 9.197)" fill="#fff" d="M0 0v19.425"/><path id="선_1910" data-name="선 1910" transform="translate(53.988 5.354)" fill="#fff" d="M0 0v27.11"/><path id="패스_19030" data-name="패스 19030" d="M1132.843 528.776a1.512 1.512 0 01-1.512-1.513v-40.625a.683.683 0 00-.675-.673h-6.247a.681.681 0 00-.675.673v30.382a1.514 1.514 0 01-3.028 0v-30.382a3.706 3.706 0 013.7-3.7h6.247a3.706 3.706 0 013.7 3.7v40.625a1.512 1.512 0 01-1.513 1.513" transform="translate(-1037.796 -463.018)" fill="#ed6f00"/><path id="패스_19031" data-name="패스 19031" d="M1124.733 523.293a1.511 1.511 0 01-1.513-1.513v-30.594a.684.684 0 00-.675-.672h-6.245a.683.683 0 00-.675.672v30.594a1.514 1.514 0 01-3.028 0v-30.594a3.707 3.707 0 013.7-3.7h6.247a3.707 3.707 0 013.7 3.7v30.594a1.512 1.512 0 01-1.513 1.513" transform="translate(-1047.569 -457.534)" fill="#ed6f00"/><path id="패스_19032" data-name="패스 19032" d="M1116.623 515.279a1.512 1.512 0 01-1.513-1.513v-15.93a.684.684 0 00-.672-.675h-6.249a.684.684 0 00-.675.675v5.687a1.514 1.514 0 01-3.028 0v-5.687a3.706 3.706 0 013.7-3.7h6.249a3.7 3.7 0 013.7 3.7v15.93a1.512 1.512 0 01-1.513 1.513" transform="translate(-1057.342 -449.521)" fill="#ed6f00"/><path id="패스_19033" data-name="패스 19033" d="M1157.693 505.379h-53.239a1.514 1.514 0 110-3.028h53.239a1.514 1.514 0 010 3.028" transform="translate(-1059.206 -439.62)" fill="#ed6f00"/><path id="패스_19034" data-name="패스 19034" d="M1111.183 511.721a1.5 1.5 0 01-.631-.139l-17.978-8.249h-7.952a1.513 1.513 0 01-1.515-1.515v-17.165a1.514 1.514 0 011.515-1.513h7.921l17.959-9.076a1.516 1.516 0 012.2 1.352v34.793a1.516 1.516 0 01-1.515 1.513m-25.052-11.422h6.77a1.529 1.529 0 01.631.139l16.135 7.4v-29.97L1093.586 486a1.489 1.489 0 01-.681.161h-6.77z" transform="translate(-1083.107 -473.903)" fill="#ed6f00"/><path id="패스_19035" data-name="패스 19035" d="M1100.537 493.506a1.511 1.511 0 01-1.512-1.513v-11.235a1.513 1.513 0 113.025 0v11.235a1.511 1.511 0 01-1.513 1.513" transform="translate(-1063.925 -467.466)" fill="#ed6f00"/><path id="패스_19036" data-name="패스 19036" d="M1104.477 499.84a1.512 1.512 0 01-1.513-1.513V478.9a1.513 1.513 0 113.026 0v19.425a1.512 1.512 0 01-1.513 1.513" transform="translate(-1059.177 -469.705)" fill="#ed6f00"/><path id="패스_19037" data-name="패스 19037" d="M1108.417 505.78a1.512 1.512 0 01-1.513-1.513v-27.11a1.513 1.513 0 113.025 0v27.11a1.511 1.511 0 01-1.513 1.513" transform="translate(-1054.428 -471.805)" fill="#ed6f00"/></g></g></svg>