<svg xmlns="http://www.w3.org/2000/svg" width="100" height="100.64"><g id="그룹_12304" data-name="그룹 12304" transform="translate(-1272 -4660)"><path id="사각형_17149" data-name="사각형 17149" transform="translate(1272 4660)" fill="none" d="M0 0h100v100H0z"/><g id="구성_요소_49_1" data-name="구성 요소 49 – 1" transform="translate(1273.5 4662.5)"><path id="패스_19117" data-name="패스 19117" d="M24.807 24.215H.824V.226h23.983zm39.7-1.121h30.846L79.924.001zM25.641 82.078a12.821 12.821 0 11-12.822-12.819 12.822 12.822 0 0112.823 12.818zm68.847 0L79.925 96.641 65.367 82.077l14.558-14.555zm-56.044 1.2h13.4m-6.039 4.416l6.755-4.416-6.755-4.419m-7.364-66.64h13.4m-6.039 4.416l6.755-4.416-6.755-4.422m34.122 23.928h0c0 6.934-2.1 12.555-9.026 12.555H20.567c-6.935 0-7.75 5.62-7.75 12.552m-4.41-4.417l4.416 6.755 4.419-6.755" fill="none" stroke="#074b93" stroke-linecap="round" stroke-linejoin="round" stroke-width="3"/></g></g></svg>